<svg width="32" height="32" viewBox="0 0 32 32" fill="currentColor" xmlns="http://www.w3.org/2000/svg">
<path fill-rule="evenodd" clip-rule="evenodd" d="M17.255 10.1465L22.4038 19.0822C22.5171 19.3489 22.5667 19.5658 22.5808 19.7911C22.6091 20.3175 22.425 20.8292 22.0638 21.2229C21.7026 21.6153 21.214 21.8469 20.6828 21.875H10.3145C10.095 21.8617 9.87546 21.8118 9.67007 21.7346C8.64316 21.3205 8.14741 20.1554 8.56526 19.1454L13.7494 10.1402C13.9264 9.82361 14.1956 9.55058 14.5284 9.37511C15.4916 8.84097 16.7168 9.19192 17.255 10.1465ZM16.1148 16.0353C16.1148 16.3722 15.8386 16.6537 15.4987 16.6537C15.1587 16.6537 14.8754 16.3722 14.8754 16.0353V14.0497C14.8754 13.7121 15.1587 13.439 15.4987 13.439C15.8386 13.439 16.1148 13.7121 16.1148 14.0497V16.0353ZM15.4987 19.0541C15.1587 19.0541 14.8754 18.7727 14.8754 18.4365C14.8754 18.0989 15.1587 17.8181 15.4987 17.8181C15.8386 17.8181 16.1148 18.0925 16.1148 18.4287C16.1148 18.7727 15.8386 19.0541 15.4987 19.0541Z" fill="currentColor"/>
</svg>
