<svg
  viewBox="0 0 11 17"
  fill="none"
  xmlns="http://www.w3.org/2000/svg"
  className="w-full h-full"
  >
  <path
    d="M9.02185 16.6377L0.612475 8.95957C0.532614 8.88665 0.476711 8.81374 0.444767 8.74082C0.412823 8.6679 0.396851 8.58769 0.396851 8.50019C0.396851 8.41269 0.412823 8.33249 0.444767 8.25957C0.476711 8.18665 0.532614 8.11374 0.612475 8.04082L9.02185 0.362695C9.19755 0.202279 9.42116 0.12207 9.69268 0.12207C9.96421 0.12207 10.1878 0.202279 10.3635 0.362695C10.5552 0.537695 10.651 0.745508 10.651 0.986133C10.651 1.22676 10.5552 1.43457 10.3635 1.60957L2.81664 8.50019L10.3635 15.3908C10.5712 15.5804 10.667 15.7919 10.651 16.0252C10.635 16.2585 10.5392 16.4554 10.3635 16.6158C10.1719 16.7908 9.94425 16.8783 9.6807 16.8783C9.41716 16.8783 9.19755 16.7981 9.02185 16.6377Z"
    fill="currentColor"
  />
</svg>