<svg xmlns="http://www.w3.org/2000/svg" width="221" height="168" viewBox="0 0 221 168">
  <g id="Group_44931" data-name="Group 44931" transform="translate(-251 -1015.688)">
    <g id="Group_44415" data-name="Group 44415" transform="translate(251 1047.482)">
      <g id="Group_47" data-name="Group 47" transform="translate(0 0)">
        <path id="Path_20" data-name="Path 20" d="M179.538,137.209v31.709l3.538-3.538H76.151a10.276,10.276,0,0,0-9.165,5.113,13.608,13.608,0,0,0-1.291,6.972v47.65l3.538-3.538H53.308a4.864,4.864,0,0,1-.742-.036l.478.054-.46-.106a4.247,4.247,0,0,1-.442-.142c-.354-.142-.282-.106.2.106,0,.018-.566-.3-.6-.318-.726-.424,0,.018-.036.036a6.1,6.1,0,0,1-.955-.955c.088-.088.424.654.16.16-.106-.2-.23-.4-.336-.6-.39-.672.2.742,0,0a8.489,8.489,0,0,1-.23-.9l.054.478a4.335,4.335,0,0,1-.036-.478c-.018-.3,0-.16,0-.248v-.212c-.036-6.122,0-12.261,0-18.385V136.991c0-.088.018-.16.018-.248.036-.39.036-.318-.036.23-.018,0,.212-.832.23-.9.2-.76-.39.654,0,0a6.593,6.593,0,0,0,.336-.6c.372-.672-.548.548,0-.018.16-.16.3-.336.478-.5.6-.566,0,0-.018-.018a6.89,6.89,0,0,1,.584-.372c.742-.4-.018-.018-.018-.036a3.368,3.368,0,0,1,.672-.212l.23-.054c.39-.07.3-.07-.248.018a4.633,4.633,0,0,1,.726-.036H164.509c4.034,0,8.069-.054,12.1,0a3.2,3.2,0,0,1,.742.036c.018.088-.849-.23-.124.018.176.054.372.106.566.16.76.2-.654-.39,0,0a6.566,6.566,0,0,0,.6.336c.672.372-.548-.548.018,0,.16.16.336.3.5.478.566.6,0,0,.018-.018a6.885,6.885,0,0,1,.372.584c.4.742.018-.018.036-.018a5.045,5.045,0,0,1,.212.672c.018.07.036.16.054.23.07.39.07.3-.018-.248a4.978,4.978,0,0,0-.036.742,3.539,3.539,0,1,0,7.078,0,10.206,10.206,0,0,0-10.05-10.05H56.918c-1.221,0-2.423-.018-3.644,0a10.234,10.234,0,0,0-9.59,7,11.427,11.427,0,0,0-.478,3.786v80.6a10.206,10.206,0,0,0,6.776,9.538,18.761,18.761,0,0,0,6.44.548H69.2a3.6,3.6,0,0,0,3.538-3.538V190.432c0-4.9-.018-9.786,0-14.687v-.46a4.336,4.336,0,0,1,.036-.478c.018-.478-.2.672-.018.23a5.235,5.235,0,0,0,.248-.9c.088-.442-.336.584-.088.212.106-.16.176-.336.266-.5-.018.036.248-.39.248-.39.07.036-.512.566-.142.176l.636-.636c.478-.46-.16.16-.176.142l.39-.248c.124-.07.266-.142.4-.23.636-.372-.708.2,0,0a7.531,7.531,0,0,1,.9-.23c0,.054-.939.054-.23.036.16,0,.318-.018.478-.018h.036c.69-.018,1.381,0,2.071,0H183.056a3.6,3.6,0,0,0,3.538-3.538v-31.7a3.53,3.53,0,1,0-7.06,0Z" transform="translate(-43.196 -127.161)" fill="#1cc54e"/>
        <path id="Path_21" data-name="Path 21" d="M46.823,257.605H177.6c1.769,0,3.556.036,5.325,0h.23a3.539,3.539,0,0,0,0-7.078H52.378c-1.769,0-3.556-.036-5.325,0h-.23a3.539,3.539,0,1,0,0,7.078Zm155.249,19.357v77.846a4.988,4.988,0,0,1-.036.76c-.07.018.212-.921.018-.248-.07.212-.124.442-.2.672-.2.708.318-.442.054-.106a5.3,5.3,0,0,0-.39.69c-.354.636.424-.372.07-.07-.142.124-.248.282-.39.424a4,4,0,0,1-.512.46c-.088-.088.654-.424.16-.16-.2.106-.4.23-.6.336-.654.39.742-.2,0,0a4.294,4.294,0,0,0-.442.142l-.46.106c.548-.07.618-.07.23-.036-3.132.036-6.264.018-9.406.018H85.273c-3.168,0-6.334.054-9.484,0h-.254c-.088,0-.16-.018-.248-.018-.39-.036-.318-.036.23.036,0,.018-.636-.16-.69-.16l-.442-.142c0-.018.742.372.018-.036-.124-.07-.266-.16-.39-.23-.318-.212-.248-.16.16.16a2.725,2.725,0,0,1-.336-.3,4.243,4.243,0,0,1-.39-.4c-.512-.512.124.054.054.088a6.84,6.84,0,0,1-.566-1c.036-.018.266.8.036-.018-.018-.054-.176-.69-.16-.69.054,0,.054.939.036.23,0-.2-.018-.282-.018-.5V291.277c0-4.761-.07-9.538,0-14.3v-.018c0-.088-.018.142,0-.248,0-.088.018-.16.018-.248.036-.39.036-.318-.036.23.018,0,.23-1.133.318-1.115.018,0-.372.742.036.018a6.528,6.528,0,0,1,.372-.584c.018.018-.548.62.018.018a4.221,4.221,0,0,1,.4-.39c.512-.512-.054.124-.088.054a6.878,6.878,0,0,1,.584-.372c.054-.036.4-.212.4-.212.018.036-.8.266.018.036a5.276,5.276,0,0,0,.566-.142c.266-.052.16-.036-.354.036a4.331,4.331,0,0,1,.478-.036c.282-.018.566,0,.832,0H199.35c.088,0,.16.018.248.018h0c-.07-.018-.16-.018-.23-.036l.46.106a5.024,5.024,0,0,1,.672.212c-.018.106-.69-.354-.212-.07a6.558,6.558,0,0,0,.6.336c.672.372-.53-.548.018,0a6.741,6.741,0,0,1,.8.814c-.07.07-.424-.726-.088-.07.088.16.2.336.282.5.39.654-.2-.742,0,0a4.275,4.275,0,0,0,.142.442c.018.07.036.16.054.23.07.39.07.3-.018-.248-.018,0-.018.672-.018.726a3.539,3.539,0,0,0,7.078,0,10.122,10.122,0,0,0-8.033-9.82,13.388,13.388,0,0,0-2.513-.212H76.248a12.448,12.448,0,0,0-2.814.282,10.162,10.162,0,0,0-7.679,9.768c-.018,1.291,0,2.566,0,3.858v73.1c0,.46-.018.921.018,1.381a10.166,10.166,0,0,0,9.059,9.484,27.95,27.95,0,0,0,3.22.07H197.047a17.892,17.892,0,0,0,4.653-.336,10.188,10.188,0,0,0,7.448-9.714V276.975a3.539,3.539,0,1,0-7.078,0Z" transform="translate(-43.258 -228.694)" fill="#1cc54e"/>
        <path id="Path_22" data-name="Path 22" d="M283.834,507.241H296.1a3.539,3.539,0,1,0,0-7.078H283.834a3.539,3.539,0,1,0,0,7.078Zm20.578-29.417H287.921c-.388.018-.23.124-.036.036s.3.07,0-.018a4.193,4.193,0,0,1-.46-.142c0-.142.69.39.212.052-.548-.388.142.16.16.16a2.948,2.948,0,0,1-.336-.318c-.424-.372.266.124.124.176a1.674,1.674,0,0,1-.176-.3c-.176-.388.2.726.036.088a2.937,2.937,0,0,1-.106-.46c.106-.052.036.8.054.212V461.562c0-.248.018-.512,0-.76,0-.052.036-.23,0-.266.16.2-.16.708-.018.23a1.91,1.91,0,0,1,.142-.46c-.018,0-.336.832-.054.212.248-.512-.07.282-.16.16a2.933,2.933,0,0,1,.318-.336c.388-.424-.16.16-.176.124.018.018.388-.266.4-.23.088.142-.76.212-.2.088a2.528,2.528,0,0,0,.46-.106c-.088.07-.849.036-.212.052h15.4c.336,0,.69.018,1.027,0,.088,0,.3.036.354,0-.248.2-.69-.176-.23-.018a2.692,2.692,0,0,0,.46.142c-.106.018-.726-.372-.212-.052.478.3-.142-.16-.16-.16.018-.018.282.282.336.318.512.46-.176-.142-.124-.176-.018,0,.266.39.23.4s-.248-.885-.088-.2a2.951,2.951,0,0,0,.106.46c-.036-.054-.018-.708-.07-.336v.16c-.018.282,0,.584,0,.867V477.3c0,.088-.036.23,0,.266-.07-.07.23-.849.018-.23a1.137,1.137,0,0,1-.07.23c-.106.3-.106.3,0,.018.124-.052.16-.3-.036,0-.354.584.142-.16.16-.16s-.282.282-.318.336c-.372.424.124-.266.176-.124.018.036-.424.212-.4.23-.036-.052.867-.248.2-.088-.106.036-.23.052-.354.088-.46.124.939-.088.124-.052a3.539,3.539,0,0,0,0,7.078,7.716,7.716,0,0,0,7.59-7.59c.018-.849,0-1.7,0-2.548V463.727c0-.973.018-1.947,0-2.92a7.656,7.656,0,0,0-6.158-7.484,22.762,22.762,0,0,0-3.468-.16h-5.255c-3.026,0-6.052-.018-9.077,0a7.755,7.755,0,0,0-7.326,5.131,11.683,11.683,0,0,0-.424,4v14.633a7.863,7.863,0,0,0,3.662,6.866,9.35,9.35,0,0,0,5.061,1.1h15.4a3.539,3.539,0,1,0,0-7.078Zm5.131,29.417H321.8a3.539,3.539,0,1,0,0-7.078H309.546a3.539,3.539,0,0,0,0,7.078Zm25.709.176h12.263a3.539,3.539,0,1,0,0-7.078H335.253a3.539,3.539,0,1,0,0,7.078Zm25.709,0h12.263a3.539,3.539,0,1,0,0-7.078H360.962a3.539,3.539,0,1,0,0,7.078Z" transform="translate(-238.334 -395.485)" fill="#1cc54e"/>
      </g>
    </g>
    <path id="Path_53690" data-name="Path 53690" d="M83.051,48A35.051,35.051,0,1,0,118.1,83.051,35.046,35.046,0,0,0,83.051,48ZM77.642,95.47a2.324,2.324,0,0,1-1.483.741,2.43,2.43,0,0,1-1.5-.758l-9.437-9.437,3-3,7.954,7.954L97.206,69.789l2.949,3.05Z" transform="translate(353.898 967.688)" fill="#1cc54e"/>
  </g>
</svg>
