<svg xmlns="http://www.w3.org/2000/svg" width="221" height="168" viewBox="0 0 221 168">
  <g id="Group_44415" data-name="Group 44415" transform="translate(-146.05 -274)">
    <g id="Group_47" data-name="Group 47" transform="translate(146.05 301.763)">
      <path id="Path_20" data-name="Path 20" d="M183.573,137.506v32.647l3.643-3.643H77.127a10.58,10.58,0,0,0-9.437,5.264,14.01,14.01,0,0,0-1.329,7.178v49.06L70,224.37h-16.4a5,5,0,0,1-.764-.037l.492.056-.474-.109a4.392,4.392,0,0,1-.455-.146c-.365-.146-.291-.109.206.109,0,.019-.583-.309-.618-.328-.748-.437,0,.019-.037.037a6.279,6.279,0,0,1-.983-.983c.091-.091.437.674.165.165-.109-.206-.237-.412-.346-.618-.4-.692.206.764,0,0a8.743,8.743,0,0,1-.237-.929l.056.492a4.466,4.466,0,0,1-.037-.492c-.019-.309,0-.165,0-.255v-.218c-.037-6.3,0-12.624,0-18.929v-64.9c0-.091.019-.165.019-.255.037-.4.037-.328-.037.237-.019,0,.218-.857.237-.929.206-.783-.4.674,0,0a6.784,6.784,0,0,0,.346-.618c.383-.692-.565.565,0-.018.165-.165.309-.346.492-.511.618-.583,0,0-.019-.019a7.086,7.086,0,0,1,.6-.383c.764-.412-.019-.019-.019-.037a3.47,3.47,0,0,1,.692-.218l.237-.056c.4-.072.309-.072-.255.019a4.776,4.776,0,0,1,.748-.037H168.1c4.154,0,8.308-.056,12.461,0a3.3,3.3,0,0,1,.764.037c.019.091-.874-.237-.128.019.181.056.383.109.583.165.783.206-.674-.4,0,0a6.766,6.766,0,0,0,.618.346c.692.383-.565-.565.019,0,.165.165.346.309.511.492.583.618,0,0,.019-.019a7.081,7.081,0,0,1,.383.6c.412.764.019-.019.037-.019a5.193,5.193,0,0,1,.218.692c.019.072.037.165.056.237.072.4.072.309-.019-.255a5.125,5.125,0,0,0-.037.764,3.644,3.644,0,1,0,7.288,0,10.508,10.508,0,0,0-10.347-10.347H57.324c-1.257,0-2.5-.019-3.752,0a10.537,10.537,0,0,0-9.873,7.211,11.765,11.765,0,0,0-.492,3.9v82.982a10.508,10.508,0,0,0,6.976,9.82,19.317,19.317,0,0,0,6.63.565H69.967A3.709,3.709,0,0,0,73.61,228V192.3c0-5.046-.019-10.075,0-15.121v-.474a4.466,4.466,0,0,1,.037-.492c.019-.492-.206.692-.019.237a5.392,5.392,0,0,0,.255-.929c.091-.455-.346.6-.091.218.109-.165.181-.346.274-.511-.019.037.255-.4.255-.4.072.037-.527.583-.146.181l.655-.655c.492-.474-.165.165-.181.146l.4-.255c.128-.072.274-.146.412-.237.655-.383-.729.206,0,0a7.75,7.75,0,0,1,.929-.237c0,.056-.966.056-.237.037.165,0,.328-.019.492-.019h.037c.711-.019,1.422,0,2.132,0H187.195a3.709,3.709,0,0,0,3.643-3.643V137.506a3.635,3.635,0,1,0-7.269,0Z" transform="translate(-43.196 -127.161)" fill="#e42619"/>
      <path id="Path_21" data-name="Path 21" d="M46.927,257.815H181.57c1.821,0,3.661.037,5.483,0h.237a3.644,3.644,0,0,0,0-7.288H52.647c-1.821,0-3.661-.037-5.483,0h-.237a3.644,3.644,0,0,0,0,7.288Zm159.843,19.93v80.149a5.133,5.133,0,0,1-.037.783c-.072.019.218-.948.019-.255-.072.218-.128.455-.206.692-.206.729.328-.455.056-.109a5.461,5.461,0,0,0-.4.711c-.365.655.437-.383.072-.072-.146.128-.255.291-.4.437a4.125,4.125,0,0,1-.527.474c-.091-.091.674-.437.165-.165-.206.109-.412.237-.618.346-.674.4.764-.206,0,0a4.417,4.417,0,0,0-.455.146l-.474.109c.565-.072.637-.072.237-.037-3.225.037-6.449.019-9.684.019h-108c-3.262,0-6.521.056-9.764,0H76.49c-.091,0-.165-.019-.255-.019-.4-.037-.328-.037.237.037,0,.019-.655-.165-.711-.165l-.455-.146c0-.019.764.383.019-.037-.128-.072-.274-.165-.4-.237-.328-.218-.255-.165.165.165a2.8,2.8,0,0,1-.346-.309,4.369,4.369,0,0,1-.4-.412c-.527-.527.128.056.056.091a7.042,7.042,0,0,1-.583-1.03c.037-.019.274.824.037-.019-.019-.056-.181-.711-.165-.711.056,0,.056.966.037.237,0-.206-.019-.29-.019-.511V292.483c0-4.9-.072-9.82,0-14.719v-.019c0-.091-.019.146,0-.255,0-.091.019-.165.019-.255.037-.4.037-.328-.037.237.019,0,.237-1.166.328-1.148.019,0-.383.764.037.019a6.71,6.71,0,0,1,.383-.6c.019.019-.565.639.019.019a4.34,4.34,0,0,1,.412-.4c.527-.527-.056.128-.091.056a7.086,7.086,0,0,1,.6-.383c.056-.037.412-.218.412-.218.019.037-.824.274.019.037a5.42,5.42,0,0,0,.583-.146c.274-.054.165-.037-.365.037a4.468,4.468,0,0,1,.492-.037c.291-.019.583,0,.857,0h126.6c.091,0,.165.019.255.019h0c-.072-.019-.165-.019-.237-.037l.474.109a5.175,5.175,0,0,1,.692.218c-.019.109-.711-.365-.218-.072a6.766,6.766,0,0,0,.618.346c.692.383-.546-.565.019,0a6.939,6.939,0,0,1,.824.839c-.072.072-.437-.748-.091-.072.091.165.206.346.29.511.4.674-.206-.764,0,0a4.4,4.4,0,0,0,.146.455c.019.072.037.165.056.237.072.4.072.309-.019-.255-.019,0-.019.692-.019.748a3.644,3.644,0,0,0,7.288,0,10.421,10.421,0,0,0-8.27-10.11,13.788,13.788,0,0,0-2.588-.218H77.223a12.817,12.817,0,0,0-2.9.29,10.463,10.463,0,0,0-7.906,10.057c-.019,1.329,0,2.641,0,3.972V357c0,.474-.019.948.019,1.422a10.467,10.467,0,0,0,9.327,9.764,28.791,28.791,0,0,0,3.315.072H201.6a18.423,18.423,0,0,0,4.79-.346,10.489,10.489,0,0,0,7.669-10V277.758a3.644,3.644,0,0,0-7.288,0Z" transform="translate(-43.258 -228.049)" fill="#e42619"/>
      <path id="Path_22" data-name="Path 22" d="M283.94,508.842h12.624a3.644,3.644,0,0,0,0-7.288H283.94a3.644,3.644,0,0,0,0,7.288Zm21.187-30.288h-16.98c-.4.019-.237.128-.037.037s.309.072,0-.019a4.35,4.35,0,0,1-.474-.146c0-.146.711.4.218.054-.565-.4.146.165.165.165a3.039,3.039,0,0,1-.346-.328c-.437-.383.274.128.128.181a1.723,1.723,0,0,1-.181-.309c-.181-.4.206.748.037.091a3.019,3.019,0,0,1-.109-.474c.109-.054.037.824.056.218V461.811c0-.255.018-.527,0-.783,0-.054.037-.237,0-.274.165.206-.165.729-.019.237a1.965,1.965,0,0,1,.146-.474c-.019,0-.346.857-.056.218.255-.528-.072.29-.165.165a3.028,3.028,0,0,1,.328-.346c.4-.437-.165.165-.181.128.019.019.4-.274.412-.237.091.146-.783.218-.206.091a2.6,2.6,0,0,0,.474-.109c-.091.072-.874.037-.218.053h15.851c.346,0,.711.019,1.057,0,.091,0,.309.037.365,0-.255.206-.711-.181-.237-.019a2.773,2.773,0,0,0,.474.146c-.109.019-.748-.383-.218-.054.492.309-.146-.165-.165-.165.019-.018.29.29.346.328.527.474-.181-.146-.128-.181-.019,0,.274.4.237.412s-.256-.911-.091-.206a3.053,3.053,0,0,0,.109.474c-.037-.056-.019-.729-.072-.346v.165c-.018.29,0,.6,0,.892v16.085c0,.091-.037.237,0,.274-.072-.072.237-.874.019-.237a1.171,1.171,0,0,1-.072.237c-.109.309-.109.309,0,.019.128-.054.165-.309-.037,0-.365.6.146-.165.165-.165s-.291.291-.328.346c-.383.437.128-.274.181-.128.018.037-.437.218-.412.237-.037-.054.892-.255.206-.091-.109.037-.237.054-.365.091-.474.128.966-.091.128-.054a3.644,3.644,0,0,0,0,7.288,7.945,7.945,0,0,0,7.815-7.815c.019-.874,0-1.749,0-2.623V464.04c0-1,.019-2,0-3.006a7.883,7.883,0,0,0-6.34-7.706,23.449,23.449,0,0,0-3.571-.165h-5.411c-3.115,0-6.231-.019-9.346,0a7.984,7.984,0,0,0-7.543,5.283,12.029,12.029,0,0,0-.437,4.121v15.066a8.1,8.1,0,0,0,3.77,7.069,9.626,9.626,0,0,0,5.211,1.129h15.851a3.644,3.644,0,0,0,0-7.288Zm5.283,30.288h12.624a3.644,3.644,0,0,0,0-7.288H310.412a3.644,3.644,0,0,0,0,7.288Zm26.47.181h12.626a3.644,3.644,0,1,0,0-7.288H336.88a3.644,3.644,0,0,0,0,7.288Zm26.47,0h12.626a3.644,3.644,0,1,0,0-7.288H363.349a3.644,3.644,0,1,0,0,7.288Z" transform="translate(-237.093 -393.779)" fill="#e42619"/>
    </g>
    <g id="x_x5F_alt" transform="translate(301.117 274)">
      <path id="Path_23" data-name="Path 23" d="M32.966,0A32.966,32.966,0,1,0,65.933,32.966,32.966,32.966,0,0,0,32.966,0ZM49.272,43.445l-5.827,5.827L32.966,38.793,22.487,49.272,16.66,43.445,27.139,32.966,16.66,22.487l5.827-5.827L32.966,27.139,43.445,16.66l5.827,5.827L38.793,32.966Z" fill="#e42619"/>
    </g>
  </g>
</svg>
