<svg width="171" height="141" viewBox="0 0 171 141" fill="none" xmlns="http://www.w3.org/2000/svg">
<path d="M140.377 10.3449V42.9919L144.02 39.3489H33.931C32.0302 39.2973 30.1505 39.7589 28.4898 40.6852C26.8291 41.6116 25.4488 42.9684 24.494 44.6129C23.4245 46.8461 22.9659 49.3228 23.165 51.7909V100.851L26.804 97.2089H10.404C10.1488 97.2161 9.89339 97.2037 9.64004 97.1719L10.132 97.2279L9.65804 97.1189C9.50384 97.0785 9.35194 97.0298 9.20304 96.9729C8.83804 96.8269 8.91204 96.8639 9.40904 97.0819C9.40904 97.1009 8.82604 96.7729 8.79104 96.7539C8.04304 96.3169 8.79104 96.7729 8.75404 96.7909C8.391 96.5006 8.06131 96.1709 7.77104 95.8079C7.86204 95.7169 8.20804 96.4819 7.93604 95.9729C7.82704 95.7669 7.69904 95.5609 7.59004 95.3549C7.19004 94.6629 7.79604 96.1189 7.59004 95.3549C7.49411 95.0498 7.41499 94.7397 7.35304 94.4259L7.40904 94.9179C7.38765 94.7547 7.3753 94.5905 7.37204 94.4259C7.35304 94.1169 7.37204 94.2609 7.37204 94.1709V93.9529C7.33504 87.6529 7.37204 81.3289 7.37204 75.0239V10.1239C7.37204 10.0329 7.39104 9.95889 7.39104 9.86889C7.42804 9.46889 7.42804 9.54089 7.35404 10.1059C7.33504 10.1059 7.57204 9.24889 7.59104 9.17689C7.79704 8.39389 7.19104 9.85089 7.59104 9.17689C7.71705 8.97705 7.83254 8.77077 7.93704 8.55889C8.32004 7.86689 7.37204 9.12389 7.93704 8.54088C8.10204 8.37589 8.24604 8.19488 8.42904 8.02988C9.04704 7.44688 8.42904 8.02989 8.41004 8.01089C8.6035 7.87325 8.80375 7.74542 9.01004 7.62789C9.77404 7.21589 8.99104 7.60889 8.99104 7.59089C9.21345 7.49424 9.44539 7.42117 9.68304 7.37289L9.92004 7.31689C10.32 7.24489 10.229 7.24488 9.66504 7.33588C9.91302 7.30399 10.1631 7.29163 10.413 7.2989H124.904C129.058 7.2989 133.212 7.2429 137.365 7.2989C137.62 7.28157 137.877 7.29398 138.129 7.33588C138.148 7.42688 137.255 7.0989 138.001 7.3549C138.182 7.4109 138.384 7.46389 138.584 7.51989C139.367 7.72589 137.91 7.11989 138.584 7.51989C138.784 7.64593 138.99 7.76142 139.202 7.86588C139.894 8.24888 138.637 7.30088 139.221 7.86588C139.386 8.03088 139.567 8.17489 139.732 8.35789C140.315 8.97589 139.732 8.35789 139.751 8.33889C139.889 8.53234 140.017 8.7326 140.134 8.9389C140.546 9.7029 140.153 8.91988 140.171 8.91988C140.26 9.14518 140.333 9.37642 140.389 9.61188C140.408 9.68388 140.426 9.77688 140.445 9.84888C140.517 10.2489 140.517 10.1579 140.426 9.59389C140.395 9.84728 140.382 10.1027 140.389 10.3579C140.389 11.3243 140.773 12.2512 141.456 12.9346C142.14 13.618 143.067 14.0019 144.033 14.0019C144.999 14.0019 145.926 13.618 146.61 12.9346C147.293 12.2512 147.677 11.3243 147.677 10.3579C147.636 7.62664 146.532 5.0189 144.601 3.08739C142.669 1.15589 140.061 0.0524221 137.33 0.0108859H14.128C12.871 0.0108859 11.628 -0.00811415 10.376 0.0108859C8.18487 0.0369965 6.05636 0.745599 4.28677 2.03806C2.51718 3.33052 1.19458 5.14254 0.503041 7.22188C0.121487 8.48509 -0.0448347 9.8035 0.0110401 11.1219V94.1039C0.0267709 96.2585 0.704456 98.3562 1.95228 100.113C3.2001 101.869 4.95774 103.2 6.98704 103.924C9.14772 104.494 11.391 104.685 13.617 104.489H26.771C27.7331 104.472 28.6509 104.082 29.3307 103.401C30.0104 102.72 30.3989 101.801 30.414 100.839V65.1389C30.414 60.0929 30.395 55.0639 30.414 50.0179V49.5439C30.4173 49.3793 30.4297 49.2151 30.451 49.0519C30.47 48.5599 30.245 49.7439 30.432 49.2889C30.5446 48.9874 30.6299 48.6765 30.687 48.3599C30.778 47.9049 30.341 48.9599 30.596 48.5779C30.705 48.4129 30.777 48.2319 30.87 48.0669C30.851 48.1039 31.125 47.6669 31.125 47.6669C31.197 47.7039 30.598 48.2499 30.979 47.8479L31.634 47.1929C32.126 46.7189 31.469 47.3579 31.453 47.3389L31.853 47.0839C31.981 47.0119 32.127 46.9379 32.265 46.8469C32.92 46.4639 31.536 47.0529 32.265 46.8469C32.5695 46.7488 32.8798 46.6696 33.194 46.6099C33.194 46.6659 32.228 46.6659 32.957 46.6469C33.122 46.6469 33.285 46.6279 33.449 46.6279H33.486C34.197 46.6089 34.908 46.6279 35.618 46.6279H143.999C144.96 46.6109 145.877 46.2217 146.556 45.5421C147.236 44.8626 147.625 43.9458 147.642 42.9849V10.3449C147.65 9.86252 147.562 9.3834 147.383 8.93543C147.204 8.48746 146.937 8.07962 146.599 7.73568C146.261 7.39173 145.857 7.11855 145.413 6.93209C144.968 6.74563 144.49 6.6496 144.008 6.6496C143.525 6.6496 143.048 6.74563 142.603 6.93209C142.158 7.11855 141.754 7.39173 141.416 7.73568C141.078 8.07962 140.811 8.48746 140.632 8.93543C140.453 9.3834 140.365 9.86252 140.373 10.3449H140.377Z" fill="#8E8E8E"/>
<path d="M3.6689 29.7659H138.312C140.133 29.7659 141.973 29.8029 143.795 29.7659H144.032C144.998 29.7659 145.925 29.382 146.609 28.6986C147.292 28.0152 147.676 27.0883 147.676 26.1219C147.676 25.1554 147.292 24.2286 146.609 23.5452C145.925 22.8618 144.998 22.4779 144.032 22.4779H9.3889C7.5679 22.4779 5.7279 22.4409 3.9059 22.4779H3.6689C2.70245 22.4779 1.77559 22.8618 1.09221 23.5452C0.408822 24.2286 0.0249023 25.1554 0.0249023 26.1219C0.0249023 27.0883 0.408822 28.0152 1.09221 28.6986C1.77559 29.382 2.70245 29.7659 3.6689 29.7659ZM163.512 49.6959V129.845C163.52 130.106 163.507 130.368 163.475 130.628C163.403 130.647 163.693 129.68 163.494 130.373C163.422 130.591 163.366 130.828 163.288 131.065C163.082 131.794 163.616 130.61 163.344 130.956C163.193 131.183 163.059 131.42 162.944 131.667C162.579 132.322 163.381 131.284 163.016 131.595C162.87 131.723 162.761 131.886 162.616 132.032C162.454 132.205 162.278 132.363 162.089 132.506C161.998 132.415 162.763 132.069 162.254 132.341C162.048 132.45 161.842 132.578 161.636 132.687C160.962 133.087 162.4 132.481 161.636 132.687C161.482 132.727 161.33 132.776 161.181 132.833L160.707 132.942C161.272 132.87 161.344 132.87 160.944 132.905C157.719 132.942 154.495 132.924 151.26 132.924H43.2599C39.9979 132.924 36.7389 132.98 33.4959 132.924H33.2319C33.1409 132.924 33.0669 132.905 32.9769 132.905C32.5769 132.868 32.6489 132.868 33.2139 132.942C33.2139 132.961 32.5589 132.777 32.5029 132.777L32.0479 132.631C32.0479 132.612 32.8119 133.014 32.0669 132.594C31.9389 132.522 31.7929 132.429 31.6669 132.357C31.3389 132.139 31.4119 132.192 31.8319 132.522C31.7082 132.429 31.5925 132.325 31.4859 132.213C31.3437 132.084 31.2101 131.947 31.0859 131.801C30.5589 131.274 31.2139 131.857 31.1419 131.892C30.919 131.566 30.724 131.221 30.5589 130.862C30.5959 130.843 30.8329 131.686 30.5959 130.843C30.5769 130.787 30.4149 130.132 30.4309 130.132C30.4869 130.132 30.4869 131.098 30.4679 130.369C30.4679 130.163 30.4489 130.079 30.4489 129.858V64.4339C30.4489 59.5339 30.3769 54.6139 30.4489 49.7149V49.6959C30.4489 49.6049 30.4299 49.8419 30.4489 49.4409C30.4489 49.3499 30.4679 49.2759 30.4679 49.1859C30.5049 48.7859 30.5049 48.8579 30.4309 49.4229C30.4499 49.4229 30.6679 48.2569 30.7589 48.2749C30.7779 48.2749 30.3759 49.0389 30.7959 48.2939C30.9129 48.0872 31.0407 47.887 31.1789 47.6939C31.1979 47.7129 30.6139 48.3329 31.1979 47.7129C31.3263 47.5706 31.4639 47.437 31.6099 47.3129C32.1369 46.7859 31.5539 47.4409 31.5189 47.3689C31.7124 47.2312 31.9126 47.1034 32.1189 46.9859C32.1749 46.9489 32.5309 46.7679 32.5309 46.7679C32.5499 46.8049 31.7069 47.0419 32.5499 46.8049C32.7468 46.767 32.9414 46.7183 33.1329 46.6589C33.4069 46.6049 33.2979 46.6219 32.7679 46.6959C32.9311 46.6745 33.0953 46.6621 33.2599 46.6589C33.5509 46.6399 33.8429 46.6589 34.1169 46.6589H160.717C160.808 46.6589 160.882 46.6779 160.972 46.6779C160.9 46.6589 160.807 46.6589 160.735 46.6409L161.209 46.7499C161.444 46.8063 161.676 46.8791 161.901 46.9679C161.882 47.0769 161.19 46.6029 161.683 46.8959C161.883 47.0219 162.089 47.1374 162.301 47.2419C162.993 47.6249 161.755 46.6769 162.32 47.2419C162.618 47.4977 162.893 47.7784 163.144 48.0809C163.072 48.1529 162.707 47.3329 163.053 48.0089C163.144 48.1739 163.259 48.3549 163.343 48.5199C163.743 49.1939 163.137 47.7559 163.343 48.5199C163.383 48.6741 163.432 48.826 163.489 48.9749C163.508 49.0469 163.526 49.1399 163.545 49.2119C163.617 49.6119 163.617 49.5209 163.526 48.9569C163.507 48.9569 163.507 49.6489 163.507 49.7049C163.507 50.6713 163.891 51.5982 164.574 52.2816C165.258 52.9649 166.184 53.3489 167.151 53.3489C168.117 53.3489 169.044 52.9649 169.728 52.2816C170.411 51.5982 170.795 50.6713 170.795 49.7049C170.775 47.3295 169.944 45.0321 168.44 43.1934C166.936 41.3547 164.849 40.0851 162.525 39.5949C161.671 39.441 160.805 39.3679 159.937 39.3769H33.9649C32.9904 39.363 32.0174 39.4603 31.0649 39.6669C28.8202 40.2325 26.8265 41.5265 25.3959 43.3464C23.9653 45.1662 23.1786 47.4091 23.1589 49.7239C23.1399 51.0529 23.1589 52.3649 23.1589 53.6959V128.951C23.1589 129.425 23.1399 129.899 23.1779 130.373C23.3297 132.84 24.3494 135.173 26.0564 136.96C27.7635 138.747 30.0478 139.872 32.5049 140.137C33.6076 140.225 34.7144 140.249 35.8199 140.209H158.342C159.947 140.303 161.557 140.187 163.132 139.863C165.321 139.252 167.253 137.946 168.636 136.143C170.019 134.339 170.779 132.136 170.801 129.863V49.7089C170.801 48.7424 170.417 47.8156 169.734 47.1322C169.05 46.4488 168.123 46.0649 167.157 46.0649C166.19 46.0649 165.264 46.4488 164.58 47.1322C163.897 47.8156 163.513 48.7424 163.513 49.7089L163.512 49.6959Z" fill="#8E8E8E"/>
<path d="M46.8471 115.063H59.4711C60.4375 115.063 61.3644 114.679 62.0478 113.995C62.7311 113.312 63.1151 112.385 63.1151 111.419C63.1151 110.452 62.7311 109.525 62.0478 108.842C61.3644 108.159 60.4375 107.775 59.4711 107.775H46.8471C45.8806 107.775 44.9538 108.159 44.2704 108.842C43.587 109.525 43.2031 110.452 43.2031 111.419C43.2031 112.385 43.587 113.312 44.2704 113.995C44.9538 114.679 45.8806 115.063 46.8471 115.063ZM68.0341 84.7747H51.0541C50.6541 84.7937 50.8171 84.9027 51.0171 84.8117C51.2171 84.7207 51.3261 84.8837 51.0171 84.7927C50.8564 84.7531 50.6982 84.7043 50.5431 84.6467C50.5431 84.5007 51.2541 85.0467 50.7611 84.7007C50.1961 84.3007 50.9071 84.8657 50.9261 84.8657C50.8023 84.7656 50.6866 84.6559 50.5801 84.5377C50.1431 84.1547 50.8541 84.6657 50.7081 84.7187C50.6372 84.6222 50.5765 84.5187 50.5271 84.4097C50.3461 84.0097 50.7331 85.1577 50.5641 84.5007C50.5151 84.3459 50.4786 84.1874 50.4551 84.0267C50.5641 83.9727 50.4921 84.8507 50.5111 84.2447V68.0317C50.5111 67.7767 50.5291 67.5047 50.5111 67.2487C50.5111 67.1947 50.5481 67.0117 50.5111 66.9747C50.6761 67.1807 50.3461 67.7037 50.4921 67.2117C50.5205 67.0482 50.5696 66.8889 50.6381 66.7377C50.6191 66.7377 50.2921 67.5947 50.5821 66.9557C50.8371 66.4277 50.5101 67.2457 50.4171 67.1207C50.5172 66.9969 50.6268 66.8812 50.7451 66.7747C51.1451 66.3377 50.5801 66.9397 50.5641 66.9027C50.5831 66.9217 50.9641 66.6287 50.9761 66.6657C51.0671 66.8117 50.1931 66.8837 50.7701 66.7567C50.9311 66.7353 51.0898 66.6988 51.2441 66.6477C51.1531 66.7197 50.3701 66.6847 51.0261 66.7007H66.8771C67.2231 66.7007 67.5881 66.7197 67.9341 66.7007C68.0251 66.7007 68.2431 66.7377 68.2991 66.7007C68.0441 66.9067 67.5881 66.5197 68.0621 66.6817C68.2154 66.7444 68.374 66.7933 68.5361 66.8277C68.4271 66.8467 67.7881 66.4447 68.3181 66.7737C68.8101 67.0827 68.1721 66.6087 68.1531 66.6087C68.1721 66.5907 68.4431 66.8987 68.4991 66.9367C69.0261 67.4107 68.3181 66.7907 68.3711 66.7557C68.3521 66.7557 68.6451 67.1557 68.6081 67.1677C68.5711 67.1797 68.3521 66.2567 68.5171 66.9617C68.5407 67.1223 68.5772 67.2808 68.6261 67.4357C68.5891 67.3797 68.6071 66.7067 68.5541 67.0897V67.2547C68.5361 67.5447 68.5541 67.8547 68.5541 68.1467V84.2317C68.5541 84.3227 68.5171 84.4687 68.5541 84.5057C68.4821 84.4337 68.7911 83.6317 68.5731 84.2687C68.5575 84.35 68.5334 84.4295 68.5011 84.5057C68.3921 84.8147 68.3921 84.8147 68.5011 84.5247C68.6291 84.4707 68.6661 84.2157 68.4641 84.5247C68.0991 85.1247 68.6101 84.3597 68.6291 84.3597C68.6481 84.3597 68.3381 84.6507 68.3011 84.7057C67.9181 85.1427 68.4291 84.4317 68.4821 84.5777C68.5001 84.6147 68.0451 84.7957 68.0701 84.8147C68.0331 84.7607 68.9621 84.5597 68.2761 84.7237C68.1671 84.7607 68.0391 84.7777 67.9111 84.8147C67.4371 84.9427 68.8771 84.7237 68.0391 84.7607C67.0726 84.7607 66.1458 85.1446 65.4624 85.828C64.779 86.5114 64.3951 87.4382 64.3951 88.4047C64.3951 89.3711 64.779 90.298 65.4624 90.9814C66.1458 91.6648 67.0726 92.0487 68.0391 92.0487C70.1013 92.0152 72.0697 91.1811 73.5281 89.7227C74.9865 88.2643 75.8206 86.2959 75.8541 84.2337C75.8731 83.3597 75.8541 82.4847 75.8541 81.6107V70.2607C75.8541 69.2607 75.8731 68.2607 75.8541 67.2547C75.8484 65.436 75.2141 63.6752 74.0586 62.2708C72.9031 60.8664 71.2976 59.9047 69.5141 59.5487C68.3297 59.4029 67.1359 59.3477 65.9431 59.3837H60.5321C57.4171 59.3837 54.3011 59.3647 51.1861 59.3837C49.5371 59.3775 47.9268 59.8821 46.5761 60.8281C45.2255 61.774 44.2009 63.115 43.6431 64.6667C43.2601 66.0047 43.1123 67.3991 43.2061 68.7877V83.8537C43.1677 85.2577 43.495 86.6476 44.1559 87.8869C44.8169 89.1262 45.7887 90.1724 46.9761 90.9227C48.5721 91.7822 50.3784 92.1735 52.1871 92.0517H68.0381C69.0045 92.0517 69.9314 91.6678 70.6148 90.9844C71.2982 90.301 71.6821 89.3742 71.6821 88.4077C71.6821 87.4413 71.2982 86.5144 70.6148 85.831C69.9314 85.1476 69.0045 84.7637 68.0381 84.7637L68.0341 84.7747ZM73.3171 115.063H85.9411C86.9075 115.063 87.8344 114.679 88.5178 113.995C89.2011 113.312 89.5851 112.385 89.5851 111.419C89.5851 110.452 89.2011 109.525 88.5178 108.842C87.8344 108.159 86.9075 107.775 85.9411 107.775H73.3191C72.3526 107.775 71.4258 108.159 70.7424 108.842C70.059 109.525 69.6751 110.452 69.6751 111.419C69.6751 112.385 70.059 113.312 70.7424 113.995C71.4258 114.679 72.3526 115.063 73.3191 115.063H73.3171ZM99.7871 115.244H112.413C113.38 115.244 114.306 114.86 114.99 114.176C115.673 113.493 116.057 112.566 116.057 111.6C116.057 110.633 115.673 109.706 114.99 109.023C114.306 108.34 113.38 107.956 112.413 107.956H99.7871C98.8206 107.956 97.8938 108.34 97.2104 109.023C96.527 109.706 96.1431 110.633 96.1431 111.6C96.1431 112.566 96.527 113.493 97.2104 114.176C97.8938 114.86 98.8206 115.244 99.7871 115.244ZM126.257 115.244H138.883C139.85 115.244 140.776 114.86 141.46 114.176C142.143 113.493 142.527 112.566 142.527 111.6C142.527 110.633 142.143 109.706 141.46 109.023C140.776 108.34 139.85 107.956 138.883 107.956H126.256C125.29 107.956 124.363 108.34 123.679 109.023C122.996 109.706 122.612 110.633 122.612 111.6C122.612 112.566 122.996 113.493 123.679 114.176C124.363 114.86 125.29 115.244 126.256 115.244H126.257Z" fill="#8E8E8E"/>
</svg>
