<svg width="58" height="73" viewBox="0 0 58 73" fill="none" xmlns="http://www.w3.org/2000/svg">
<path fill-rule="evenodd" clip-rule="evenodd" d="M52.7955 68.4103H12.1436C9.28229 68.4103 6.94019 66.0612 6.94019 63.1903V5.21876C6.94019 2.34785 9.28229 0 12.1436 0H52.7955C55.6579 0 58 2.34785 58 5.21876V63.1903C58 66.0612 55.6579 68.4103 52.7955 68.4103Z" fill="#E0E2EE"/>
<path fill-rule="evenodd" clip-rule="evenodd" d="M49.3254 70.8888H8.67348C5.8122 70.8888 3.47009 68.5397 3.47009 65.6688V7.69727C3.47009 4.82637 5.8122 2.47852 8.67348 2.47852H49.3254C52.1878 2.47852 54.5299 4.82637 54.5299 7.69727V65.6688C54.5299 68.5397 52.1878 70.8888 49.3254 70.8888Z" fill="#E8EBF2"/>
<path fill-rule="evenodd" clip-rule="evenodd" d="M45.9501 72.8457H5.21414C2.34695 72.8457 0 70.5064 0 67.6474V9.9159C0 7.05688 2.34695 4.71875 5.21414 4.71875H45.9501C48.8184 4.71875 51.1654 7.05688 51.1654 9.9159V67.6474C51.1654 70.5064 48.8184 72.8457 45.9501 72.8457Z" fill="#D8DBEA"/>
<path fill-rule="evenodd" clip-rule="evenodd" d="M45.9501 72.8457H5.21414C2.34695 72.8457 0 70.5064 0 67.6474V9.9159C0 7.05688 2.34695 4.71875 5.21414 4.71875H45.9501C48.8184 4.71875 51.1654 7.05688 51.1654 9.9159V67.6474C51.1654 70.5064 48.8184 72.8457 45.9501 72.8457Z" fill="#F1F2F7"/>
<path fill-rule="evenodd" clip-rule="evenodd" d="M40.0784 22.3079H9.98996C9.13069 22.3079 8.42734 21.6387 8.42734 20.8212C8.42734 20.0026 9.13069 19.3335 9.98996 19.3335H40.0784C40.9377 19.3335 41.641 20.0026 41.641 20.8212C41.641 21.6387 40.9377 22.3079 40.0784 22.3079Z" fill="#E0E2EE"/>
<path fill-rule="evenodd" clip-rule="evenodd" d="M40.0784 31.2307H9.98996C9.13069 31.2307 8.42734 30.5616 8.42734 29.7441C8.42734 28.9255 9.13069 28.2563 9.98996 28.2563H40.0784C40.9377 28.2563 41.641 28.9255 41.641 29.7441C41.641 30.5616 40.9377 31.2307 40.0784 31.2307Z" fill="#E0E2EE"/>
<path fill-rule="evenodd" clip-rule="evenodd" d="M40.0784 40.154H9.98996C9.13069 40.154 8.42734 39.4849 8.42734 38.6674C8.42734 37.8499 9.13069 37.1797 9.98996 37.1797H40.0784C40.9377 37.1797 41.641 37.8499 41.641 38.6674C41.641 39.4849 40.9377 40.154 40.0784 40.154Z" fill="#E0E2EE"/>
<path fill-rule="evenodd" clip-rule="evenodd" d="M40.0784 49.0769H9.98996C9.13069 49.0769 8.42734 48.4078 8.42734 47.5903C8.42734 46.7717 9.13069 46.1025 9.98996 46.1025H40.0784C40.9377 46.1025 41.641 46.7717 41.641 47.5903C41.641 48.4078 40.9377 49.0769 40.0784 49.0769Z" fill="#E0E2EE"/>
<path fill-rule="evenodd" clip-rule="evenodd" d="M25.6956 58.0002H9.99665C9.1337 58.0002 8.42734 57.3311 8.42734 56.5136C8.42734 55.695 9.1337 55.0259 9.99665 55.0259H25.6956C26.5586 55.0259 27.2649 55.695 27.2649 56.5136C27.2649 57.3311 26.5586 58.0002 25.6956 58.0002Z" fill="#E0E2EE"/>
</svg>
