<svg width="66" height="66" viewBox="0 0 66 66" fill="none" xmlns="http://www.w3.org/2000/svg">
<rect x="5" y="5" width="56" height="56" rx="28" fill="#FEE4E2"/>
<rect x="5" y="5" width="56" height="56" rx="28" stroke="#FEF3F2" stroke-width="10"/>
<path d="M44.6533 37.3005L35.3802 21.6055C34.7712 20.609 33.7194 20 32.5568 20C31.3942 20 30.3423 20.609 29.7333 21.6055L20.4603 37.3005C19.8513 38.297 19.8513 39.5426 20.4326 40.5392C21.0416 41.591 22.0934 42.2 23.256 42.2H41.8575C43.0201 42.2 44.0997 41.591 44.681 40.5392C45.2622 39.5426 45.2622 38.297 44.6533 37.3005ZM43.5737 39.9025C43.2139 40.5115 42.5772 40.899 41.8852 40.899H23.2283C22.5363 40.899 21.872 40.5392 21.5398 39.9025C21.18 39.2935 21.18 38.5461 21.5398 37.9648L30.8682 22.2421C31.2281 21.6332 31.8647 21.301 32.5568 21.301C33.2488 21.301 33.9131 21.6608 34.2453 22.2421L43.5737 37.9372C43.9059 38.5461 43.9059 39.2935 43.5737 39.9025Z" fill="#F32735"/>
<path d="M32.5568 25.979C32.0863 25.979 31.6987 26.3665 31.6987 26.8371V33.785C31.6987 34.2556 32.0863 34.6431 32.5568 34.6431C33.0274 34.6431 33.4149 34.2556 33.4149 33.785V26.8371C33.4149 26.3665 33.0274 25.979 32.5568 25.979Z" fill="#F32735"/>
<path d="M32.5568 36.2207C32.0863 36.2207 31.6987 36.6082 31.6987 37.0788V37.5217C31.6987 37.9923 32.0863 38.3798 32.5568 38.3798C33.0274 38.3798 33.4149 37.9923 33.4149 37.5217V37.0788C33.4149 36.5529 33.0274 36.2207 32.5568 36.2207Z" fill="#F32735"/>
</svg>
