<svg xmlns="http://www.w3.org/2000/svg" width="300" height="329" viewBox="0 0 439.769 329">
  <g id="Reception-_Doctor_s_appointment" data-name="Reception- Doctor&apos;s appointment" transform="translate(-60.43 -46.337)">
    <g id="Background" transform="translate(105.259 46.337)">
      <g id="Background1">
        <path id="Path_54036" data-name="Path 54036" d="M429.282,53.294C441.353,56.8,495.3,74.037,518.3,120.473c32.3,65.153-22.377,135.1-37.373,154.281-34.378,43.987-126.317,125.983-217.837,92.921-73.3-26.488-103.382-116.142-89.278-179.64C197.052,83.365,333.512,25.449,429.282,53.294Z" transform="translate(-170.436 -46.337)" fill="#eff5f9"/>
      </g>
    </g>
    <g id="Bricks" transform="translate(115.485 122.894)">
      <rect id="Rectangle_8063" data-name="Rectangle 8063" width="26.444" height="11.789" rx="2" transform="translate(297.787 98.798)" fill="none" stroke="#c9effb" stroke-width="2"/>
      <rect id="Rectangle_8064" data-name="Rectangle 8064" width="26.444" height="11.789" rx="2" transform="translate(297.787 122.332)" fill="none" stroke="#c9effb" stroke-width="2"/>
      <rect id="Rectangle_8065" data-name="Rectangle 8065" width="26.444" height="11.789" rx="2" transform="translate(311.011 110.587)" fill="#c9effb"/>
      <rect id="Rectangle_8066" data-name="Rectangle 8066" width="26.444" height="11.789" rx="2" transform="translate(284.567 110.587)" fill="#c9effb"/>
      <rect id="Rectangle_8067" data-name="Rectangle 8067" width="26.444" height="11.789" rx="2" transform="translate(7.726 157.068)" fill="none" stroke="#c9effb" stroke-width="2"/>
      <rect id="Rectangle_8068" data-name="Rectangle 8068" width="26.444" height="11.789" rx="2" transform="translate(20.946 180.606)" fill="none" stroke="#c9effb" stroke-width="2"/>
      <rect id="Rectangle_8069" data-name="Rectangle 8069" width="26.444" height="11.789" rx="2" transform="translate(26.444 168.858)" fill="#c9effb"/>
      <rect id="Rectangle_8070" data-name="Rectangle 8070" width="26.444" height="11.789" rx="2" transform="translate(0 168.858)" fill="#c9effb"/>
      <rect id="Rectangle_8071" data-name="Rectangle 8071" width="26.444" height="11.789" rx="2" transform="translate(161.522 0)" fill="#c9effb"/>
      <rect id="Rectangle_8072" data-name="Rectangle 8072" width="26.444" height="11.789" rx="2" transform="translate(170.455 23.579)" fill="#c9effb"/>
      <rect id="Rectangle_8073" data-name="Rectangle 8073" width="26.444" height="11.789" rx="2" transform="translate(180.235 11.789)" fill="none" stroke="#c9effb" stroke-width="2"/>
      <rect id="Rectangle_8074" data-name="Rectangle 8074" width="26.444" height="11.789" rx="2" transform="translate(153.796 11.789)" fill="none" stroke="#c9effb" stroke-width="2"/>
    </g>
    <g id="Window" transform="translate(97.008 68.869)">
      <rect id="Rectangle_8075" data-name="Rectangle 8075" width="185.435" height="142.597" transform="translate(3.117 2.584)" fill="#c9effb"/>
      <path id="Path_54037" data-name="Path 54037" d="M343.275,204.671c-5.131-1.406-13.913-2.926-29.936-4.609-45.189-4.739-53.841-.888-69.245-8.8-18.746-9.634-28.082-26.733-31.1-32.275-11.353-20.828-9.039-38.139-11.2-50.984H157.84V250.585H343.259Z" transform="translate(-154.723 -105.404)" fill="#a8e5f9"/>
      <path id="Path_54038" data-name="Path 54038" d="M339.9,101.63H152.529a2.339,2.339,0,0,0-2.339,2.339V247.161a2.339,2.339,0,0,0,2.339,2.339H339.9a2.339,2.339,0,0,0,2.339-2.339V103.969A2.339,2.339,0,0,0,339.9,101.63Zm-4.951,140.091a2.164,2.164,0,0,1-2.164,2.164H159.644a2.16,2.16,0,0,1-2.16-2.164V109.405a2.16,2.16,0,0,1,2.16-2.16H332.781a2.16,2.16,0,0,1,2.164,2.16Z" transform="translate(-150.19 -101.63)" fill="#87dbf6"/>
      <rect id="Rectangle_8076" data-name="Rectangle 8076" width="2.038" height="136.798" transform="translate(124.952 5.457)" fill="#87dbf6"/>
      <rect id="Rectangle_8077" data-name="Rectangle 8077" width="2.038" height="136.798" transform="translate(65.056 5.457)" fill="#87dbf6"/>
      <rect id="Rectangle_8078" data-name="Rectangle 8078" width="177.46" height="2.038" transform="translate(7.295 102.865)" fill="#87dbf6"/>
      <rect id="Rectangle_8079" data-name="Rectangle 8079" width="177.46" height="2.038" transform="translate(7.295 42.968)" fill="#87dbf6"/>
    </g>
    <g id="Plant" transform="translate(60.43 256.618)">
      <path id="Path_54039" data-name="Path 54039" d="M174.408,655.273l-.408-.326c.408-3.02,1.691-12.225,3.333-23.762,4.018-28.151,10.237-70.035,11.508-68.813,1.736,1.671,1.773,22.849-.228,47.716-.192,2.445-.408,4.89-.644,7.368q-.359,3.888-.681,7.425c-.921,2.237-1.9,4.527-2.93,6.838C177.517,647.094,174.408,655.273,174.408,655.273Z" transform="translate(-127.719 -562.346)" fill="#7bce34"/>
      <path id="Path_54040" data-name="Path 54040" d="M177.967,696.557s1.773-8.558,6.113-24.822,6.675-31.411,5.444-32.846c-.562-.672-4.8,11.031-9.132,23.664-1.944,13.3-3.668,25.7-4.662,32.748Z" transform="translate(-128.744 -607.681)" fill="#3c8f2d"/>
      <path id="Path_54041" data-name="Path 54041" d="M182.716,705.231l.5-.139c.778-2.95,3.15-11.948,6.064-23.228,7.127-27.532,17.523-68.585,15.865-67.945-2.249.876-10.432,20.408-18.155,44.13q-1.133,3.472-2.241,7.046-1.153,3.729-2.229,7.119c0,2.417,0,4.89.073,7.437C183,696.49,182.716,705.231,182.716,705.231Z" transform="translate(-132.767 -592.898)" fill="#3c8f2d"/>
      <path id="Path_54042" data-name="Path 54042" d="M77.3,667.508a18.505,18.505,0,0,1,2.091-1c.713-.3,1.443-.562,2.18-.815a29.855,29.855,0,0,1,4.548-1.055,28.845,28.845,0,0,1,9.573.094,24.1,24.1,0,0,1,4.788,1.386,23.457,23.457,0,0,1,2.282,1.1l.554.31c.183.11.359.228.538.342.355.236.725.452,1.068.705a25.953,25.953,0,0,1,3.822,3.374l.844.954c.065.081.143.159.2.236l.179.232.367.465,1.459,1.85c.9,1.292,1.842,2.547,2.624,3.908l.6,1.007c.1.171.2.338.3.505l.277.522,1.108,2.1c.664,1.414,1.345,2.816,1.915,4.263l.452,1.076.408,1.088.408,1.088.208.546.183.55c.249.738.53,1.459.815,2.188s.538,1.463.815,2.193.493,1.483.7,2.233.355,1.516.493,2.282c.061.408.11.774.151,1.161s.09.778.122,1.165c.045.782.086,1.561.073,2.351a22.976,22.976,0,0,1-.143,2.36,15.9,15.9,0,0,1-.428,2.364l-4.841.175c-.53-1.369-.917-2.726-1.3-4.075l-.281-1.011c-.086-.338-.179-.676-.257-1.015q-.273-1.011-.5-2.038c-.171-.672-.31-1.349-.428-2.037s-.253-1.369-.363-2.038-.265-1.369-.408-2.038-.363-1.345-.571-2.013l-.163-.5-.179-.489-.367-.978c-.122-.326-.244-.652-.375-.974l-.408-.954c-.538-1.284-1.194-2.506-1.818-3.745l-1.031-1.8-.257-.448c-.09-.147-.187-.289-.277-.436l-.6-.9-.55-.876c-.179-.293-.408-.562-.587-.848l-1.178-1.7-1.276-1.63-.322-.408-.159-.2c-.053-.069-.106-.118-.159-.179l-.632-.693c-.208-.232-.448-.432-.668-.652l-.334-.322c-.114-.106-.236-.2-.355-.3-.245-.2-.469-.408-.717-.6l-.746-.554c-.245-.192-.513-.35-.766-.53-.13-.086-.257-.175-.408-.257l-.408-.24c-.526-.338-1.084-.628-1.63-.941a32.911,32.911,0,0,0-3.525-1.577,38.265,38.265,0,0,0-7.906-2c-1.394-.216-2.816-.375-4.267-.485s-2.926-.187-4.413-.216Z" transform="translate(-70.425 -622.741)" fill="#3c8f2d"/>
      <path id="Path_54043" data-name="Path 54043" d="M166.757,744.165l-.02-.55c0-.346-.024-.7-.045-1.043l-.094-1.039c-.106-1.385-.338-2.755-.542-4.124l-.408-2.038-.1-.505c-.037-.171-.086-.334-.126-.5l-.257-1.015-.245-1c-.073-.338-.2-.66-.289-.99l-.579-1.98-.7-1.94-.175-.485-.09-.24c-.029-.082-.065-.147-.094-.22l-.379-.856c-.122-.289-.289-.554-.408-.815l-.216-.407c-.073-.139-.163-.265-.24-.407-.167-.261-.318-.534-.489-.791l-.534-.766c-.171-.257-.375-.493-.558-.742-.094-.122-.187-.249-.285-.371l-.11-.126c.53,1.031,1.064,2.066,1.512,3.142l.408.954c.13.322.253.648.375.974l.367.978.179.489.163.5c.208.668.408,1.333.571,2.013s.281,1.369.408,2.038.22,1.377.363,2.038.257,1.361.428,2.037.318,1.353.5,2.038c.077.338.171.677.257,1.015l.281,1.011C165.938,741.684,166.3,742.918,166.757,744.165Z" transform="translate(-119.293 -656.471)" fill="#7bce34"/>
      <path id="Path_54044" data-name="Path 54044" d="M97.624,672.436c.55.314,1.108.6,1.63.941l.408.24c.13.082.257.171.408.257.253.179.522.338.766.53l.746.554.029.024a28.7,28.7,0,0,1,8.509,3.02,22.414,22.414,0,0,1,5.917,4.6l.24.265-.628-1.19-.277-.522c-.094-.167-.2-.334-.3-.505l-.6-1.007c-.782-1.361-1.728-2.616-2.624-3.908l-1.459-1.85-.367-.465-.179-.232c-.061-.077-.139-.155-.2-.236l-.844-.954a25.958,25.958,0,0,0-3.822-3.374c-.342-.257-.713-.469-1.068-.7-.179-.114-.355-.232-.538-.342l-.554-.31a23.46,23.46,0,0,0-2.282-1.1,24.089,24.089,0,0,0-4.788-1.386,28.845,28.845,0,0,0-9.573-.094,29.848,29.848,0,0,0-4.548,1.055,19.53,19.53,0,0,0-2.18.815,18.517,18.517,0,0,0-2.091,1l.171.607c1.487.029,2.967.094,4.413.216s2.853.269,4.267.485a38.262,38.262,0,0,1,7.918,2.013,32.91,32.91,0,0,1,3.5,1.557Z" transform="translate(-70.455 -622.77)" fill="#7bce34"/>
      <path id="Path_54045" data-name="Path 54045" d="M234.208,657.005a18.337,18.337,0,0,0-2.217-.693c-.75-.192-1.508-.342-2.27-.469a30.47,30.47,0,0,0-4.654-.387,28.748,28.748,0,0,0-9.458,1.479A23.731,23.731,0,0,0,211.073,659a22.592,22.592,0,0,0-2.1,1.422l-.505.408c-.163.13-.322.273-.485.408-.318.285-.648.55-.954.852a26.123,26.123,0,0,0-3.293,3.9l-.7,1.064c-.053.09-.118.179-.167.265l-.147.257-.293.509-1.178,2.038c-.7,1.4-1.455,2.783-2.038,4.242l-.452,1.084c-.073.183-.151.363-.22.546l-.2.55-.787,2.213c-.452,1.491-.921,2.979-1.275,4.483L196,684.366l-.253,1.137-.253,1.137-.122.566-.106.575c-.139.762-.314,1.52-.473,2.278s-.318,1.524-.485,2.286-.273,1.536-.375,2.311-.13,1.553-.159,2.331v1.174c0,.391.024.778.049,1.17.069.778.139,1.557.265,2.335a22.9,22.9,0,0,0,.485,2.315,15.751,15.751,0,0,0,.766,2.278l4.813-.53c.326-1.43.513-2.828.693-4.222l.13-1.043c.037-.346.081-.693.11-1.039.081-.693.151-1.381.2-2.074s.11-1.381.13-2.078.049-1.386.057-2.087.065-1.394.11-2.091.167-1.385.277-2.074l.086-.513.11-.513.22-1.019c.073-.342.151-.681.232-1.019l.273-1.007c.346-1.349.815-2.653,1.259-3.965l.758-1.932.192-.485c.065-.159.143-.314.212-.469l.408-.945.408-.945c.13-.318.31-.611.456-.925l.921-1.846,1.027-1.785.261-.444.126-.224c.045-.073.09-.13.134-.2l.526-.774c.167-.261.379-.493.562-.746l.285-.367c.1-.118.208-.232.31-.35.212-.228.408-.469.619-.693l.66-.656c.212-.224.456-.407.681-.636.118-.1.228-.212.346-.314s.245-.192.363-.293c.473-.408.982-.778,1.483-1.165a31.681,31.681,0,0,1,3.26-2.074,38.429,38.429,0,0,1,7.612-3.134c1.349-.408,2.734-.778,4.148-1.1s2.853-.607,4.34-.852Z" transform="translate(-139.432 -617.512)" fill="#7bce34"/>
      <path id="Path_54046" data-name="Path 54046" d="M212.694,682.645l.053-.045a27.27,27.27,0,0,0-3.981,1.536,24.109,24.109,0,0,0-4.25,2.6A23.033,23.033,0,0,0,202.6,688.4l-.452.444c-.147.155-.285.314-.432.473-.277.318-.575.624-.839.958a25.983,25.983,0,0,0-2.8,4.267l-.562,1.141c-.045.094-.1.2-.134.285l-.114.273-.228.542-.045.1c-.236.815-.46,1.63-.652,2.445l-.293,1.133L195.8,701.6l-.253,1.137-.122.566-.106.575c-.139.762-.314,1.52-.473,2.278s-.318,1.524-.485,2.286-.273,1.536-.375,2.311-.13,1.553-.159,2.331v1.174c0,.391.024.778.049,1.17.069.778.139,1.557.265,2.335a22.9,22.9,0,0,0,.485,2.315,15.753,15.753,0,0,0,.766,2.278l3.774-.407v-.09c-.053-.7-.1-1.394-.143-2.091s0-1.394.02-2.091l.024-.522.045-.522.094-1.039c.033-.346.065-.693.106-1.039l.151-1.031c.179-1.381.489-2.734.766-4.075l.518-2.009.13-.5c.045-.167.1-.33.151-.5l.31-.986.3-.99c.094-.33.232-.648.342-.974l.689-1.944.151-.355.033-.122c.346-1.349.815-2.653,1.259-3.965l.758-1.932.192-.485c.065-.159.143-.314.212-.469l.408-.945.408-.946c.13-.318.31-.611.456-.925l.921-1.846,1.027-1.785.261-.444.126-.224c.045-.073.09-.13.134-.2l.526-.774c.167-.261.379-.493.562-.746l.285-.367c.1-.118.208-.232.31-.35.212-.228.408-.469.619-.693l.66-.656C212.237,683.056,212.47,682.861,212.694,682.645Z" transform="translate(-139.468 -633.595)" fill="#3c8f2d"/>
      <path id="Path_54047" data-name="Path 54047" d="M154.319,656.721l-.522-.061c-1.223-2.783-5.025-11.288-9.711-21.941-11.455-26.028-28.294-64.88-26.566-64.514,2.355.5,13.57,18.469,25.005,40.641q1.667,3.26,3.342,6.6,1.744,3.492,3.342,6.663c.408,2.384.778,4.849,1.121,7.335C152.628,648.139,154.319,656.721,154.319,656.721Z" transform="translate(-94.183 -567.001)" fill="#7bce34"/>
      <path id="Path_54048" data-name="Path 54048" d="M177.777,690.713s-3.02-8.207-7.9-24.312-10.921-30.2-12.723-30.767c-.848-.269,1.74,11.912,4.723,24.923,5.375,12.319,10.445,23.77,13.338,30.274Z" transform="translate(-117.64 -605.765)" fill="#3c8f2d"/>
      <path id="Path_54049" data-name="Path 54049" d="M190.433,698.7l-.522-.061-8.061-.909s-.815-9.674-1.65-21.032c-.6-8.061-1.223-16.977-1.561-23.872-.359-7.07-.436-12.018.069-11.765,1.439.717,4.36,11.557,6.614,25.025.408,2.384.778,4.849,1.121,7.335C188.742,690.113,190.433,698.7,190.433,698.7Z" transform="translate(-130.296 -608.975)" fill="#7bce34"/>
      <path id="Path_54050" data-name="Path 54050" d="M252.332,726.365c-2.412-2-4.78-3.831-6.96-5.705-1.084-.941-2.135-1.875-3.081-2.853a24.293,24.293,0,0,1-2.506-2.9,16.709,16.709,0,0,1-.925-1.418q-.09-.175-.2-.342c-.065-.114-.114-.228-.171-.338l-.53-1.043a19.211,19.211,0,0,0-1.451-2.249,19.964,19.964,0,0,0-1.781-2.038,21.444,21.444,0,0,0-4.3-3.26,20.481,20.481,0,0,0-5.033-2.095,15.259,15.259,0,0,0-2.787-.469,12.63,12.63,0,0,0-2.95.114,11.244,11.244,0,0,0-2.971.884,13.512,13.512,0,0,0-2.547,1.565,16.379,16.379,0,0,0-2.074,1.866,20.09,20.09,0,0,0-1.707,2.062,25.974,25.974,0,0,0-2.559,4.45,37.084,37.084,0,0,0-2.628,9.438c-.122.791-.245,1.581-.346,2.372l-.159,1.182c-.045.407-.082.791-.139,1.186-.187,1.573-.367,3.142-.676,4.711l7.547.261a20.049,20.049,0,0,1-.065-4.279,33.189,33.189,0,0,1,.619-4.185c.293-1.373.652-2.718,1.064-4.022s.86-2.588,1.369-3.81c.253-.611.509-1.223.815-1.793s.579-1.149.9-1.687a16.908,16.908,0,0,1,1.011-1.532,10.471,10.471,0,0,1,1.129-1.3,6.735,6.735,0,0,1,1.223-.95,4.441,4.441,0,0,1,1.292-.53,6.115,6.115,0,0,1,1.54-.143,7.593,7.593,0,0,1,1.654.248,8.713,8.713,0,0,1,3.142,1.63,12.368,12.368,0,0,1,2.445,2.669c.346.5.66,1.019.962,1.544s.571,1.072.844,1.63l.192.408.045.1c0,.037.029.061.061.126l.171.334c.118.22.228.448.35.66s.257.407.408.623a14.754,14.754,0,0,0,1.76,2.192,20.743,20.743,0,0,0,4.075,3.236c.717.436,1.434.844,2.172,1.222a23.706,23.706,0,0,0,2.225.982,30.362,30.362,0,0,0,4.58,1.394c.778.167,1.561.31,2.347.408a19.469,19.469,0,0,0,2.4.175Z" transform="translate(-145.404 -644.861)" fill="#7bce34"/>
      <path id="Path_54051" data-name="Path 54051" d="M204.665,728.031l.159-1.182c.1-.791.224-1.581.346-2.372a37.084,37.084,0,0,1,2.628-9.438,25.977,25.977,0,0,1,2.559-4.45,20.1,20.1,0,0,1,1.707-2.062,16.377,16.377,0,0,1,2.074-1.854,13.645,13.645,0,0,1,1.361-.913c9.206.517,12.254,4.955,13.261,7.743a11.573,11.573,0,0,0-1.7-1.671,8.712,8.712,0,0,0-3.142-1.63,7.6,7.6,0,0,0-1.655-.249,6.106,6.106,0,0,0-1.54.143,4.437,4.437,0,0,0-1.292.53,6.735,6.735,0,0,0-1.223.949,10.469,10.469,0,0,0-1.129,1.3,16.9,16.9,0,0,0-1.011,1.532c-.322.538-.619,1.1-.9,1.687s-.55,1.182-.815,1.793c-.509,1.223-.95,2.5-1.369,3.81a41.6,41.6,0,0,0-1.064,4.022,33.2,33.2,0,0,0-.587,4.181,20.05,20.05,0,0,0,.065,4.279l-7.547-.261c.31-1.569.489-3.138.676-4.711C204.584,728.821,204.62,728.426,204.665,728.031Z" transform="translate(-145.404 -647.317)" fill="#3c8f2d"/>
      <path id="Path_54052" data-name="Path 54052" d="M60.43,726.365c2.412-2,4.784-3.831,6.96-5.705,1.084-.941,2.135-1.875,3.081-2.853a23.58,23.58,0,0,0,2.506-2.9,15.808,15.808,0,0,0,.925-1.418q.094-.175.2-.342c.069-.114.114-.228.171-.338l.53-1.043a19.745,19.745,0,0,1,1.455-2.25,20.019,20.019,0,0,1,1.785-2.037,21.307,21.307,0,0,1,4.3-3.26,20.538,20.538,0,0,1,5.033-2.095,15.238,15.238,0,0,1,2.791-.469,12.649,12.649,0,0,1,2.95.114,11.214,11.214,0,0,1,2.967.884,13.552,13.552,0,0,1,2.547,1.536,16.665,16.665,0,0,1,2.074,1.866,20.6,20.6,0,0,1,1.7,2.062,25.978,25.978,0,0,1,2.559,4.45A37.082,37.082,0,0,1,107.592,722c.122.791.245,1.581.346,2.372l.159,1.182c.049.408.081.791.139,1.186.192,1.573.367,3.142.676,4.711l-7.547.261a20.05,20.05,0,0,0,.049-4.271,33.2,33.2,0,0,0-.619-4.185,41.279,41.279,0,0,0-1.064-4.022c-.408-1.308-.86-2.588-1.369-3.81-.253-.611-.509-1.223-.815-1.793s-.579-1.149-.9-1.687a16.081,16.081,0,0,0-1.011-1.532,10.441,10.441,0,0,0-1.125-1.3,7.044,7.044,0,0,0-1.2-.95,4.486,4.486,0,0,0-1.3-.53,6.112,6.112,0,0,0-1.54-.143,7.635,7.635,0,0,0-1.655.249,8.713,8.713,0,0,0-3.142,1.63,12.37,12.37,0,0,0-2.445,2.669c-.346.5-.66,1.019-.962,1.544s-.571,1.072-.839,1.63l-.192.408-.049.1-.061.126-.171.334c-.114.22-.228.448-.35.66s-.253.407-.383.624a14.775,14.775,0,0,1-1.765,2.192,20.746,20.746,0,0,1-4.075,3.236c-.713.436-1.434.844-2.172,1.223a23.738,23.738,0,0,1-2.225.982,30.367,30.367,0,0,1-4.58,1.394c-.778.167-1.557.31-2.347.407a19.358,19.358,0,0,1-2.4.135Z" transform="translate(-60.43 -644.861)" fill="#7bce34"/>
      <path id="Path_54053" data-name="Path 54053" d="M142.372,728.013l-.159-1.182c-.1-.791-.224-1.581-.346-2.372a37.082,37.082,0,0,0-2.628-9.438,25.972,25.972,0,0,0-2.559-4.45,20.581,20.581,0,0,0-1.7-2.062,16.659,16.659,0,0,0-2.074-1.866,14.214,14.214,0,0,0-1.365-.913c-9.206.518-12.254,4.955-13.256,7.743a11.356,11.356,0,0,1,1.7-1.671,8.713,8.713,0,0,1,3.142-1.63,7.639,7.639,0,0,1,1.654-.249,6.12,6.12,0,0,1,1.54.143,4.482,4.482,0,0,1,1.3.53,7.039,7.039,0,0,1,1.2.949,10.448,10.448,0,0,1,1.125,1.3,16.089,16.089,0,0,1,1.011,1.532c.322.538.619,1.1.9,1.687s.55,1.182.815,1.793c.509,1.223.95,2.5,1.369,3.81a41.29,41.29,0,0,1,1.064,4.022,33.2,33.2,0,0,1,.591,4.193,20.05,20.05,0,0,1-.065,4.279l7.547-.261c-.31-1.569-.485-3.138-.676-4.711C142.454,728.8,142.421,728.408,142.372,728.013Z" transform="translate(-94.705 -647.299)" fill="#3c8f2d"/>
      <path id="Path_54054" data-name="Path 54054" d="M176.417,805.967H153.6a5.95,5.95,0,0,1-5.88-5.065l-4.022-26.794c-.281-1.858,13.379-.408,21.741-.473,7.877-.077,20.755-.815,20.616.118L182.306,800.9A5.95,5.95,0,0,1,176.417,805.967Z" transform="translate(-109.76 -687.249)" fill="#abbcca"/>
      <path id="Path_54055" data-name="Path 54055" d="M164.835,773.654c-8.362.082-21.46-1.394-21.191.465l4.022,26.794a5.95,5.95,0,0,0,5.9,5.065H162.6a14.4,14.4,0,0,1-3.733-9.548,14.236,14.236,0,0,1,3.5-9.181c2.038-2.241,5.347-3.386,11.961-5.681,3.179-1.1,5.705-1.659,8.46-3.986a19.514,19.514,0,0,0,3.122-3.15l.094-.668C186.168,772.835,172.72,773.577,164.835,773.654Z" transform="translate(-109.731 -687.259)" fill="#91a6b5"/>
    </g>
    <g id="Calendar" transform="translate(371.502 94.196)">
      <path id="Path_54056" data-name="Path 54056" d="M871.07,228.417H825.021a1.255,1.255,0,0,1-1.251-1.251V177.331a1.251,1.251,0,0,1,1.251-1.251H879.6a1.247,1.247,0,0,1,1.251,1.251v41.676Z" transform="translate(-823.77 -171.068)" fill="#a2aee6"/>
      <rect id="Rectangle_8080" data-name="Rectangle 8080" width="8.101" height="8.101" transform="translate(29.814 16.512)" fill="#c0d6f2"/>
      <rect id="Rectangle_8081" data-name="Rectangle 8081" width="8.101" height="8.101" transform="translate(41.049 16.512)" fill="#c0d6f2"/>
      <rect id="Rectangle_8082" data-name="Rectangle 8082" width="8.101" height="8.101" transform="translate(29.814 26.513)" fill="#c0d6f2"/>
      <rect id="Rectangle_8083" data-name="Rectangle 8083" width="8.101" height="8.101" transform="translate(41.049 26.513)" fill="#c0d6f2"/>
      <rect id="Rectangle_8084" data-name="Rectangle 8084" width="8.101" height="8.101" transform="translate(29.814 36.517)" fill="#c0d6f2"/>
      <rect id="Rectangle_8085" data-name="Rectangle 8085" width="8.101" height="8.101" transform="translate(41.049 36.517)" fill="#c0d6f2"/>
      <rect id="Rectangle_8086" data-name="Rectangle 8086" width="8.101" height="8.101" transform="translate(7.242 36.517)" fill="#c0d6f2"/>
      <rect id="Rectangle_8087" data-name="Rectangle 8087" width="8.101" height="8.101" transform="translate(7.242 46.51)" fill="#c0d6f2"/>
      <rect id="Rectangle_8088" data-name="Rectangle 8088" width="8.101" height="8.101" transform="translate(7.242 26.513)" fill="#c0d6f2"/>
      <rect id="Rectangle_8089" data-name="Rectangle 8089" width="8.101" height="8.101" transform="translate(18.248 36.517)" fill="#c0d6f2"/>
      <rect id="Rectangle_8090" data-name="Rectangle 8090" width="8.101" height="8.101" transform="translate(18.248 26.513)" fill="#c0d6f2"/>
      <path id="Path_54057" data-name="Path 54057" d="M948.369,290.841a1.251,1.251,0,0,0,1.251-1.251v-8.15l-9.78,9.41Z" transform="translate(-892.54 -233.492)" fill="#a2aee6"/>
      <path id="Path_54058" data-name="Path 54058" d="M846.447,174.657a.937.937,0,0,1-.937-.941v-9a.937.937,0,1,1,1.875,0v9a.937.937,0,0,1-.937.941Z" transform="translate(-836.651 -163.78)" fill="#ea8826"/>
      <path id="Path_54059" data-name="Path 54059" d="M831.107,174.657a.937.937,0,0,1-.937-.941v-9a.937.937,0,0,1,1.875,0v9a.937.937,0,0,1-.937.941Z" transform="translate(-827.562 -163.78)" fill="#ea8826"/>
      <path id="Path_54060" data-name="Path 54060" d="M861.787,174.657a.937.937,0,0,1-.937-.941v-9a.937.937,0,0,1,1.875,0v9a.937.937,0,0,1-.937.941Z" transform="translate(-845.739 -163.78)" fill="#ea8826"/>
      <path id="Path_54061" data-name="Path 54061" d="M877.127,174.657a.937.937,0,0,1-.937-.941v-9a.937.937,0,0,1,1.875,0v9a.937.937,0,0,1-.937.941Z" transform="translate(-854.828 -163.78)" fill="#ea8826"/>
      <path id="Path_54062" data-name="Path 54062" d="M892.467,174.657a.937.937,0,0,1-.937-.941v-9a.937.937,0,1,1,1.875,0v9a.937.937,0,0,1-.937.941Z" transform="translate(-863.917 -163.78)" fill="#ea8826"/>
      <path id="Path_54063" data-name="Path 54063" d="M907.8,174.741a.937.937,0,0,1-.941-.941v-9a.941.941,0,0,1,1.879,0v9a.937.937,0,0,1-.937.941Z" transform="translate(-873 -163.864)" fill="#ea8826"/>
      <path id="Path_54064" data-name="Path 54064" d="M923.137,174.741a.937.937,0,0,1-.937-.941v-9a.941.941,0,0,1,1.879,0v9a.937.937,0,0,1-.941.941Z" transform="translate(-882.088 -163.864)" fill="#ea8826"/>
      <path id="Path_54065" data-name="Path 54065" d="M938.477,174.657a.937.937,0,0,1-.937-.941v-9a.937.937,0,0,1,1.875,0v9a.937.937,0,0,1-.937.941Z" transform="translate(-891.177 -163.78)" fill="#ea8826"/>
      <path id="Path_54066" data-name="Path 54066" d="M953.817,174.657a.937.937,0,0,1-.937-.941v-9a.937.937,0,1,1,1.875,0v9a.937.937,0,0,1-.937.941Z" transform="translate(-900.266 -163.78)" fill="#ea8826"/>
      <path id="Path_54067" data-name="Path 54067" d="M949.516,281.31l-9.776.09.086,9.409Z" transform="translate(-892.481 -233.415)" fill="#c0d6f2"/>
      <path id="Path_54068" data-name="Path 54068" d="M872.71,253.6a35.769,35.769,0,0,1,2.563,3.831c.407.66.77,1.328,1.129,2.009s.7,1.369,1,2.086a23.121,23.121,0,0,1-1.353-1.879c-.428-.656-.815-1.292-1.223-1.952a36.412,36.412,0,0,1-2.115-4.1Z" transform="translate(-852.766 -216.997)" fill="#af2f2f"/>
      <path id="Path_54069" data-name="Path 54069" d="M877.423,253.6a35.093,35.093,0,0,1-2.127,4.075c-.407.66-.815,1.316-1.222,1.952a20.976,20.976,0,0,1-1.353,1.879c.3-.717.644-1.406,1-2.086s.738-1.349,1.125-2.009A36.4,36.4,0,0,1,877.423,253.6Z" transform="translate(-852.772 -216.997)" fill="#af2f2f"/>
    </g>
    <g id="Chair" transform="translate(389.974 214.985)">
      <path id="Path_54070" data-name="Path 54070" d="M942.76,649.46l24.565,77.3-53.7-77.3-22.4,77.3Z" transform="translate(-882.211 -572.327)" fill="none" stroke="#59a4ce" stroke-linecap="round" stroke-linejoin="round" stroke-width="4"/>
      <rect id="Rectangle_8091" data-name="Rectangle 8091" width="6.818" height="3.232" rx="1.616" transform="translate(88.521 156.582) rotate(180)" fill="#80cbe8"/>
      <rect id="Rectangle_8092" data-name="Rectangle 8092" width="6.818" height="3.232" rx="1.616" transform="translate(12.43 156.582) rotate(180)" fill="#80cbe8"/>
      <rect id="Rectangle_8093" data-name="Rectangle 8093" width="50.609" height="3.888" rx="1.944" transform="translate(71.564 100.076) rotate(180)" fill="#80cbe8"/>
      <path id="Path_54071" data-name="Path 54071" d="M968.569,466.323c-.037-.681-.257-3.541-1.976-5.025-3.79-3.26-13.778,1.19-19.948,6.113-1.561,1.247-15.115,12.4-14.67,28.021.135,4.764,1.919,22.042,1.023,22.739-.245.188-.5.367-.5.367-2.038,1.434-4.7,2.645-17.23,3.411-14.866.909-21.9-.143-33.738,2.51-4.984,1.121-9.89,2.372-11.667,6.284-.738,1.63-1.263,4.405,0,6.459,2.73,4.422,11.113,1.137,26.382,1.434,2.991.061.966.155,29.255,2.514a33.364,33.364,0,0,0,14.177-1.255c1.284-.432,6.52-2.176,10.229-5.925,5.171-5.208,3.643-10.449,5.921-24.585,2.661-16.517,4.438-27.581,9.511-34.276C966.047,474.172,968.789,470.725,968.569,466.323Z" transform="translate(-869.098 -460.184)" fill="#c9effb"/>
      <path id="Path_54072" data-name="Path 54072" d="M907.2,545.889c6.793.514,12.523,1.5,20.82-.359,4.169-.933,11.125-2.49,16.708-7.539,2.987-2.71,5.4-6.268,10.229-25.673,4.682-18.77,5.041-25.93,11.846-32.3a35.652,35.652,0,0,1,3.6-3.065,13.994,13.994,0,0,1-3.26,8.089c-5.073,6.7-6.85,17.759-9.511,34.276-2.278,14.137-.75,19.377-5.921,24.585-3.725,3.749-8.965,5.493-10.229,5.925a33.358,33.358,0,0,1-14.182,1.255c-28.286-2.359-26.26-2.445-29.251-2.514-14.483-.281-22.76,2.645-25.906-.815C879.373,545.5,895.2,544.98,907.2,545.889Z" transform="translate(-870.9 -470.117)" fill="#80cbe8"/>
    </g>
    <g id="Doctor_Botoom_Sitting" data-name="Doctor/Botoom/Sitting" transform="translate(367.141 263.812)">
      <path id="Path_54073" data-name="Path 54073" d="M931.976,580.05s8.7,17.641-7.527,26.109-26.346,11.525-26.806,15.054,2.588,8.232,1.178,22.344-3.765,30.816-3.765,30.816-12.466,1.879-14.349,0,.469-25.51-1.63-46.746c0,0-4-10.188,1.292-16.529l5.705-6.276s-41.461,8.15-35.56,1.667c6.8-7.453,27.1-14.772,44.069-23.281l.884-3.158Z" transform="translate(-834.914 -580.03)" fill="#25beef"/>
      <path id="Path_54074" data-name="Path 54074" d="M972.234,580.05s8.7,17.641-7.527,26.109-26.346,11.525-26.806,15.054,2.588,8.232,1.178,22.344-3.765,30.816-3.765,30.816-12.466,1.879-14.349,0,.469-25.51-1.63-46.746c0,0-4-10.188,1.292-16.529l4.483-4.234,10.64-26.814Z" transform="translate(-875.172 -580.03)" fill="#25beef"/>
      <path id="Path_54075" data-name="Path 54075" d="M887.521,824.9c3.761-3.37,12.7-7.6,14.74-13.407,1.565,1.565,10.428.53,13.383.134h0a35.141,35.141,0,0,1,1.5,7.861c.069,3.3,0,4.234,0,4.234l-5.485.709v-1.414s-3.215.159-4.939,1.883-6.667,4-12,3.765S883.755,828.267,887.521,824.9Z" transform="translate(-856.455 -717.155)" fill="#d18165"/>
      <path id="Path_54076" data-name="Path 54076" d="M894.724,828.663c5.33.232,10.269-2.038,11.993-3.765s4.939-1.883,4.939-1.883v1.414l5.481-.709s.077-.937,0-4.234a26.679,26.679,0,0,0-.782-5.159c-.375-1.557-.734-2.7-.734-2.7-2.95.408-11.818,1.422-13.379-.138a10.766,10.766,0,0,1-1.846,3.154c-.253.322-.526.636-.815.941l-.734.733c-.322.306-.648.615-.994.913-3.476,3.028-7.963,5.522-10.363,7.665C883.749,828.267,889.393,828.426,894.724,828.663Z" transform="translate(-856.446 -717.155)" fill="#ffc065"/>
      <path id="Path_54077" data-name="Path 54077" d="M894.744,839.185c-4.283-.192-8.758-.33-8.411-2.123,13.383,3.211,18.68-2.038,19.654-3.6s3.338-1.724,3.338-1.724c4.336-.049,6.655-1.426,7.8-2.486.02.261.037.514.041.758.082,3.3,0,4.234,0,4.234l-5.485.709v-1.414s-3.215.159-4.939,1.883S900.074,839.418,894.744,839.185Z" transform="translate(-856.465 -727.677)" fill="#7c2f13"/>
      <path id="Path_54078" data-name="Path 54078" d="M919,820.165c.253.171.522.334.791.485a7.841,7.841,0,0,0,1.129.55,5.057,5.057,0,0,0,1.341.375,3.526,3.526,0,0,0-.75-1.223,4.484,4.484,0,0,0-1.068-.844,4.888,4.888,0,0,0-.628-.289C919.542,819.538,919.269,819.86,919,820.165Z" transform="translate(-875.832 -721.734)" fill="#7c2f13"/>
      <path id="Path_54079" data-name="Path 54079" d="M914.73,824.223c.183.114.367.224.558.326a9.363,9.363,0,0,0,1.129.55,4.895,4.895,0,0,0,1.333.359,3.476,3.476,0,0,0-.75-1.222,4.686,4.686,0,0,0-1.068-.844c-.065-.037-.134-.069-.208-.1C915.4,823.616,915.076,823.926,914.73,824.223Z" transform="translate(-873.302 -724.146)" fill="#7c2f13"/>
      <path id="Path_54080" data-name="Path 54080" d="M941.854,674.344l-.958.13h0l-1.479.183h-.029l-1.459.163-.469.045h0c-.672.065-1.337.118-2,.171l-.852.053h-.155l-.815.041h0l-.88.024H931.9a15.749,15.749,0,0,1-2.963-.244h0a33.512,33.512,0,0,0,9.43-13.644c4.124-11.614,1.752-27.927,1.178-31.872-.624-4.291-1.32-7.074.139-10.416,1.911-4.369,5.705-5.893,12.8-9.344,6.459-3.138,12.225-5.946,16.492-9.279a8.114,8.114,0,0,0,2.51-9.715c-1.007-2.192-3.007-3.994-6.81-4.275A39.284,39.284,0,0,1,946.382,580h32.45v.069l.033.073v.024l.057.13c.008.015.014.03.02.045l.053.122.024.061c.025.049.045.1.069.159v.045l.094.232.024.069c.029.061.053.126.078.2l.037.094.086.224c0,.029.02.053.028.081.041.1.077.212.118.322l.025.069.1.281a.359.359,0,0,0,.041.122c.016.041.057.183.09.277l.037.11.122.408a.235.235,0,0,1,0,.057q.053.179.11.367l.037.143c.032.106.061.212.09.322l.037.143c.041.155.081.31.118.473h0c.041.159.077.322.114.489a.256.256,0,0,0,.032.151c.029.122.053.244.077.371a.293.293,0,0,0,.033.163l.086.456v.077c.032.179.061.359.085.542l.025.159c.02.135.037.273.057.408v.183a4.253,4.253,0,0,0,.053.452v.126l.049.583v.155l.024.448v2.262a2.978,2.978,0,0,1-.037.465v.183a5.091,5.091,0,0,1-.073.632v.094c-.025.183-.053.363-.086.55l-.037.2c-.029.155-.057.31-.09.465a1.151,1.151,0,0,1-.041.2c-.049.212-.1.407-.155.636a15.892,15.892,0,0,1-1.377,3.5c-.106.2-.22.407-.338.6l-.126.216c-.147.232-.3.461-.46.693l-.118.171a15.727,15.727,0,0,1-1.084,1.353l-.151.167c-.2.22-.407.44-.628.656a20.249,20.249,0,0,1-4.242,3.15l-.742.407q-2.282,1.186-4.4,2.241c-.941.469-1.854.921-2.747,1.353l-1.271.689-2.51,1.2-2.347,1.1c-4.523,2.123-8.032,3.741-10.339,5.171a14.9,14.9,0,0,0-1.5,1.039,7.646,7.646,0,0,0-.742.668,2.991,2.991,0,0,0-.913,1.63,7.146,7.146,0,0,0-.029,1.394c.082,1.092.354,2.351.648,3.957.041.208.082.408.118.644s.069.408.1.591.069.408.1.615a52.673,52.673,0,0,1,.571,10.249c0,.379-.029.77-.049,1.165-.061,1.165-.155,2.4-.285,3.729-.053.53-.11,1.06-.163,1.593v.151c-.11,1.068-.228,2.148-.346,3.232v.13l-.183,1.63c-.073.676-.151,1.353-.228,2.038h0c-.077.656-.155,1.3-.228,1.952v.1c-.1.872-.208,1.74-.31,2.592-.049.407-.1.815-.151,1.223v.114c-.045.379-.09.758-.139,1.129v.147q-.147,1.178-.289,2.3v.138l-.285,2.233c-.383,2.967-.721,5.5-.962,7.282a2.858,2.858,0,0,1-.045.326c-.012.106-.029.208-.045.31-.135.986-.228,1.671-.273,1.993A.545.545,0,0,0,941.854,674.344Z" transform="translate(-881.721 -580)" fill="#1a87c4"/>
      <path id="Path_54081" data-name="Path 54081" d="M891.466,632.81c-16.231,8.468-26.346,11.529-26.814,15.054s2.588,8.236,1.178,22.348-3.765,30.812-3.765,30.812-12.466,1.883-14.349,0,.469-25.506-1.63-46.742c0,0-4-10.188,1.292-16.533l5.677-4.54" transform="translate(-831.773 -611.289)" fill="#25beef"/>
      <path id="Path_54082" data-name="Path 54082" d="M814.292,813.6c3.761-3.374,12.7-7.608,14.74-13.407,1.565,1.561,10.428.53,13.383.134h0a35.63,35.63,0,0,1,1.512,7.861c.077,3.293,0,4.234,0,4.234l-5.485.7v-1.41s-3.215.155-4.939,1.883-6.667,4-12,3.761S810.527,816.967,814.292,813.6Z" transform="translate(-813.069 -710.459)" fill="#d18165"/>
      <path id="Path_54083" data-name="Path 54083" d="M821.512,817.359c5.33.236,10.269-2.038,11.993-3.761s4.939-1.883,4.939-1.883v1.41l5.489-.705s.077-.941,0-4.234a26.671,26.671,0,0,0-.782-5.159c-.375-1.557-.733-2.7-.733-2.7-2.95.407-11.818,1.426-13.379-.135a10.821,10.821,0,0,1-1.846,3.154c-.253.322-.526.636-.815.941l-.734.733c-.322.306-.648.611-.994.913-3.456,3.024-7.938,5.522-10.355,7.665C810.533,816.967,816.177,817.126,821.512,817.359Z" transform="translate(-813.072 -710.459)" fill="#ffc065"/>
      <path id="Path_54084" data-name="Path 54084" d="M821.514,827.881c-4.283-.187-8.758-.326-8.411-2.119,13.383,3.211,18.68-2.037,19.654-3.6s3.338-1.728,3.338-1.728c4.336-.045,6.655-1.426,7.8-2.482,0,.257.037.514.041.758.082,3.293,0,4.234,0,4.234l-5.485.7v-1.41s-3.215.155-4.939,1.883S826.844,828.118,821.514,827.881Z" transform="translate(-813.078 -720.982)" fill="#7c2f13"/>
      <path id="Path_54085" data-name="Path 54085" d="M845.74,808.848c.253.171.522.334.791.485a7.422,7.422,0,0,0,1.129.546,4.889,4.889,0,0,0,1.333.363,3.584,3.584,0,0,0-.75-1.223,4.564,4.564,0,0,0-1.068-.839,3.974,3.974,0,0,0-.628-.289A12.209,12.209,0,0,1,845.74,808.848Z" transform="translate(-832.426 -715.022)" fill="#7c2f13"/>
      <path id="Path_54086" data-name="Path 54086" d="M841.5,812.953c.183.11.367.224.558.326a9.345,9.345,0,0,0,1.129.55,5.058,5.058,0,0,0,1.332.359,3.4,3.4,0,0,0-.75-1.2,4.484,4.484,0,0,0-1.068-.844c-.065-.037-.134-.069-.208-.1C842.172,812.346,841.846,812.651,841.5,812.953Z" transform="translate(-829.914 -717.48)" fill="#7c2f13"/>
      <path id="Path_54087" data-name="Path 54087" d="M898.157,632.81q-2.278,1.194-4.4,2.245c-.941.469-1.854.917-2.747,1.353l-1.312.636c-.864.407-1.7.815-2.51,1.194s-1.593.754-2.347,1.1c-4.523,2.123-8.032,3.745-10.339,5.175a14.893,14.893,0,0,0-1.5,1.039,7.18,7.18,0,0,0-.742.668,2.991,2.991,0,0,0-.913,1.63,6.89,6.89,0,0,0-.028,1.4c.081,1.092.354,2.351.648,3.953.041.212.081.408.118.648s.069.387.1.587.069.408.1.62a52.65,52.65,0,0,1,.571,10.245c0,.383-.029.77-.049,1.17-.061,1.165-.155,2.4-.285,3.729-.053.526-.11,1.06-.163,1.593v.147c-.11,1.072-.228,2.152-.346,3.232v.134l-.183,1.63c-.073.676-.151,1.349-.228,2.038h0c-.077.652-.155,1.3-.228,1.948v.1c-.1.872-.208,1.736-.31,2.588-.049.407-.1.815-.151,1.223v.118c-.045.379-.09.754-.139,1.129v.147c-.1.782-.2,1.553-.289,2.3v.139c-.1.766-.192,1.512-.285,2.229-.383,2.971-.721,5.5-.962,7.286a2.853,2.853,0,0,1-.045.326c-.012.106-.029.208-.045.31-.135.982-.228,1.671-.273,1.989-.02.134-.029.2-.029.2-.318.049-.64.094-.958.134h0c-.493.069-.986.13-1.479.187h-.029l-1.459.159-.469.049h0c-.672.065-1.337.118-2,.167l-.852.057h-.155l-.815.037h0l-.88.029h-.856a15.75,15.75,0,0,1-2.963-.245h0a33.511,33.511,0,0,0,9.43-13.643c4.124-11.618,1.752-27.927,1.178-31.872-.623-4.291-1.32-7.078.139-10.42,1.194-2.726,3.122-4.348,6.113-6.019a40.751,40.751,0,0,1,12.3-4.377Z" transform="translate(-838.464 -611.289)" fill="#1a87c4"/>
      <path id="Path_54088" data-name="Path 54088" d="M928.83,810.708l1.707-1.748.1.1Z" transform="translate(-881.656 -715.656)" fill="#fff"/>
      <path id="Path_54089" data-name="Path 54089" d="M940.42,794.158a33.287,33.287,0,0,0,2.494-4.018l.514.281a33.031,33.031,0,0,1-2.7,3.965Z" transform="translate(-888.523 -704.505)" fill="#fff"/>
      <path id="Path_54090" data-name="Path 54090" d="M951,772.858a34.977,34.977,0,0,0,1.178-4.548l.933.192a34.507,34.507,0,0,1-1.361,4.621Z" transform="translate(-894.791 -691.571)" fill="#fff"/>
      <path id="Path_54091" data-name="Path 54091" d="M955.53,749.995q.228-2.351.273-4.715l1.223.041c-.073,1.6-.2,3.2-.407,4.792Z" transform="translate(-897.475 -677.926)" fill="#fff"/>
      <path id="Path_54092" data-name="Path 54092" d="M955.711,726.655l-.281-4.723,1.406-.1.2,4.8Z" transform="translate(-897.416 -664.032)" fill="#fff"/>
      <path id="Path_54093" data-name="Path 54093" d="M953.246,703.373c-.228-1.565-.407-3.13-.676-4.691l1.52-.232c.236,1.577.407,3.166.619,4.747Z" transform="translate(-895.721 -650.18)" fill="#fff"/>
      <path id="Path_54094" data-name="Path 54094" d="M951.143,679.92a12.131,12.131,0,0,1,.2-2.535,11.194,11.194,0,0,1,.77-2.445l1.459.652a9.587,9.587,0,0,0-.672,2.086,10.411,10.411,0,0,0-.175,2.2Z" transform="translate(-894.873 -636.251)" fill="#fff"/>
      <path id="Path_54095" data-name="Path 54095" d="M961,661.119a22.776,22.776,0,0,1,4.149-2.669l.758,1.434a22.672,22.672,0,0,0-3.847,2.457Z" transform="translate(-900.716 -626.481)" fill="#fff"/>
      <path id="Path_54096" data-name="Path 54096" d="M981.76,650.23l4.283-2.07.7,1.414-4.287,2.095Z" transform="translate(-913.016 -620.384)" fill="#fff"/>
      <path id="Path_54097" data-name="Path 54097" d="M1002.71,639.733l4.169-2.233.742,1.28-4.2,2.323Z" transform="translate(-925.429 -614.068)" fill="#fff"/>
      <path id="Path_54098" data-name="Path 54098" d="M1022.71,626.925l.945-.689a9.37,9.37,0,0,0,.88-.7,7.789,7.789,0,0,0,1.4-1.675l1.137.685a9.045,9.045,0,0,1-1.6,2,9.945,9.945,0,0,1-.974.795l-.97.734Z" transform="translate(-937.278 -605.986)" fill="#fff"/>
      <path id="Path_54099" data-name="Path 54099" d="M1031.343,606.668a7.1,7.1,0,0,0-1.443-4.075l.864-.693a8.223,8.223,0,0,1,1.793,4.723Z" transform="translate(-941.538 -592.975)" fill="#fff"/>
      <path id="Path_54100" data-name="Path 54100" d="M1014.126,595.683a10.178,10.178,0,0,0-1.113-.232c-.379-.057-.758-.086-1.161-.143l-2.392-.318.122-.791,2.343.232c.383.045.815.057,1.223.11a10.531,10.531,0,0,1,1.223.216Z" transform="translate(-929.428 -588.413)" fill="#fff"/>
      <path id="Path_54101" data-name="Path 54101" d="M991.483,590.318A40.968,40.968,0,0,1,987,588.61l.151-.35a40.905,40.905,0,0,0,4.483,1.492Z" transform="translate(-916.121 -584.894)" fill="#fff"/>
      <path id="Path_54102" data-name="Path 54102" d="M973.668,581.707a22.961,22.961,0,0,1-2.038-1.357c.681.444,1.39.848,2.107,1.223Z" transform="translate(-907.014 -580.207)" fill="#fff"/>
    </g>
    <g id="Doctor_Head_Female" data-name="Doctor/Head/Female" transform="translate(427.085 175.558)">
      <path id="Path_54103" data-name="Path 54103" d="M1007.125,368.616s8.965-3.9,12.425,3.81,8.77,32.467,17.817,33.844c0,0-4.988,3.073-9.927-2.971s-8.24-11.667-9.157-14.442a28.277,28.277,0,0,0,5.546,14.153c5.2,6.928,12.694,19.891,3.1,22.161,0,0,4.984-2.152.025-8.33s-29.606-27.055-19.609-43.066C1009.3,370.633,1007.125,368.616,1007.125,368.616Z" transform="translate(-986.719 -365.92)"/>
      <path id="Path_54104" data-name="Path 54104" d="M973.762,366.993c5.053.982,8.15,7.417,7.441,14.887h.037c1.382.269,2.2,2.038,1.822,3.981s-1.8,3.26-3.183,3.007a1.928,1.928,0,0,1-.526-.192c-2.808,5.656-8.252,8.806-12.735,7.93-5.563-1.084-7.535-7.951-5.893-16.358S968.2,365.9,973.762,366.993Z" transform="translate(-960.166 -365.466)" fill="#ea9d7d"/>
      <path id="Path_54105" data-name="Path 54105" d="M974.465,432.74c.257-.9-.815-3.1-1.467-4.369,4.426.676,9.691-2.445,12.433-7.971a1.933,1.933,0,0,0,.526.192s.428,11.5,2.922,11.639c2.914,2.5,12.433,10.958,10.493,14.887-1.63,3.289-10.416,1.593-23.522-.941a6.606,6.606,0,0,1-3.419-1.63c-2.747-2.62-2-7.335-1.63-8.4C971.323,434.761,974.1,434.039,974.465,432.74Z" transform="translate(-966.244 -397.185)" fill="#ea9d7d"/>
      <path id="Path_54106" data-name="Path 54106" d="M990.07,425.168c-.289-2.445-.371-4.576-.371-4.576a1.931,1.931,0,0,1-.526-.192c-2.743,5.542-8.008,8.647-12.433,7.987a19.124,19.124,0,0,1,1.276,2.877l.338.077C982.343,432.1,987.095,429.691,990.07,425.168Z" transform="translate(-969.986 -397.185)" fill="#d18165"/>
      <path id="Path_54107" data-name="Path 54107" d="M1010.88,407.92a1.931,1.931,0,0,1,.734.958,2.212,2.212,0,0,1,.094,1.251,2.269,2.269,0,0,1-.579,1.113,2.325,2.325,0,0,1-.465.387,2.656,2.656,0,0,1-.554.24,5.018,5.018,0,0,1,.265-.514c.073-.171.171-.318.228-.477a4.294,4.294,0,0,0,.306-.913,5.6,5.6,0,0,0-.029-2.046Z" transform="translate(-989.757 -389.791)" fill="#d18165"/>
      <path id="Path_54108" data-name="Path 54108" d="M991.643,438.173c-1.52-.09-2.27-4.393-2.628-7.743l-2.229,1-1.911,3.994s3.668.815,1.911,4.564c-1.561,3.378-5.705,11.048-11.7,10.392.868.481,2.066,1.1,3.525,1.736,9.6,4.177,22.69,5.493,24.6,1.724S995.592,441.523,991.643,438.173Z" transform="translate(-969.008 -403.128)" fill="#d18165"/>
      <path id="Path_54109" data-name="Path 54109" d="M965.83,372.406s2.555-3.973,3.3-3.085,2.164,3.285,7.021,3.028a22.059,22.059,0,0,1,3.928,9.214c.668,4.976,4.3-1.712,4.3-1.712s4.646-11.573-.371-14.328a14.648,14.648,0,0,0-15.078,0C963.9,368.339,965.83,372.406,965.83,372.406Z" transform="translate(-963.306 -363.434)"/>
      <path id="Path_54110" data-name="Path 54110" d="M966.886,422.062c4.075.187,4.536-2.942,4.536-2.942a10.779,10.779,0,0,1-5.061.346S967.558,420.827,966.886,422.062Z" transform="translate(-963.836 -396.427)" fill="#be3e5f"/>
      <path id="Path_54111" data-name="Path 54111" d="M967.469,398.3a7.845,7.845,0,0,1,.049,2.547,4.157,4.157,0,0,1-.375,1.3c-.11.232-.224.375-.326.558s-.212.342-.3.513a2.22,2.22,0,0,0-.326.966.456.456,0,0,0,.118.33,1.148,1.148,0,0,0,.387.261,9.778,9.778,0,0,0,2.376.408,5.086,5.086,0,0,1-2.584.183,1.593,1.593,0,0,1-.685-.359,1.223,1.223,0,0,1-.383-.782,2.6,2.6,0,0,1,.379-1.4c.106-.2.22-.383.338-.562s.257-.363.334-.5a4.83,4.83,0,0,0,.432-1.064C967.127,399.942,967.286,399.127,967.469,398.3Z" transform="translate(-963.278 -384.091)" fill="#d18165"/>
      <path id="Path_54112" data-name="Path 54112" d="M976.7,393.84a18.5,18.5,0,0,1,2.4.558,8.04,8.04,0,0,1,1.1.448c.367.167.7.408,1.084.619a2.787,2.787,0,0,0-.815-1.027,3.62,3.62,0,0,0-1.178-.632,4.2,4.2,0,0,0-1.3-.208,3.317,3.317,0,0,0-1.292.24Z" transform="translate(-969.962 -381.306)"/>
      <path id="Path_54113" data-name="Path 54113" d="M964.538,391.865a3.713,3.713,0,0,0-1.125-.265c-.073.2-.139.407-.2.611h0a7.74,7.74,0,0,1,1.186.122c.407.057.782.187,1.223.289A2.853,2.853,0,0,0,964.538,391.865Z" transform="translate(-961.97 -380.122)"/>
      <path id="Path_54114" data-name="Path 54114" d="M963.4,401.418a.624.624,0,0,0,.729-.493l.35-1.793a.623.623,0,1,0-1.222-.24l-.346,1.793a.624.624,0,0,0,.489.734Z" transform="translate(-961.786 -384.129)"/>
      <path id="Path_54115" data-name="Path 54115" d="M978.812,402.431a.628.628,0,0,0,.734-.493l.351-1.793a.624.624,0,0,0-1.223-.24l-.35,1.793A.628.628,0,0,0,978.812,402.431Z" transform="translate(-970.917 -384.759)"/>
      <path id="Path_54116" data-name="Path 54116" d="M990.584,381a25.5,25.5,0,0,1,1.805,3.089,30.563,30.563,0,0,1,1.4,3.26,25.933,25.933,0,0,1,1.528,6.887,20.18,20.18,0,0,1-3.549,13.3,20.516,20.516,0,0,0,2.641-6.386,20.217,20.217,0,0,0,.3-6.858,25.293,25.293,0,0,0-1.773-6.614,30.283,30.283,0,0,0-1.491-3.085,25.069,25.069,0,0,0-1.834-2.853Z" transform="translate(-977.611 -373.841)"/>
    </g>
    <g id="Doctor_Torso" data-name="Doctor/Torso" transform="translate(366.426 210.668)">
      <path id="Path_54117" data-name="Path 54117" d="M836.53,535l-4.21.167s-.917-.725-2.156-1.671c-2.347-1.793-5.86-4.369-6.581-4.328-1.1.069-3.024.872,1.752,4.548l-.037.033a5.179,5.179,0,0,1-2.783.721c-2.172.13-9.487.632-10.677,1.076-.644.24-2.091,2.18,8.757,1.8a.583.583,0,0,1,.611.652c-.037.2-.183.379-.575.408-.982.057-9.463.2-9.316,1.732.106,1.117,2.327.844,9.76.518,0,0,1.182.3.24.909-.326.208-8.729.994-9.141,1.663s-1.491,1.752,11.113.375c0,0,.224.126-.876.766-1.166.685-4.613,1.6-5.493,2.881s1.679.269,8.15-1.907l9.079-1.153c6,.844,28.465,2.763,34.044-3.032,5.228-5.428,8.04-24.838,8.04-24.838l-12.784-.432L858.1,530.377a2.812,2.812,0,0,1-2.233,1.805l-20.119,2.906" transform="translate(-811.315 -488.872)" fill="#ea9d7d"/>
      <path id="Path_54118" data-name="Path 54118" d="M872.353,516.54l-4.552.66s1.186,15.6-3.02,18.746-10.074,5.966-35.209,6.064c-8.126.033-13.293.815-16.574,1.826-.338.628-.029,1.4,11.243.163,0,0,.224.126-.876.766-1.165.685-4.613,1.6-5.493,2.881s1.679.269,8.15-1.907l9.079-1.153c6,.844,28.465,2.763,34.044-3.032,5.228-5.428,8.04-24.838,8.04-24.838Z" transform="translate(-812.268 -489.257)" fill="#d18165"/>
      <path id="Path_54119" data-name="Path 54119" d="M845.4,559.7s1.76,6.59,7.779,4.772" transform="translate(-831.51 -514.829)" fill="none" stroke="#2f170b" stroke-width="2"/>
      <path id="Path_54120" data-name="Path 54120" d="M.008,0h41.11V18.97a2.987,2.987,0,0,1-2.987,2.987H2.987A2.987,2.987,0,0,1,0,18.97V0Z" transform="translate(133.773 111.125) rotate(180)" fill="#ff5061"/>
      <path id="Path_54121" data-name="Path 54121" d="M1133.07,716V711.67L1128.6,716Z" transform="translate(-999.302 -604.869)" fill="#fc7e85"/>
      <path id="Path_54122" data-name="Path 54122" d="M1038.69,716V711.67l4.47,4.328Z" transform="translate(-946.032 -604.869)" fill="#fc7e85"/>
      <path id="Path_54123" data-name="Path 54123" d="M1079.8,671.437v1.088h-41.11v-1.088a2.987,2.987,0,0,1,2.987-2.987h35.132a2.991,2.991,0,0,1,2.991,2.987Z" transform="translate(-946.032 -579.261)" fill="#fc7e85"/>
      <line id="Line_1091" data-name="Line 1091" y2="9.039" transform="translate(24.987 46.131)" fill="none" stroke="#2f170b" stroke-linecap="round" stroke-linejoin="round" stroke-width="6"/>
      <path id="Path_54124" data-name="Path 54124" d="M935.393,480.562l4.2-13.175a15.893,15.893,0,0,1,5.3-7.743,11.323,11.323,0,0,1,2.066-1.312.408.408,0,0,1,.583.383l-.774,23.962h-9.817a1.63,1.63,0,0,1-1.553-2.115Z" transform="translate(-884.786 -454.746)" fill="#25beef"/>
      <path id="Path_54125" data-name="Path 54125" d="M954.584,471.219l-.611,18.884h-6.427a31.651,31.651,0,0,1,2.853-15.286c1.83-3.843,2.881-4.034,3.325-4.01a1.341,1.341,0,0,1,.86.412Z" transform="translate(-892.013 -462.16)" fill="#1a87c4"/>
      <path id="Path_54126" data-name="Path 54126" d="M1063.159,557.663a9.731,9.731,0,0,1-.3-2.245c-.094-6.345-.7-30.564-4.352-41.567-1.161-3.517-11.842-21.411-11.842-21.411l-15.257,3.228,13.448,22.324a11.075,11.075,0,0,1,1.3,3.195l8.2,34.9a3.3,3.3,0,0,1-.607,2.779c-1.724,2.213-5.139,6.708-5.082,7.535.073,1.1.888,3.02,4.536-1.785,0,0,.624.644.77,2.82s.456,10.53,1.145,10.669,2.237,2.131,1.724-9.234c0,0,1.007-.558,1.072.408s.632,10.306,1.793,9.3.815-2.335.456-9.78c0,0,.762-.6.909-.245s.982,9.173,1.72,9.124,1.76,1.483.306-11.109c0,0,.407-.212.868,1.051s2.245,6.81,2.82,5.3.257-1.679-1.96-8.122l-1.63-7.16Z" transform="translate(-941.718 -474.978)" fill="#ea9d7d"/>
      <path id="Path_54127" data-name="Path 54127" d="M1031.41,499.242l3.6-.762c2.69,3.411,6.031,5.893,10.388,12.266a78,78,0,0,1,6.561,12.156c2.673,5.852,2.131,8.835,3.912,23.277,1.072,8.668,1.605,13,2.168,15.27,0,0,4.03,16.244,2.062,20.266a1.133,1.133,0,0,1-.407.456c-1.162,1-1.724-8.326-1.793-9.3s-1.072-.408-1.072-.408c.513,11.366-1.039,9.373-1.724,9.234s-1-8.46-1.145-10.656h0c-.147-2.176-.77-2.82-.77-2.82-3.647,4.8-4.462,2.889-4.536,1.785-.057-.815,3.358-5.322,5.082-7.535a3.3,3.3,0,0,0,.607-2.779l-8.2-34.916a11.075,11.075,0,0,0-1.3-3.195Z" transform="translate(-941.718 -478.557)" fill="#d18165"/>
      <path id="Path_54128" data-name="Path 54128" d="M960.263,505.305h31.582a3.435,3.435,0,0,0,3.4-3.949l-7.453-49.191-6.8-2.575c-2.743,5.815-12.075,6.956-14.768,1.117l-5.832,2.217a4.442,4.442,0,0,0-3.382,4.548l.061,1.834q.729,22.161,1.451,44.321C958.523,503.745,958.555,504.34,960.263,505.305Z" transform="translate(-897.634 -449.59)" fill="#25beef"/>
      <path id="Path_54129" data-name="Path 54129" d="M1048.641,480.544a1.63,1.63,0,0,0,.387-2.311l-11.492-15.958s-4.075-5.249-9.511-6.365L1024.92,472.1l10.983,16.708a.55.55,0,0,0,.778.151Z" transform="translate(-937.873 -453.334)" fill="#25beef"/>
      <path id="Path_54130" data-name="Path 54130" d="M1036.009,510.091,1025.1,493.518l.024-.159a1.765,1.765,0,0,1,2.812-1.141,77.153,77.153,0,0,1,7.176,6.81c2.547,2.608,5.273,5.408,6.545,7.8l-4.89,3.419A.55.55,0,0,1,1036.009,510.091Z" transform="translate(-937.98 -474.633)" fill="#1a87c4"/>
      <path id="Path_54131" data-name="Path 54131" d="M960.72,529.642c2.4-.848,8.623-.876,18.057-3.847,8.855-2.791,10.64-5.057,11.443-6.675,1.895-3.814.656-8.651.147-10.636a55.473,55.473,0,0,0-3.008-9.462c-.615-1.52-.815-5.2,0-5.5.949-.35,3.635,3.745,6.382,9.438l3.7,24.414a3.435,3.435,0,0,1-3.4,3.949H962.464a1.74,1.74,0,0,1-1.74-1.679Z" transform="translate(-899.835 -475.605)" fill="#1a87c4"/>
      <path id="Path_54132" data-name="Path 54132" d="M1072.12,668.45h4.915a3.169,3.169,0,0,1,.33,1.536c0,.99-1.32,1.981-1.32,1.981s-2.677.513-3.3.22S1072.12,668.45,1072.12,668.45Z" transform="translate(-965.838 -579.261)" fill="#fc7e85"/>
      <rect id="Rectangle_8094" data-name="Rectangle 8094" width="9.699" height="3.7" rx="1.85" transform="translate(77.421 13.9)" fill="#e3eaf3"/>
    </g>
    <g id="Patient_Bottom" data-name="Patient/Bottom" transform="translate(168.255 237.169)">
      <path id="Path_54133" data-name="Path 54133" d="M429.687,817.238c-4.434-3.4-15.73-6.928-18.558-13.248-1.524,1.915-10.074,1.373-13.318,1.223h0a41.677,41.677,0,0,0-.795,8.986c.269,3.688.452,4.756.452,4.756l6.019.228-.151-1.585s3.5-.155,5.55,1.606,7.645,3.806,13.391,2.991S434.125,820.637,429.687,817.238Z" transform="translate(-367.652 -686.068)" fill="#7c2f13"/>
      <path id="Path_54134" data-name="Path 54134" d="M422.288,822.23c-5.746.815-11.341-1.223-13.391-2.991s-5.55-1.606-5.55-1.606l.151,1.585-6.019-.228s-.187-1.047-.452-4.752a31.283,31.283,0,0,1,.3-5.88c.236-1.785.505-3.105.505-3.105,3.24.134,11.508.632,13.309-1.223.868,1.047,2.514,2.038,3.5,3.06.314.334.644.656.978.974.289.253.579.5.872.746.379.314.766.623,1.174.925,4.075,3.04,9.214,5.383,12.042,7.543C434.135,820.661,428.038,821.419,422.288,822.23Z" transform="translate(-367.666 -686.091)" fill="#25beef"/>
      <path id="Path_54135" data-name="Path 54135" d="M397.781,807h0a41.678,41.678,0,0,0-.795,8.986c.061.868.118,1.585.171,2.184,2.119.057,4.6-.11,3.623-1.312-1.63-1.993-1.659-9.809-1.659-9.809Z" transform="translate(-367.634 -687.851)" fill="#e3eaf3"/>
      <path id="Path_54136" data-name="Path 54136" d="M455.775,830.5a6.743,6.743,0,0,0-.909-.815c-1.866-1.434-4.739-2.942-7.657-4.678a11.859,11.859,0,0,0-5.921,3.867c-1.345,1.687-1.455,4.442-1.818,4.89,1.487,1.561,16.6-.285,16.891-1.838v-.057A2.217,2.217,0,0,0,455.775,830.5Z" transform="translate(-392.831 -698.522)" fill="#e3eaf3"/>
      <path id="Path_54137" data-name="Path 54137" d="M422.289,835.78c4.617-.652,9.45-1.271,8.884-3.26-14.153,4.984-20.449-.363-21.672-2.038s-3.8-1.593-3.8-1.593c-4.7.408-7.356-.917-8.709-1.989a6.529,6.529,0,0,0,.037.856c.265,3.708.452,4.756.452,4.756l6.019.228-.151-1.585s3.5-.155,5.55,1.606S416.555,836.595,422.289,835.78Z" transform="translate(-367.662 -699.641)" fill="#7c2f13"/>
      <path id="Path_54138" data-name="Path 54138" d="M437.756,812.444c-.257.216-.53.428-.815.623a7.635,7.635,0,0,1-1.165.734,5.463,5.463,0,0,1-1.406.542,4.075,4.075,0,0,1,.685-1.43,4.933,4.933,0,0,1,1.064-1.055,4.768,4.768,0,0,1,.648-.408C437.092,811.8,437.422,812.126,437.756,812.444Z" transform="translate(-389.809 -690.487)" fill="#7c2f13"/>
      <path id="Path_54139" data-name="Path 54139" d="M443.138,816.631a6.608,6.608,0,0,1-.566.408,10.1,10.1,0,0,1-1.165.734,5.181,5.181,0,0,1-1.406.542,3.953,3.953,0,0,1,.685-1.43,4.931,4.931,0,0,1,1.064-1.056c.069-.049.143-.094.216-.139C442.343,816.016,442.73,816.326,443.138,816.631Z" transform="translate(-393.145 -693)" fill="#7c2f13"/>
      <path id="Path_54140" data-name="Path 54140" d="M367.545,818.384c-4.434-3.4-15.16-6.08-17.988-12.384-1.528,1.915-10.147.139-13.391,0h0s-1.561,5.652-1.292,9.373.44,4.743.44,4.743l6.019.224-.151-1.581s3.5-.155,5.55,1.6,7.641,3.806,13.391,2.991S371.991,821.783,367.545,818.384Z" transform="translate(-330.841 -687.258)" fill="#7c2f13"/>
      <path id="Path_54141" data-name="Path 54141" d="M360.121,823.352c-5.746.815-11.341-1.223-13.391-2.991s-5.55-1.6-5.55-1.6l.151,1.585-6.027-.228s-.187-1.051-.452-4.756a30.618,30.618,0,0,1,.505-5.832,23.588,23.588,0,0,1,.791-3.529c3.26.139,11.186.575,13.387,0a9.936,9.936,0,0,1,2.926,2.2c.314.334.644.66.978.974s.579.5.872.746c.379.314.766.623,1.174.929,4.075,3.036,9.214,5.379,12.042,7.539C371.98,821.783,365.867,822.541,360.121,823.352Z" transform="translate(-330.83 -687.259)" fill="#25beef"/>
      <path id="Path_54142" data-name="Path 54142" d="M336.167,806h0s-1.561,5.652-1.292,9.373c.061.868.118,1.585.171,2.18,2.119.057,4.6-.11,3.623-1.312-1.63-1.993-1.659-9.809-1.659-9.809C336.5,806.408,336.537,806,336.167,806Z" transform="translate(-330.841 -687.258)" fill="#e3eaf3"/>
      <path id="Path_54143" data-name="Path 54143" d="M393.615,830.4a6.718,6.718,0,0,0-.909-.815c-1.866-1.43-4.739-2.938-7.657-4.678a11.875,11.875,0,0,0-5.921,3.871c-1.345,1.683-1.455,4.438-1.818,4.89,1.487,1.561,16.6-.285,16.891-1.838v-.053A2.2,2.2,0,0,0,393.615,830.4Z" transform="translate(-356.002 -698.462)" fill="#e3eaf3"/>
      <path id="Path_54144" data-name="Path 54144" d="M360.129,835.676c4.617-.652,9.45-1.271,8.884-3.26-14.153,4.988-20.449-.359-21.672-2.038s-3.8-1.593-3.8-1.593c-4.7.408-7.356-.917-8.709-1.985a6.585,6.585,0,0,0,.037.856c.265,3.7.452,4.756.452,4.756l6.019.224-.151-1.581s3.5-.155,5.55,1.6S354.378,836.491,360.129,835.676Z" transform="translate(-330.833 -699.582)" fill="#7c2f13"/>
      <path id="Path_54145" data-name="Path 54145" d="M375.6,812.34c-.257.22-.53.428-.815.628a7.936,7.936,0,0,1-1.165.729,5.181,5.181,0,0,1-1.406.542,4.075,4.075,0,0,1,.685-1.426,4.838,4.838,0,0,1,1.064-1.056,5.256,5.256,0,0,1,.648-.407C374.932,811.7,375.262,812.022,375.6,812.34Z" transform="translate(-352.98 -690.428)" fill="#7c2f13"/>
      <path id="Path_54146" data-name="Path 54146" d="M380.978,816.515c-.187.143-.371.285-.566.408a10.651,10.651,0,0,1-1.165.729,5.181,5.181,0,0,1-1.406.542,3.931,3.931,0,0,1,.685-1.426,4.836,4.836,0,0,1,1.064-1.055,2.449,2.449,0,0,1,.216-.143C380.183,815.9,380.57,816.21,380.978,816.515Z" transform="translate(-356.316 -692.929)" fill="#7c2f13"/>
      <path id="Path_54147" data-name="Path 54147" d="M327.617,543.081a36.994,36.994,0,0,1-2.388-17.523,36.391,36.391,0,0,1,2.987-10.938s28.449,4.218,36.407.24c0,0,6.361,56.453,6.561,61.425s-2.686,56.7-2.686,56.7-7.743,3.117-13.3.994c0,0-4.377-39.655-3.712-49.717l-.363-6.854c-.22,4.972-7.433,56.27-7.433,56.27s-7.959,2.445-13.33-.122c0,0-1.035-39.879.469-49.867l.151-19.153Z" transform="translate(-325.021 -514.62)" fill="#ef3e3b"/>
      <path id="Path_54148" data-name="Path 54148" d="M386.932,588.808c1.064-12.225,3.26-23.946,3.977-23.868.55.057,0,6.137-.2,20.09-.147,11.382.082,19.023.408,29.838.624,21.113,1.471,24.732,2.376,27.654a56.693,56.693,0,0,0,11.451,20.29,18.574,18.574,0,0,1-11.561,1.483,16.332,16.332,0,0,1-1.736-.489s-4.377-39.655-3.712-49.717L386.52,595.6C386.569,593.734,386.679,591.693,386.932,588.808Z" transform="translate(-361.458 -544.433)" fill="#c82833"/>
      <path id="Path_54149" data-name="Path 54149" d="M325.24,525.6a36.391,36.391,0,0,1,2.987-10.938s28.449,4.218,36.4.24h0c.306,2.319-21.867,2.779-29.394,16.667-1.866,3.448-1.414,42.381-1.866,53.185-.884,21.1-.3,24.773.408,27.748a56.644,56.644,0,0,0,9.956,21.028v.037c-.55.2-1.165.408-1.838.587a22.7,22.7,0,0,1-9.149.228c-.208-.053-.408-.106-.628-.167a16.819,16.819,0,0,1-1.585-.566l-.208-.11c0-.041.049-1.223-.02-3.317-.212-9.813-.693-38.306.546-46.51L331,564.556l-.408-2.73h0v-.037l-2.926-18.664h0A36.995,36.995,0,0,1,325.24,525.6Z" transform="translate(-325.033 -514.644)" fill="#c82833"/>
      <path id="Path_54150" data-name="Path 54150" d="M350.614,523.339c-6.325,0-14.67-.513-20.954-2.763l.273-.77c10.436,3.741,26.753,2.608,29.447,2.388l-.1-3.109.815-.024.122,3.875-.379.037C359.755,522.98,355.879,523.339,350.614,523.339Z" transform="translate(-327.77 -517.251)" fill="#7c2f13"/>
      <path id="Path_54151" data-name="Path 54151" d="M403.6,525.484l-.073-.815a53.31,53.31,0,0,0,7.91-1.369l.216.782A54.251,54.251,0,0,1,403.6,525.484Z" transform="translate(-371.537 -519.763)" fill="#7c2f13"/>
      <path id="Path_54152" data-name="Path 54152" d="M397.135,543.108l-.685-.444c2.853-4.377,1.752-14.752,1.744-14.854l.815-.09C399.05,528.156,400.142,538.487,397.135,543.108Z" transform="translate(-367.342 -522.382)" fill="#7c2f13"/>
      <path id="Path_54153" data-name="Path 54153" d="M336.77,550.6l-.2-.791c5.061-1.288,11.292-9.654,11.353-9.74l.656.485C348.319,540.909,342.112,549.243,336.77,550.6Z" transform="translate(-331.864 -529.699)" fill="#7c2f13"/>
      <path id="Path_54154" data-name="Path 54154" d="M396.943,522.445a1.223,1.223,0,0,0,0-2.445A1.223,1.223,0,0,0,396.943,522.445Z" transform="translate(-366.934 -517.808)" fill="#7c2f13"/>
      <path id="Path_54155" data-name="Path 54155" d="M354.028,657.4l-.815-.037c0-.346,1.577-34.818,2.445-51.856,1.157-22.519-3.859-50.617-3.908-50.9l.815-.143c.053.281,5.082,28.469,3.92,51.086C355.605,622.586,354.044,657.058,354.028,657.4Z" transform="translate(-340.858 -538.231)" fill="#7c2f13"/>
    </g>
    <g id="Patient_Head_Male" data-name="Patient/Head/Male" transform="translate(175.315 149.043)">
      <path id="Path_54156" data-name="Path 54156" d="M368.24,328.408s1.019,12.348,5.9,17.7.11-18.11.11-18.11Z" transform="translate(-357.688 -315.925)" fill="#000001"/>
      <path id="Path_54157" data-name="Path 54157" d="M370.143,369.18c-.253-.9.815-3.1,1.467-4.369-4.422.676-9.687-2.445-12.429-7.971a1.866,1.866,0,0,1-.53.187s-.408,11.5-2.918,11.639c-2.914,2.5-12.433,10.962-10.5,14.886,1.63,3.293,10.416,1.593,23.522-.937a6.593,6.593,0,0,0,3.419-1.63c2.751-2.624,2-7.335,1.61-8.4C373.285,371.2,370.514,370.479,370.143,369.18Z" transform="translate(-343.905 -333.012)" fill="#ea9d7d"/>
      <path id="Path_54158" data-name="Path 54158" d="M359.027,370.014c-1.736-3.765,1.911-4.564,1.911-4.564l-.024-.053a10.171,10.171,0,0,0,7.527,1.862c.114-.02.224-.049.334-.077a19.73,19.73,0,0,1,1.276-2.877c-4.422.681-9.434-2.734-12.177-8.264a.815.815,0,0,1-.782.485s-.077,2.139-.371,4.58h0c-.383,3.228-1.133,7.005-2.551,7.083-3.953,3.354-13.485,11.887-11.573,15.669s15,2.445,24.6-1.72c1.463-.636,2.657-1.255,3.525-1.736C364.728,381.061,360.588,373.392,359.027,370.014Z" transform="translate(-342.346 -332.538)" fill="#d18165"/>
      <path id="Path_54159" data-name="Path 54159" d="M379.89,303.43c-5.053.986-8.15,7.421-7.437,14.891h-.041c-1.381.269-2.2,2.038-1.818,3.981s1.8,3.26,3.179,3a1.117,1.117,0,0,0,.815-.408c2.8,5.652,7.955,9.01,12.441,8.15,5.563-1.084,7.531-7.951,5.893-16.358S385.453,302.367,379.89,303.43Z" transform="translate(-359.028 -301.294)" fill="#ea9d7d"/>
      <path id="Path_54160" data-name="Path 54160" d="M373.8,344.36a5.6,5.6,0,0,0-.029,2.038,4.076,4.076,0,0,0,.31.913c.057.159.155.306.228.477s.183.318.261.513a2.533,2.533,0,0,1-.55-.24,2.628,2.628,0,0,1-.469-.387,2.29,2.29,0,0,1-.485-2.364A1.976,1.976,0,0,1,373.8,344.36Z" transform="translate(-360.463 -325.618)" fill="#d18165"/>
      <path id="Path_54161" data-name="Path 54161" d="M406.79,358.844a33.538,33.538,0,0,1,4.348,1.63s.334-2.168-1.382-2.832S406.79,358.844,406.79,358.844Z" transform="translate(-380.528 -333.403)" fill="#be3e5f"/>
      <path id="Path_54162" data-name="Path 54162" d="M414.276,334.86c.183.815.342,1.63.566,2.417a4.8,4.8,0,0,0,.432,1.06c.077.139.22.326.33.5s.232.363.342.558a2.608,2.608,0,0,1,.375,1.4,1.223,1.223,0,0,1-.379.782,1.54,1.54,0,0,1-.689.359,5.049,5.049,0,0,1-2.584-.183,9.627,9.627,0,0,0,2.38-.407,1.149,1.149,0,0,0,.387-.261.456.456,0,0,0,.114-.33,2.209,2.209,0,0,0-.326-.962c-.09-.171-.192-.342-.3-.513a5.907,5.907,0,0,1-.33-.562,4.244,4.244,0,0,1-.375-1.3,7.987,7.987,0,0,1,.053-2.563Z" transform="translate(-384.012 -319.989)" fill="#d18165"/>
      <path id="Path_54163" data-name="Path 54163" d="M399.53,331.7a18.355,18.355,0,0,0,2.445.261,7.755,7.755,0,0,0,1.19-.061c.408-.041.791-.147,1.223-.228a2.828,2.828,0,0,1-1.117.7,3.7,3.7,0,0,1-1.316.212,4.263,4.263,0,0,1-1.3-.236A3.325,3.325,0,0,1,399.53,331.7Z" transform="translate(-376.227 -318.099)" fill="#000001"/>
      <path id="Path_54164" data-name="Path 54164" d="M420.182,331.207c-.11.037-.224.065-.338.094a4.44,4.44,0,0,1-.648.094,4.122,4.122,0,0,1-.672,0,3.347,3.347,0,0,1-1.263-.35c.6-.061,1.174-.114,1.724-.208.245-.037.481-.086.717-.143.106-.02.208-.045.31-.073Q420.1,330.907,420.182,331.207Z" transform="translate(-386.731 -317.477)" fill="#000001"/>
      <path id="Path_54165" data-name="Path 54165" d="M421.345,338.066a.624.624,0,0,1-.734-.493l-.35-1.793a.623.623,0,0,1,1.223-.236l.35,1.793A.623.623,0,0,1,421.345,338.066Z" transform="translate(-388.506 -320.114)" fill="#000001"/>
      <path id="Path_54166" data-name="Path 54166" d="M405.915,338.925a.615.615,0,0,1-.729-.493l-.35-1.789a.624.624,0,1,1,1.223-.24l.346,1.793a.619.619,0,0,1-.489.729Z" transform="translate(-379.36 -320.59)" fill="#000001"/>
      <path id="Path_54167" data-name="Path 54167" d="M390.719,346.439s10.057-.636,12.376,0c0,0,.852,10.388-5.8,11.867a10.692,10.692,0,0,1-10.526-3.668Z" transform="translate(-368.666 -326.682)" fill="#69baef"/>
      <path id="Path_54168" data-name="Path 54168" d="M378.45,357.38a10.692,10.692,0,0,1,1.471,1.055,17.481,17.481,0,0,1,1.308,1.223,16.739,16.739,0,0,1,1.178,1.337,10.14,10.14,0,0,1,1.015,1.5,10.114,10.114,0,0,1-1.471-1.051,17.79,17.79,0,0,1-2.486-2.551A10.139,10.139,0,0,1,378.45,357.38Z" transform="translate(-363.737 -333.332)" fill="#69baef"/>
      <path id="Path_54169" data-name="Path 54169" d="M379,341a20.113,20.113,0,0,1,2.486.607c.815.249,1.63.518,2.4.815s1.569.628,2.339.986a20.014,20.014,0,0,1,2.258,1.223,20.114,20.114,0,0,1-2.486-.607c-.815-.249-1.63-.518-2.4-.815s-1.569-.632-2.339-.986A20.383,20.383,0,0,1,379,341Z" transform="translate(-364.063 -323.627)" fill="#69baef"/>
      <path id="Path_54170" data-name="Path 54170" d="M410.25,348.6a5.379,5.379,0,0,1,1.479-.611,7.06,7.06,0,0,1,1.577-.24,5.782,5.782,0,0,1,1.606.143,3.37,3.37,0,0,1,1.459.709c-.542-.053-1.039-.069-1.536-.077s-1,.029-1.5.041C412.332,348.593,411.33,348.662,410.25,348.6Z" transform="translate(-382.578 -327.621)" fill="#fff"/>
      <path id="Path_54171" data-name="Path 54171" d="M397.326,358.581a5.941,5.941,0,0,0,2.959-1.6c-1.667-.456-4.25-.628-6.231-2.881a7.849,7.849,0,0,1-1.907-4.108,7.568,7.568,0,0,1,.452-3.391c-1.1.057-1.83.1-1.83.1l-3.949,8.187A10.659,10.659,0,0,0,397.326,358.581Z" transform="translate(-368.696 -326.945)" fill="#396e8e"/>
      <path id="Path_54172" data-name="Path 54172" d="M387.866,309.474s-3.26-3.79-13.876-1.822c0,0,1.671,3.5.151,4.3s-1.883,1.015-1.223,3.113,1.875,4.259.114,3.6-4.719-5.64-5.652-1.834c-.9,3.688,1.223,4.89,1.019,5.428a.2.2,0,0,1-.13.11c-.681.208-3.366-4.01-4.006-7.991-.864-5.379,1.744-11.944,6.7-14.565a12.1,12.1,0,0,1,4.4-1.271c8.745-1.186,18.6,3.9,18.289,7.237C393.546,306.858,392.344,308.19,387.866,309.474Z" transform="translate(-355.234 -298.369)" fill="#000001"/>
    </g>
    <g id="Patient_Torso" data-name="Patient/Torso" transform="translate(144.741 184.636)">
      <path id="Path_54173" data-name="Path 54173" d="M428.342,449.86l5.355,14.483a2.808,2.808,0,0,0,2.233,1.809l20.1,2.918a5.322,5.322,0,0,0,4.242-1.223c2.225-1.928,5.8-4.923,6.549-4.923,1.1,0,3.073.689-1.475,4.65,0,0,.681.579,2.853.579s10.538-.249,10.722.408,2.274,2.091-9.1,2.335c0,0-.493,1.047.489,1.047s10.33-.061,9.405,1.165-2.274.986-9.711,1.108c0,0-.554.815-.183.921s9.218.371,9.218,1.108,1.6,1.659-11.064,1.043c0,0-.183.432,1.108.815s6.928,1.785,5.469,2.445-1.659.367-8.236-1.414l-5.734-.925a9.837,9.837,0,0,0-2.954-.033c-6,.844-28.465,2.763-34.044-3.036-5.228-5.428-8.04-24.838-8.04-24.838Z" transform="translate(-355.144 -423.718)" fill="#ea9d7d"/>
      <path id="Path_54174" data-name="Path 54174" d="M479.089,476.4c0-.738-8.851-.986-9.218-1.108s.183-.921.183-.921c5.677-.094,7.808.024,8.908-.456-2.7-.835-7.775.151-16.574,1.072-15.983,1.679-20.653.66-22.495.2-5.069-1.276-9.9-2.641-12.91-6.846-3.668-5.118-2.131-11.084-2-18.191l-9.373.314s2.812,19.41,8.04,24.838c5.575,5.791,28,3.884,34.023,3.04a9.97,9.97,0,0,1,2.975.029l5.734.925c6.577,1.781,6.761,2.087,8.236,1.414s-4.177-2.091-5.469-2.445-1.108-.815-1.108-.815C480.69,478.055,479.089,477.134,479.089,476.4Z" transform="translate(-355.18 -423.884)" fill="#d18165"/>
      <path id="Path_54175" data-name="Path 54175" d="M528.229,493.24s-.277,6.818-6.549,6.353" transform="translate(-418.025 -449.42)" fill="none" stroke="#2f170b" stroke-width="2"/>
      <line id="Line_1092" data-name="Line 1092" y2="9.043" transform="translate(100.33 45.254)" fill="none" stroke="#2f170b" stroke-linecap="round" stroke-linejoin="round" stroke-width="6"/>
      <path id="Path_54176" data-name="Path 54176" d="M439.485,430.331a3.048,3.048,0,0,1-1.96-1.976l-8.729-27a15.922,15.922,0,0,0-5.3-7.743,11.773,11.773,0,0,0-2.066-1.312.407.407,0,0,0-.583.383l.778,23.966.64,17.213a11.948,11.948,0,0,0,11.936,11.5h22.984l-.587-11.541C457.078,433.836,444.139,431.819,439.485,430.331Z" transform="translate(-358.284 -389.592)" fill="#25beef"/>
      <path id="Path_54177" data-name="Path 54177" d="M457.261,448.81c-17.816,1.94-24.17-1.724-26.619-5.554-2.787-4.356-2.681-12.3-2.567-20.979a37.044,37.044,0,0,0-2.616-13.489c-.489-1.1-1.826-4.075-3.325-4.01a1.349,1.349,0,0,0-.844.408l.615,18.884.64,17.213a11.948,11.948,0,0,0,11.936,11.5h22.984Z" transform="translate(-358.545 -397.007)" fill="#1a87c4"/>
      <path id="Path_54178" data-name="Path 54178" d="M366.967,440.553H330.792a1.1,1.1,0,0,1-1.08-1.3l9.731-51.84,7.678-1.7c2.743,5.819,11.19,6.08,13.884.245l5.832,2.217a4.434,4.434,0,0,1,3.382,4.548l-.061,1.834-1.451,44.321C368.7,438.992,368.671,439.587,366.967,440.553Z" transform="translate(-304.275 -385.71)" fill="#25beef"/>
      <path id="Path_54179" data-name="Path 54179" d="M271.2,491.649a9.725,9.725,0,0,0,.3-2.245c.094-6.345.7-30.564,4.352-41.566,1.161-3.513,11.842-21.407,11.842-21.407l15.257,3.223L289.5,451.981a11.146,11.146,0,0,0-1.3,3.195l-8.2,34.9a3.3,3.3,0,0,0,.607,2.779c1.724,2.213,5.139,6.708,5.082,7.535-.073,1.1-.888,3.02-4.536-1.785,0,0-.623.644-.77,2.82s-.456,10.53-1.145,10.669-2.237,2.127-1.72-9.234c0,0-1.011-.558-1.076.408s-.628,10.31-1.793,9.308-.815-2.335-.456-9.78c0,0-.762-.607-.909-.244s-.982,9.173-1.72,9.124-1.76,1.483-.3-11.109c0,0-.408-.212-.872,1.051s-2.241,6.81-2.82,5.3-.257-1.679,1.96-8.126l1.65-7.156Z" transform="translate(-267.32 -409.836)" fill="#ea9d7d"/>
      <path id="Path_54180" data-name="Path 54180" d="M312.242,433.218l-3.6-.758c-2.69,3.411-6.031,5.889-10.387,12.262a78.378,78.378,0,0,0-6.561,12.156c-2.673,5.856-2.131,8.839-3.912,23.277-1.072,8.672-1.606,13.008-2.168,15.274,0,0-4.03,16.244-2.062,20.266a1.132,1.132,0,0,0,.407.456c1.165,1,1.728-8.325,1.793-9.308s1.076-.408,1.076-.408c-.518,11.361,1.035,9.373,1.72,9.234s1-8.46,1.145-10.656h0c.147-2.176.77-2.82.77-2.82,3.647,4.8,4.462,2.885,4.536,1.785.057-.815-3.358-5.322-5.082-7.535a3.3,3.3,0,0,1-.607-2.779l8.2-34.9a11.146,11.146,0,0,1,1.3-3.195Z" transform="translate(-276.617 -413.409)" fill="#d18165"/>
      <path id="Path_54181" data-name="Path 54181" d="M276.125,467.42a1,1,0,0,1-1-.937c-.31-4.89.408-27.515,3.175-38.82C280.335,419.4,294.912,398,294.912,398s6.708-7.017,12.16-8.15l3.105,16.195-15.689,25.922c-.151.228-6.406,28.559-7.9,34.394a1.39,1.39,0,0,1-1.365,1.06Z" transform="translate(-271.904 -388.163)" fill="#25beef"/>
      <path id="Path_54182" data-name="Path 54182" d="M326.068,444.071l10.909-16.578-.024-.155a1.765,1.765,0,0,0-2.812-1.141A77.637,77.637,0,0,0,326.965,433c-2.547,2.608-5.273,5.412-6.545,7.8l4.89,3.423A.55.55,0,0,0,326.068,444.071Z" transform="translate(-298.781 -409.485)" fill="#1a87c4"/>
      <path id="Path_54183" data-name="Path 54183" d="M368.745,463.618c-2.4-.848-8.623-.876-18.057-3.851-8.855-2.787-10.64-5.053-11.443-6.675-1.895-3.81-.656-8.647-.147-10.636a55.7,55.7,0,0,1,3.007-9.462c.615-1.52.815-5.2,0-5.5-.949-.346-4.686,3.932-7.433,9.625l-4.89,26.847a1.1,1.1,0,0,0,1.072,1.333h36.134a1.736,1.736,0,0,0,1.74-1.679Z" transform="translate(-304.313 -410.453)" fill="#1a87c4"/>
      <path id="Path_54184" data-name="Path 54184" d="M294.419,496.683a1.39,1.39,0,0,0,1.349-1.043c1.5-5.836,7.743-34.166,7.9-34.394l10.188-16.863,1.06-5.143-12.225,9.5a33.488,33.488,0,0,0-6.243,13.941c-1.32,7.885-5.864,33.974-5.868,34Z" transform="translate(-281.101 -417.426)" fill="#1a87c4"/>
    </g>
    <g id="Table" transform="translate(219.915 244.418)">
      <rect id="Rectangle_8095" data-name="Rectangle 8095" width="214.316" height="119.434" transform="translate(13.672 11.48)" fill="#cc7829"/>
      <rect id="Rectangle_8096" data-name="Rectangle 8096" width="47.924" height="119.434" transform="translate(180.06 11.48)" fill="#a04833"/>
      <rect id="Rectangle_8097" data-name="Rectangle 8097" width="241.66" height="11.48" transform="translate(0 0)" fill="#895237"/>
      <rect id="Rectangle_8098" data-name="Rectangle 8098" width="241.66" height="11.48" transform="translate(0 0)" fill="#a04833"/>
      <rect id="Rectangle_8099" data-name="Rectangle 8099" width="75.044" height="11.48" transform="translate(166.612 0)" fill="#843a2c"/>
      <rect id="Rectangle_8100" data-name="Rectangle 8100" width="96.173" height="28.934" transform="translate(47.618 40.544)" fill="#e3eaf3"/>
    </g>
    <g id="Computer" transform="translate(321.08 181.963)">
      <rect id="Rectangle_8101" data-name="Rectangle 8101" width="77.599" height="50.226" rx="4.1" fill="#9d9f9f"/>
      <rect id="Rectangle_8102" data-name="Rectangle 8102" width="8.378" height="50.226" rx="1.35" transform="translate(69.216)" fill="#454851"/>
      <path id="Path_54185" data-name="Path 54185" d="M778.593,473.49h12.258a1.113,1.113,0,0,1,1.113,1.113v17.433H777.48V474.607a1.112,1.112,0,0,1,1.113-1.117Z" transform="translate(-745.922 -435.045)" fill="#e3eaf3"/>
      <path id="Path_54186" data-name="Path 54186" d="M802.514,473.49H805.8a.623.623,0,0,1,.615.615v17.931H801.89V474.105A.624.624,0,0,1,802.514,473.49Z" transform="translate(-760.385 -435.045)" fill="#abbcca"/>
      <path id="Path_54187" data-name="Path 54187" d="M749.961,519h34.928a1.671,1.671,0,0,1,1.671,1.671v3.778H748.29v-3.778A1.671,1.671,0,0,1,749.961,519Z" transform="translate(-728.627 -462.009)" fill="#9d9f9f"/>
      <path id="Path_54188" data-name="Path 54188" d="M829.517,519h4.165a.628.628,0,0,1,.628.628v4.833h-5.42v-4.817a.627.627,0,0,1,.628-.644Z" transform="translate(-776.382 -462.009)" fill="#454851"/>
      <rect id="Rectangle_8103" data-name="Rectangle 8103" width="12.225" height="3.607" rx="1.803" transform="translate(32.683 23.31)" fill="#e3eaf3"/>
    </g>
  </g>
</svg>
