<svg width="24" height="24" viewBox="0 0 24 24" fill="none" xmlns="http://www.w3.org/2000/svg">
<mask id="mask0_1239_30546" style="mask-type:luminance" maskUnits="userSpaceOnUse" x="3" y="2" width="18" height="20">
<path fill-rule="evenodd" clip-rule="evenodd" d="M3.00024 2.01172H20.0524V21.8652H3.00024V2.01172Z" fill="white"/>
</mask>
<g mask="url(#mask0_1239_30546)">
<path fill-rule="evenodd" clip-rule="evenodd" d="M7.57331 3.51172C5.91631 3.51172 4.54031 4.85372 4.50131 6.50872V17.2277C4.46531 18.9287 5.80531 20.3287 7.49031 20.3657H15.5733C17.2423 20.3057 18.5633 18.9287 18.5523 17.2327V8.33972L13.9183 3.51172H7.58531H7.57331ZM7.58531 21.8657H7.45931C4.94731 21.8117 2.94731 19.7237 3.00131 17.2117V6.49072C3.06031 4.00972 5.10831 2.01172 7.57031 2.01172H7.58831H14.2373C14.4413 2.01172 14.6363 2.09472 14.7783 2.24172L19.8443 7.51872C19.9773 7.65772 20.0523 7.84472 20.0523 8.03772V17.2277C20.0683 19.7367 18.1123 21.7757 15.5993 21.8657H7.58531Z" fill="currentColor"/>
</g>
<path fill-rule="evenodd" clip-rule="evenodd" d="M19.2978 8.984H16.5438C14.7128 8.979 13.2258 7.487 13.2258 5.659V2.75C13.2258 2.336 13.5618 2 13.9758 2C14.3898 2 14.7258 2.336 14.7258 2.75V5.659C14.7258 6.663 15.5418 7.481 16.5458 7.484H19.2978C19.7118 7.484 20.0478 7.82 20.0478 8.234C20.0478 8.648 19.7118 8.984 19.2978 8.984Z" fill="currentColor"/>
<path fill-rule="evenodd" clip-rule="evenodd" d="M11.1428 16.7002C10.7288 16.7002 10.3928 16.3642 10.3928 15.9502V9.90918C10.3928 9.49518 10.7288 9.15918 11.1428 9.15918C11.5568 9.15918 11.8928 9.49518 11.8928 9.90918V15.9502C11.8928 16.3642 11.5568 16.7002 11.1428 16.7002Z" fill="currentColor"/>
<path fill-rule="evenodd" clip-rule="evenodd" d="M11.1417 16.6985C10.9427 16.6985 10.7507 16.6195 10.6107 16.4775L8.26574 14.1235C7.97374 13.8295 7.97474 13.3545 8.26774 13.0625C8.56174 12.7705 9.03674 12.7705 9.32874 13.0645L11.1417 14.8865L12.9547 13.0645C13.2467 12.7705 13.7217 12.7705 14.0157 13.0625C14.3087 13.3545 14.3097 13.8295 14.0177 14.1235L11.6727 16.4775C11.5327 16.6195 11.3407 16.6985 11.1417 16.6985Z" fill="currentColor"/>
</svg>
