<svg width="160" height="40" viewBox="0 0 160 40" fill="none" xmlns="http://www.w3.org/2000/svg">
<path d="M67.7121 33.152L70.0561 14.744H62.0161L42.9041 33.216H50.6881L56.3041 27.656H61.9201L63.2321 23.352H60.6881L64.6481 19.424L62.9761 33.152H67.7121Z" fill="#211E1E"/>
<path d="M141.44 33.152H135.432L137.376 14.72H145.048L151.904 26.424V14.72H157.192V33.152H149.688L142.696 21.648L141.44 33.152Z" fill="#211E1E"/>
<path d="M124.064 28.688H122.56L118.872 32.328L118.912 33.192H124.264L124.064 28.688Z" fill="#211E1E"/>
<path d="M123.464 14.768H114.936L112.28 24.8L109.624 14.768H102.288L100.304 33.216H105.656L106.216 20.032L109.552 30.056L109.68 30.44L112.632 27.592L117.352 23.032L118.352 20.032L118.424 22L123.56 17L123.464 14.768Z" fill="#211E1E"/>
<path d="M74.536 33.152L76.248 18.728C79.312 17.88 80.064 19.024 80.312 19.424C80.848 20.272 80.648 21.416 79.904 22.056C79.392 22.504 78.6 22.72 77.056 22.544L76.632 25.824C78.368 26.408 82.216 26.456 83.608 24.64L84.704 16.232C83.984 15.344 82.984 14.952 82.208 14.84C81.176 14.688 80.328 14.632 79.04 14.632H71.04L68.688 33.144H74.536V33.152Z" fill="#211E1E"/>
<path d="M100.936 18.816C100.664 17.744 100.128 16.92 99.36 16.304C97.944 15.176 95.76 14.744 93.064 14.744H85.728L83.416 33.256H89.216L90.16 25.336L90.928 18.832C93.992 17.984 94.744 19.128 94.992 19.528C95.528 20.376 95.328 21.52 94.584 22.16C94.072 22.608 93.28 22.824 91.736 22.648L91.32 25.856C91.928 26.064 92.584 26.2 93.256 26.256C94.152 26.304 95.144 26.24 96.064 26.016C96.648 25.864 97.184 25.656 97.68 25.4C100.256 24.048 101.576 21.368 100.936 18.816Z" fill="#211E1E"/>
<path d="M16.864 5.456C17.672 6.856 17.456 7.408 17.664 7.984C17.976 8.84 19.776 7.016 21.304 6.344C22.832 5.672 24.152 6.056 25.04 6.536C25.04 6.536 26.744 6.16 23.08 2.128C19.408 -1.904 14.736 1.792 15.04 3.976C15.144 4.792 16.392 4.648 16.864 5.456Z" fill="#F32735"/>
<path d="M30.488 29.816L27.88 33.728C28.192 34.136 28.584 34.464 29.048 34.664C30.64 35.36 32.664 34.456 34.28 32.568L33.776 25.304L31.976 27.576L33.472 27.424L33.04 29.56L30.488 29.816Z" fill="#F32735"/>
<path d="M34.824 21.184C32.56 20.2 29.432 22.416 27.832 26.144C27.136 27.76 26.848 29.392 26.928 30.808L31.864 23.4L35.272 23.064L35.576 23.032L36.032 29.704C37.632 25.984 37.088 22.168 34.824 21.184Z" fill="#F32735"/>
<path d="M48.952 12.232C45.208 5.104 30.408 7.28 30.408 7.28C34.6 8.32 35.768 11.28 36.096 12.92C35.528 11.984 34.856 11.136 34.056 10.408C26.384 3.408 10.592 13.224 10.592 13.224C10.6 13.224 10.6 13.232 10.608 13.232C7.19202 15.272 2.07202 19.24 2.89602 24.368C4.12002 31.992 19.136 27.048 19.136 27.048C19.136 27.048 18.576 27.04 17.768 26.984C14.336 27.056 11.88 26.304 11.448 24.784C10.928 22.96 13.48 20.52 17.6 18.536C19.744 21.088 21.104 24.064 21.552 27.168C22.584 34.248 20.168 41.408 26.704 39.288C29.52 38.376 31.848 36.648 33.656 34.456C31.376 36.864 28.64 37.952 26.456 37C23.136 35.552 22.344 29.96 24.688 24.496C27.032 19.032 31.624 15.776 34.944 17.224C37.072 18.152 38.16 20.784 38.048 23.992C38.136 23.272 38.2 22.56 38.216 21.848C41.448 21.136 52.136 18.304 48.952 12.232ZM38.216 21.448C38.232 18.776 37.728 16.184 36.68 13.984C37.624 13.872 39.824 13.72 41.048 14.544C44.36 16.792 40.176 20.112 38.216 21.448Z" fill="#F32735"/>
<path d="M134.144 33.152L136.208 14.744H127.544L108.432 33.216H116.216L121.824 27.656H127.44L128.76 23.352H126.216L130.176 19.424L128.504 33.152H134.144Z" fill="#F32735"/>
</svg>
