<svg width="80" height="80" viewBox="0 0 80 80" fill="none" xmlns="http://www.w3.org/2000/svg">
<path d="M33.1646 32.0856C35.226 32.0856 36.9875 31.3516 38.4492 29.8835C39.9109 28.4156 40.6417 26.6509 40.6417 24.5894C40.6417 22.528 39.9077 20.7665 38.4397 19.3048C36.9717 17.8431 35.207 17.1123 33.1456 17.1123C31.0842 17.1123 29.3226 17.8463 27.861 19.3143C26.3993 20.7823 25.6684 22.547 25.6684 24.6084C25.6684 26.6698 26.4025 28.4314 27.8705 29.893C29.3384 31.3547 31.1031 32.0856 33.1646 32.0856ZM33.2086 49.1979C35.9537 49.1979 38.617 48.6318 41.1987 47.4998C43.7805 46.3678 46.019 44.7591 47.9144 42.6738C45.6328 41.2478 43.2442 40.1961 40.7487 39.5187C38.2531 38.8414 35.7219 38.5027 33.1551 38.5027C30.5882 38.5027 28.057 38.8414 25.5615 39.5187C23.066 40.1961 20.6774 41.2478 18.3957 42.6738C20.3922 44.7415 22.6738 46.3458 25.2406 47.4866C27.8075 48.6274 30.4635 49.1979 33.2086 49.1979ZM33.1618 66.3102C23.9595 66.3102 16.1319 63.0838 9.67914 56.631C3.22638 50.1783 0 42.3529 0 33.1551C0 23.9572 3.22638 16.1319 9.67914 9.67914C16.1319 3.22638 23.9572 0 33.1551 0C42.3529 0 50.1783 3.22638 56.631 9.67914C63.0838 16.1319 66.3102 23.9595 66.3102 33.1618C66.3102 37.0076 65.615 40.7665 64.2246 44.4385C62.8342 48.1105 60.9982 51.3725 58.7166 54.2246L79.0374 74.5455C79.6791 75.1872 80 75.9358 80 76.7914C80 77.6471 79.6791 78.3957 79.0374 79.0374C78.3957 79.6791 77.6471 80 76.7914 80C75.9358 80 75.1872 79.6791 74.5455 79.0374L54.2246 58.7166C51.3725 60.9982 48.1105 62.8342 44.4385 64.2246C40.7665 65.615 37.0076 66.3102 33.1618 66.3102ZM33.2086 59.893C40.5882 59.893 46.8806 57.2727 52.0856 52.0321C57.2906 46.7914 59.893 40.4813 59.893 33.1016C59.893 25.7219 57.2935 19.4296 52.0944 14.2246C46.8954 9.01961 40.5823 6.41711 33.1551 6.41711C25.8111 6.41711 19.5187 9.01665 14.2781 14.2157C9.03743 19.4147 6.41711 25.7278 6.41711 33.1551C6.41711 40.4991 9.03743 46.7914 14.2781 52.0321C19.5187 57.2727 25.8289 59.893 33.2086 59.893Z" fill="black"/>
</svg>
