<svg width="21" height="21" viewBox="0 0 21 21" fill="none" xmlns="http://www.w3.org/2000/svg">
<path d="M10.9984 18C11.8869 18 12.7436 17.8596 13.5686 17.5788C14.3936 17.298 15.151 16.8871 15.8408 16.3461C15.1382 15.8243 14.3776 15.4278 13.5589 15.1567C12.7402 14.8855 11.8866 14.75 10.9983 14.75C10.1099 14.75 9.25322 14.8823 8.42822 15.1471C7.60322 15.4118 6.84585 15.8115 6.1561 16.3461C6.84585 16.8871 7.60322 17.298 8.42822 17.5788C9.25322 17.8596 10.11 18 10.9984 18ZM13.4561 9.6365L12.3869 8.5673C12.5023 8.41473 12.5914 8.24528 12.6542 8.05895C12.717 7.87263 12.7484 7.68631 12.7484 7.49997C12.7484 7.01921 12.577 6.60734 12.234 6.26437C11.8911 5.92142 11.4792 5.74995 10.9984 5.74995C10.8121 5.74995 10.6258 5.78137 10.4394 5.8442C10.2531 5.90702 10.0837 5.99612 9.9311 6.1115L8.8619 5.0423C9.15663 4.7782 9.48628 4.58012 9.85083 4.44808C10.2154 4.31603 10.5993 4.25 11.0027 4.25C11.9024 4.25 12.6683 4.56603 13.3003 5.19808C13.9324 5.83011 14.2484 6.596 14.2484 7.49575C14.2484 7.89908 14.1824 8.28302 14.0503 8.64757C13.9183 9.01212 13.7202 9.34177 13.4561 9.6365ZM18.983 15.1634L17.8888 14.0692C18.2555 13.4461 18.5321 12.7929 18.7186 12.1096C18.9052 11.4263 18.9984 10.7231 18.9984 9.99998C18.9984 7.76664 18.2234 5.87497 16.6734 4.32497C15.1234 2.77497 13.2318 1.99997 10.9984 1.99997C10.2753 1.99997 9.57213 2.09324 8.8888 2.27977C8.20547 2.46632 7.55227 2.74293 6.9292 3.1096L5.835 2.01537C6.60678 1.52051 7.42995 1.14423 8.3045 0.88655C9.17905 0.62885 10.077 0.5 10.9984 0.5C12.3126 0.5 13.5476 0.749375 14.7034 1.24812C15.8592 1.74687 16.8647 2.42375 17.7197 3.27875C18.5746 4.13375 19.2515 5.13917 19.7503 6.295C20.249 7.45082 20.4984 8.68581 20.4984 9.99998C20.4984 10.9214 20.3696 11.8194 20.1119 12.6939C19.8542 13.5684 19.4779 14.3916 18.983 15.1634ZM10.9947 19.5C9.68199 19.5 8.44834 19.2503 7.29377 18.7509C6.13919 18.2516 5.13418 17.5745 4.27873 16.7197C3.42326 15.8649 2.74602 14.8597 2.247 13.7041C1.74797 12.5486 1.49845 11.3138 1.49845 9.99998C1.49845 8.99741 1.64877 8.02305 1.94942 7.0769C2.25007 6.13073 2.69591 5.2506 3.28692 4.4365L0.80615 1.93072C0.657433 1.78201 0.584041 1.60541 0.585975 1.40092C0.587891 1.19644 0.666408 1.01664 0.821525 0.861525C0.976658 0.706392 1.15486 0.628825 1.35612 0.628825C1.55741 0.628825 1.73562 0.706392 1.89075 0.861525L20.3331 19.3192C20.4818 19.4679 20.5552 19.6445 20.5533 19.849C20.5513 20.0535 20.4728 20.2333 20.3177 20.3884C20.1625 20.5436 19.9869 20.6212 19.7908 20.6212C19.5946 20.6212 19.419 20.5436 19.2639 20.3884L4.3869 5.53647C3.93048 6.19802 3.58497 6.90573 3.35035 7.65957C3.11573 8.41342 2.99842 9.19356 2.99842 9.99998C2.99842 10.9908 3.17118 11.9382 3.5167 12.8422C3.86222 13.7461 4.36382 14.5628 5.02152 15.2923C5.90229 14.6474 6.84786 14.1458 7.85822 13.7875C8.86857 13.4292 9.91531 13.25 10.9984 13.25C11.76 13.25 12.5103 13.3519 13.2494 13.5558C13.9885 13.7596 14.6965 14.0359 15.3735 14.3846L17.7176 16.7288C16.8189 17.6339 15.7901 18.3221 14.6311 18.7932C13.4721 19.2644 12.26 19.5 10.9947 19.5Z" fill="currentColor"/>
</svg>
