<svg width="16" height="16" viewBox="0 0 16 16" fill="none" xmlns="http://www.w3.org/2000/svg">
<path fill-rule="evenodd" clip-rule="evenodd" d="M11.6263 4.1576C11.653 4.20422 11.6997 4.23751 11.7597 4.23751C13.3597 4.23751 14.6663 5.54273 14.6663 7.14095V11.0966C14.6663 12.6948 13.3597 14 11.7597 14H4.23967C2.63301 14 1.33301 12.6948 1.33301 11.0966V7.14095C1.33301 5.54273 2.63301 4.23751 4.23967 4.23751C4.29301 4.23751 4.34634 4.21088 4.36634 4.1576L4.40634 4.07769C4.42932 4.02932 4.45291 3.97963 4.47686 3.92919C4.64741 3.56996 4.83609 3.17253 4.95301 2.93896C5.25967 2.33962 5.77967 2.00666 6.42634 2H9.56634C10.213 2.00666 10.7397 2.33962 11.0463 2.93896C11.1513 3.14872 11.3113 3.48661 11.4655 3.81228C11.4973 3.87948 11.5289 3.94617 11.5597 4.0111L11.6263 4.1576ZM11.1397 6.71476C11.1397 7.04773 11.4064 7.3141 11.7397 7.3141C12.073 7.3141 12.3464 7.04773 12.3464 6.71476C12.3464 6.3818 12.073 6.10877 11.7397 6.10877C11.4064 6.10877 11.1397 6.3818 11.1397 6.71476ZM6.84647 7.74694C7.1598 7.43395 7.56647 7.26747 7.9998 7.26747C8.43313 7.26747 8.8398 7.43395 9.14647 7.74028C9.45313 8.04661 9.6198 8.45282 9.6198 8.88567C9.61313 9.77802 8.89313 10.5039 7.9998 10.5039C7.56647 10.5039 7.1598 10.3374 6.85313 10.0311C6.54647 9.72474 6.3798 9.31853 6.3798 8.88567V8.87901C6.37313 8.45948 6.5398 8.05327 6.84647 7.74694ZM9.8465 10.737C9.37317 11.2098 8.71984 11.5028 7.99984 11.5028C7.29984 11.5028 6.6465 11.2297 6.1465 10.737C5.65317 10.2375 5.37984 9.5849 5.37984 8.88568C5.37317 8.19312 5.6465 7.54051 6.13984 7.04106C6.63984 6.54162 7.29984 6.26859 7.99984 6.26859C8.69984 6.26859 9.35984 6.54162 9.85317 7.0344C10.3465 7.53385 10.6198 8.19312 10.6198 8.88568C10.6132 9.61154 10.3198 10.2641 9.8465 10.737Z" fill="#3E3E3E"/>
</svg>
