<svg width="20" height="20" viewBox="0 0 20 20" fill="none" xmlns="http://www.w3.org/2000/svg">
<g clip-path="url(#clip0_1475_8080)">
<rect width="20" height="20" rx="10" fill="white"/>
<path fill-rule="evenodd" clip-rule="evenodd" d="M0 0H12V9.33333H0V0Z" fill="#1A47B8"/>
<path fill-rule="evenodd" clip-rule="evenodd" d="M12 0V1.33333H28V0H12ZM12 2.66667V4H28V2.66667H12ZM12 5.33333V6.66667H28V5.33333H12ZM12 8V9.33333H28V8H12ZM0 10.6667V12H28V10.6667H0ZM0 13.3333V14.6667H28V13.3333H0ZM0 16V17.3333H28V16H0ZM0 18.6667V20H28V18.6667H0Z" fill="#F93939"/>
<path fill-rule="evenodd" clip-rule="evenodd" d="M1.33331 1.33398V2.66732H2.66665V1.33398H1.33331ZM3.99998 1.33398V2.66732H5.33331V1.33398H3.99998ZM6.66665 1.33398V2.66732H7.99998V1.33398H6.66665ZM9.33331 1.33398V2.66732H10.6666V1.33398H9.33331ZM7.99998 2.66732V4.00065H9.33331V2.66732H7.99998ZM5.33331 2.66732V4.00065H6.66665V2.66732H5.33331ZM2.66665 2.66732V4.00065H3.99998V2.66732H2.66665ZM1.33331 4.00065V5.33398H2.66665V4.00065H1.33331ZM3.99998 4.00065V5.33398H5.33331V4.00065H3.99998ZM6.66665 4.00065V5.33398H7.99998V4.00065H6.66665ZM9.33331 4.00065V5.33398H10.6666V4.00065H9.33331ZM1.33331 6.66732V8.00065H2.66665V6.66732H1.33331ZM3.99998 6.66732V8.00065H5.33331V6.66732H3.99998ZM6.66665 6.66732V8.00065H7.99998V6.66732H6.66665ZM9.33331 6.66732V8.00065H10.6666V6.66732H9.33331ZM7.99998 5.33398V6.66732H9.33331V5.33398H7.99998ZM5.33331 5.33398V6.66732H6.66665V5.33398H5.33331ZM2.66665 5.33398V6.66732H3.99998V5.33398H2.66665Z" fill="white"/>
</g>
<defs>
<clipPath id="clip0_1475_8080">
<rect width="20" height="20" rx="10" fill="white"/>
</clipPath>
</defs>
</svg>
