<svg width="20" height="21" viewBox="0 0 20 21" fill="none" xmlns="http://www.w3.org/2000/svg">
<path d="M16.6666 7.37435V15.4993C16.6666 17.9993 15.175 18.8327 13.3333 18.8327H6.66665C4.82498 18.8327 3.33331 17.9993 3.33331 15.4993V7.37435C3.33331 4.66602 4.82498 4.04102 6.66665 4.04102C6.66665 4.55768 6.87496 5.02435 7.21662 5.36601C7.55829 5.70768 8.02498 5.91602 8.54165 5.91602H11.4583C12.4916 5.91602 13.3333 5.07435 13.3333 4.04102C15.175 4.04102 16.6666 4.66602 16.6666 7.37435Z" stroke="currentColor" stroke-width="1.5" stroke-linecap="round" stroke-linejoin="round"/>
<path d="M13.3334 4.04102C13.3334 5.07435 12.4917 5.91602 11.4584 5.91602H8.54169C8.02502 5.91602 7.55833 5.70768 7.21666 5.36601C6.875 5.02435 6.66669 4.55768 6.66669 4.04102C6.66669 3.00768 7.50835 2.16602 8.54169 2.16602H11.4584C11.975 2.16602 12.4417 2.37435 12.7834 2.71602C13.125 3.05769 13.3334 3.52435 13.3334 4.04102Z" stroke="currentColor" stroke-width="1.5" stroke-linecap="round" stroke-linejoin="round"/>
<path d="M6.66669 11.334H10" stroke="currentColor" stroke-width="1.5" stroke-linecap="round" stroke-linejoin="round"/>
<path d="M6.66669 14.666H13.3334" stroke="currentColor" stroke-width="1.5" stroke-linecap="round" stroke-linejoin="round"/>
</svg>
