<svg width="138" height="123" viewBox="0 0 138 123" fill="none" xmlns="http://www.w3.org/2000/svg">
    <circle cx="70" cy="60.0005" r="41.8462" fill="#F3F4F7" />
    <circle cx="26.0616" cy="28.6153" r="4.18462" fill="#F2F4F7" />
    <circle cx="116.031" cy="84.0613" r="3.13846" fill="#F2F4F7" />
    <circle cx="25.5384" cy="90.3382" r="5.23077" fill="#F2F4F7" />
    <circle cx="122.308" cy="38.0306" r="5.23077" fill="#F2F4F7" />
    <circle cx="112.369" cy="23.9076" r="3.66154" fill="#F2F4F7" />
    <g filter="url(#filter0_dd_1239_34740)">
        <path
            d="M44.0689 82.0663L66.9568 71.3935C69.5902 70.1655 70.7296 67.0352 69.5016 64.4017L54.3594 31.9292L43.3877 27.9358L23.2141 37.3429C20.5806 38.5709 19.4413 41.7012 20.6693 44.3347L37.0771 79.5215C38.3051 82.1549 41.4355 83.2943 44.0689 82.0663Z"
            fill="url(#paint0_linear_1239_34740)" />
        <path d="M43.3875 27.9355L54.3592 31.9289L46.8766 35.4181L43.3875 27.9355Z" fill="#D0D5DD" />
    </g>
    <g filter="url(#filter1_dd_1239_34740)">
        <path
            d="M57.4192 73.7774H82.6731C85.5788 73.7774 87.9344 71.4219 87.9344 68.5162V32.6868L79.6783 24.4307H57.4192C54.5135 24.4307 52.158 26.7862 52.158 29.6919V68.5162C52.158 71.4219 54.5135 73.7774 57.4192 73.7774Z"
            fill="url(#paint1_linear_1239_34740)" />
        <path d="M79.6782 24.4307L87.9343 32.6868H79.6782V24.4307Z" fill="#D0D5DD" />
    </g>
    <g filter="url(#filter2_dd_1239_34740)">
        <path
            d="M72.7506 71.3775L95.6384 82.0503C98.2719 83.2783 101.402 82.1389 102.63 79.5055L117.772 47.033L113.779 36.0612L93.6055 26.6542C90.972 25.4262 87.8417 26.5655 86.6137 29.199L70.2058 64.3857C68.9778 67.0192 70.1172 70.1495 72.7506 71.3775Z"
            fill="url(#paint2_linear_1239_34740)" />
        <path d="M113.779 36.0615L117.772 47.0333L110.29 43.5441L113.779 36.0615Z" fill="#D0D5DD" />
    </g>
    <g filter="url(#filter3_b_1239_34740)">
        <rect x="55.3538" y="64.1846" width="29.2923" height="29.2923" rx="14.6462"
            fill="currentColor" />
        <g clip-path="url(#clip0_1239_34740)">
            <path fill-rule="evenodd" clip-rule="evenodd"
                d="M67.9637 72.7332C68.7933 72.7026 69.6191 72.8606 70.3789 73.1951C71.1387 73.5296 71.8128 74.032 72.3505 74.6645C72.7847 75.1753 73.1208 75.7601 73.3436 76.3895H73.6615C74.4749 76.3901 75.2655 76.6615 75.9076 77.161C76.5497 77.6605 77.0072 78.3595 77.2078 79.1479C77.4085 79.9363 77.3409 80.769 77.0157 81.5147C76.6906 82.2604 76.1263 82.8765 75.4121 83.2659C75.1162 83.4272 74.7455 83.3181 74.5842 83.0222C74.4228 82.7263 74.5319 82.3556 74.8279 82.1943C75.304 81.9347 75.6802 81.5239 75.897 81.0268C76.1138 80.5297 76.1588 79.9745 76.025 79.449C75.8913 78.9234 75.5863 78.4573 75.1582 78.1243C74.7301 77.7914 74.2034 77.6104 73.661 77.61H72.8925C72.6143 77.61 72.3713 77.4219 72.3017 77.1525C72.1401 76.5274 71.8388 75.947 71.4206 75.455C71.0024 74.9631 70.4781 74.5723 69.8871 74.3121C69.2961 74.0519 68.6539 73.9291 68.0086 73.9529C67.3633 73.9767 66.7318 74.1464 66.1616 74.4494C65.5914 74.7523 65.0973 75.1806 64.7164 75.702C64.3355 76.2235 64.0778 76.8244 63.9626 77.4598C63.8474 78.0951 63.8778 78.7483 64.0514 79.3703C64.225 79.9922 64.5373 80.5667 64.9649 81.0506C65.1881 81.3031 65.1643 81.6888 64.9117 81.9119C64.6592 82.1351 64.2735 82.1113 64.0503 81.8588C63.5006 81.2367 63.099 80.498 62.8758 79.6984C62.6526 78.8988 62.6136 78.0589 62.7617 77.2421C62.9098 76.4252 63.2411 75.6525 63.7308 74.9821C64.2205 74.3117 64.8558 73.7611 65.589 73.3715C66.3221 72.982 67.134 72.7638 67.9637 72.7332ZM69.5684 78.399C69.8067 78.1607 70.1931 78.1607 70.4314 78.399L72.8725 80.8401C73.1108 81.0784 73.1108 81.4648 72.8725 81.7031C72.6341 81.9414 72.2477 81.9414 72.0094 81.7031L70.6102 80.3038V84.3229C70.6102 84.6599 70.337 84.9331 69.9999 84.9331C69.6629 84.9331 69.3897 84.6599 69.3897 84.3229V80.3038L67.9904 81.7031C67.7521 81.9414 67.3657 81.9414 67.1274 81.7031C66.8891 81.4648 66.8891 81.0784 67.1274 80.8401L69.5684 78.399Z"
                fill="white" />
        </g>
    </g>
    <defs>
        <filter id="filter0_dd_1239_34740" x="-1.5542" y="24.4463" width="93.2793" height="99.8438"
            filterUnits="userSpaceOnUse" color-interpolation-filters="sRGB">
            <feFlood flood-opacity="0" result="BackgroundImageFix" />
            <feColorMatrix in="SourceAlpha" type="matrix"
                values="0 0 0 0 0 0 0 0 0 0 0 0 0 0 0 0 0 0 127 0" result="hardAlpha" />
            <feMorphology radius="4" operator="erode" in="SourceAlpha"
                result="effect1_dropShadow_1239_34740" />
            <feOffset dy="8" />
            <feGaussianBlur stdDeviation="4" />
            <feColorMatrix type="matrix"
                values="0 0 0 0 0.0627451 0 0 0 0 0.0941176 0 0 0 0 0.156863 0 0 0 0.03 0" />
            <feBlend mode="normal" in2="BackgroundImageFix" result="effect1_dropShadow_1239_34740" />
            <feColorMatrix in="SourceAlpha" type="matrix"
                values="0 0 0 0 0 0 0 0 0 0 0 0 0 0 0 0 0 0 127 0" result="hardAlpha" />
            <feMorphology radius="4" operator="erode" in="SourceAlpha"
                result="effect2_dropShadow_1239_34740" />
            <feOffset dy="20" />
            <feGaussianBlur stdDeviation="12" />
            <feColorMatrix type="matrix"
                values="0 0 0 0 0.0627451 0 0 0 0 0.0941176 0 0 0 0 0.156863 0 0 0 0.08 0" />
            <feBlend mode="normal" in2="effect1_dropShadow_1239_34740"
                result="effect2_dropShadow_1239_34740" />
            <feBlend mode="normal" in="SourceGraphic" in2="effect2_dropShadow_1239_34740"
                result="shape" />
        </filter>
        <filter id="filter1_dd_1239_34740" x="32.158" y="24.4307" width="75.7764" height="89.3467"
            filterUnits="userSpaceOnUse" color-interpolation-filters="sRGB">
            <feFlood flood-opacity="0" result="BackgroundImageFix" />
            <feColorMatrix in="SourceAlpha" type="matrix"
                values="0 0 0 0 0 0 0 0 0 0 0 0 0 0 0 0 0 0 127 0" result="hardAlpha" />
            <feMorphology radius="4" operator="erode" in="SourceAlpha"
                result="effect1_dropShadow_1239_34740" />
            <feOffset dy="8" />
            <feGaussianBlur stdDeviation="4" />
            <feColorMatrix type="matrix"
                values="0 0 0 0 0.0627451 0 0 0 0 0.0941176 0 0 0 0 0.156863 0 0 0 0.03 0" />
            <feBlend mode="normal" in2="BackgroundImageFix" result="effect1_dropShadow_1239_34740" />
            <feColorMatrix in="SourceAlpha" type="matrix"
                values="0 0 0 0 0 0 0 0 0 0 0 0 0 0 0 0 0 0 127 0" result="hardAlpha" />
            <feMorphology radius="4" operator="erode" in="SourceAlpha"
                result="effect2_dropShadow_1239_34740" />
            <feOffset dy="20" />
            <feGaussianBlur stdDeviation="12" />
            <feColorMatrix type="matrix"
                values="0 0 0 0 0.0627451 0 0 0 0 0.0941176 0 0 0 0 0.156863 0 0 0 0.08 0" />
            <feBlend mode="normal" in2="effect1_dropShadow_1239_34740"
                result="effect2_dropShadow_1239_34740" />
            <feBlend mode="normal" in="SourceGraphic" in2="effect2_dropShadow_1239_34740"
                result="shape" />
        </filter>
        <filter id="filter2_dd_1239_34740" x="47.9824" y="24.4307" width="93.2791" height="99.8428"
            filterUnits="userSpaceOnUse" color-interpolation-filters="sRGB">
            <feFlood flood-opacity="0" result="BackgroundImageFix" />
            <feColorMatrix in="SourceAlpha" type="matrix"
                values="0 0 0 0 0 0 0 0 0 0 0 0 0 0 0 0 0 0 127 0" result="hardAlpha" />
            <feMorphology radius="4" operator="erode" in="SourceAlpha"
                result="effect1_dropShadow_1239_34740" />
            <feOffset dy="8" />
            <feGaussianBlur stdDeviation="4" />
            <feColorMatrix type="matrix"
                values="0 0 0 0 0.0627451 0 0 0 0 0.0941176 0 0 0 0 0.156863 0 0 0 0.03 0" />
            <feBlend mode="normal" in2="BackgroundImageFix" result="effect1_dropShadow_1239_34740" />
            <feColorMatrix in="SourceAlpha" type="matrix"
                values="0 0 0 0 0 0 0 0 0 0 0 0 0 0 0 0 0 0 127 0" result="hardAlpha" />
            <feMorphology radius="4" operator="erode" in="SourceAlpha"
                result="effect2_dropShadow_1239_34740" />
            <feOffset dy="20" />
            <feGaussianBlur stdDeviation="12" />
            <feColorMatrix type="matrix"
                values="0 0 0 0 0.0627451 0 0 0 0 0.0941176 0 0 0 0 0.156863 0 0 0 0.08 0" />
            <feBlend mode="normal" in2="effect1_dropShadow_1239_34740"
                result="effect2_dropShadow_1239_34740" />
            <feBlend mode="normal" in="SourceGraphic" in2="effect2_dropShadow_1239_34740"
                result="shape" />
        </filter>
        <filter id="filter3_b_1239_34740" x="47.3538" y="56.1846" width="45.2922" height="45.292"
            filterUnits="userSpaceOnUse" color-interpolation-filters="sRGB">
            <feFlood flood-opacity="0" result="BackgroundImageFix" />
            <feGaussianBlur in="BackgroundImageFix" stdDeviation="4" />
            <feComposite in2="SourceAlpha" operator="in" result="effect1_backgroundBlur_1239_34740" />
            <feBlend mode="normal" in="SourceGraphic" in2="effect1_backgroundBlur_1239_34740"
                result="shape" />
        </filter>
        <linearGradient id="paint0_linear_1239_34740" x1="40.183" y1="83.2338" x2="18.3186"
            y2="43.7888" gradientUnits="userSpaceOnUse">
            <stop stop-color="#E4E7EC" />
            <stop offset="1" stop-color="#F9FAFB" />
        </linearGradient>
        <linearGradient id="paint1_linear_1239_34740" x1="53.4039" y1="73.1933" x2="50.2582"
            y2="28.2037" gradientUnits="userSpaceOnUse">
            <stop stop-color="#E4E7EC" />
            <stop offset="1" stop-color="#F9FAFB" />
        </linearGradient>
        <linearGradient id="paint2_linear_1239_34740" x1="69.3584" y1="69.1512" x2="85.5208"
            y2="27.0473" gradientUnits="userSpaceOnUse">
            <stop stop-color="#E4E7EC" />
            <stop offset="1" stop-color="#F9FAFB" />
        </linearGradient>
        <clipPath id="clip0_1239_34740">
            <rect width="14.6462" height="14.6462" fill="white"
                transform="translate(62.6768 71.5078)" />
        </clipPath>
    </defs>
</svg>