<svg width="31" height="31" viewBox="0 0 31 31" fill="none" xmlns="http://www.w3.org/2000/svg">
<path fill-rule="evenodd" clip-rule="evenodd" d="M2.58334 15.5C2.58334 8.36636 8.36632 2.58337 15.5 2.58337C18.9257 2.58337 22.2111 3.94423 24.6335 6.36658C27.0558 8.78892 28.4167 12.0743 28.4167 15.5C28.4167 22.6337 22.6337 28.4167 15.5 28.4167C8.36632 28.4167 2.58334 22.6337 2.58334 15.5ZM15.1513 20.163L21.0542 12.413V12.3742C21.3357 12.005 21.3988 11.5137 21.2199 11.0854C21.0409 10.657 20.647 10.3566 20.1865 10.2974C19.7261 10.2382 19.269 10.4292 18.9875 10.7984L14.105 17.2567L11.9996 14.57C11.7158 14.2055 11.259 14.02 10.8014 14.0835C10.3438 14.147 9.95483 14.4498 9.78101 14.8779C9.60719 15.306 9.67495 15.7942 9.95875 16.1588L13.1104 20.1759C13.3569 20.4878 13.7333 20.6688 14.1308 20.6667C14.5306 20.6657 14.9074 20.4797 15.1513 20.163Z" fill="currentColor"/>
</svg>
