<svg width="100" height="100" viewBox="0 0 100 100" fill="none" xmlns="http://www.w3.org/2000/svg">
<rect x="0.588257" y="0.587891" width="98.8235" height="98.8235" rx="49.4118" fill="#EAF6EC"/>
<path d="M70.5883 47.0587V41.1764H47.0588V29.4117H41.1765V41.1764H29.4118V47.0587H41.1765V70.5881H47.0588V47.0587H70.5883ZM70.5883 23.5293C72.0588 23.5293 73.5294 24.1175 74.6765 25.3234C75.8824 26.4705 76.4706 27.9411 76.4706 29.4117V70.5881C76.4706 72.0587 75.8824 73.5293 74.6765 74.6764C73.5294 75.8822 72.0588 76.4705 70.5883 76.4705H29.4118C27.9412 76.4705 26.4706 75.8822 25.3235 74.6764C24.1177 73.5293 23.5294 72.0587 23.5294 70.5881V29.4117C23.5294 27.9411 24.1177 26.4705 25.3235 25.3234C26.4706 24.1175 27.9412 23.5293 29.4118 23.5293H70.5883Z" fill="#32A344"/>
</svg>
