<svg width="18" height="19" viewBox="0 0 18 19" fill="none" xmlns="http://www.w3.org/2000/svg">
<path d="M8.99999 5.29618V3.8147M8.99999 5.29618C8.60708 5.29618 8.23026 5.45226 7.95243 5.73009C7.6746 6.00793 7.51851 6.38475 7.51851 6.77766C7.51851 7.17057 7.6746 7.54739 7.95243 7.82523C8.23026 8.10306 8.60708 8.25914 8.99999 8.25914M8.99999 5.29618C9.39291 5.29618 9.76973 5.45226 10.0476 5.73009C10.3254 6.00793 10.4815 6.38475 10.4815 6.77766C10.4815 7.17057 10.3254 7.54739 10.0476 7.82523C9.76973 8.10306 9.39291 8.25914 8.99999 8.25914M8.99999 8.25914V15.6665M4.55555 14.1851C4.94846 14.1851 5.32528 14.029 5.60311 13.7512C5.88095 13.4733 6.03703 13.0965 6.03703 12.7036C6.03703 12.3107 5.88095 11.9339 5.60311 11.656C5.32528 11.3782 4.94846 11.2221 4.55555 11.2221M4.55555 14.1851C4.16263 14.1851 3.78581 14.029 3.50798 13.7512C3.23015 13.4733 3.07407 13.0965 3.07407 12.7036C3.07407 12.3107 3.23015 11.9339 3.50798 11.656C3.78581 11.3782 4.16263 11.2221 4.55555 11.2221M4.55555 14.1851V15.6665M4.55555 11.2221V3.8147M13.4444 14.1851C13.8374 14.1851 14.2142 14.029 14.492 13.7512C14.7698 13.4733 14.9259 13.0965 14.9259 12.7036C14.9259 12.3107 14.7698 11.9339 14.492 11.656C14.2142 11.3782 13.8374 11.2221 13.4444 11.2221M13.4444 14.1851C13.0515 14.1851 12.6747 14.029 12.3969 13.7512C12.119 13.4733 11.963 13.0965 11.963 12.7036C11.963 12.3107 12.119 11.9339 12.3969 11.656C12.6747 11.3782 13.0515 11.2221 13.4444 11.2221M13.4444 14.1851V15.6665M13.4444 11.2221V3.8147" fill="currentColor" stroke="#666666" stroke-width="1.5" stroke-linecap="round" stroke-linejoin="round"/>
</svg>
