<svg width="27" height="27" viewBox="0 0 27 27" fill="none" xmlns="http://www.w3.org/2000/svg">
<circle cx="13.5" cy="13.5" r="13.5" fill="#FFDF8D" fill-opacity="0.66"/>
<circle cx="13.5" cy="13.5" r="9.5" fill="#FFC93F"/>
<path d="M6.41347 13.7796L13.2051 20.5702C13.2425 20.6075 13.2879 20.6373 13.3385 20.6577C13.3891 20.6781 13.4437 20.6887 13.4989 20.6887C13.5541 20.6887 13.6087 20.6781 13.6593 20.6577C13.7099 20.6373 13.7553 20.6075 13.7927 20.5702L20.5843 13.7796C20.647 13.7171 20.6841 13.6366 20.6894 13.5517C20.6946 13.4669 20.6676 13.383 20.6131 13.3145L17.9261 9.9397C17.8889 9.89414 17.8407 9.85716 17.7853 9.8317C17.7299 9.80623 17.6688 9.79297 17.6068 9.79297H9.39421C9.33224 9.79297 9.27113 9.80623 9.21571 9.8317C9.16028 9.85716 9.11208 9.89414 9.0749 9.9397L6.38793 13.3145C6.33293 13.3827 6.30542 13.4664 6.31008 13.5512C6.31474 13.636 6.35128 13.7168 6.41347 13.7796ZM16.4589 13.8984H19.3805L14.5542 18.7243L16.4589 13.8984ZM13.4989 19.2467L11.3883 13.8984H15.6095L13.4989 19.2467ZM13.4989 10.7731L15.3956 13.1648H11.6022L13.4989 10.7731ZM10.9444 12.7525L10.0839 10.5163H12.715L10.9444 12.7525ZM14.2828 10.5163H16.9139L16.0534 12.7525L14.2828 10.5163ZM10.5373 13.8911L12.442 18.7185L7.61726 13.8984L10.5373 13.8911ZM19.5035 13.1575H16.7431L17.6419 10.8098L19.5035 13.1575ZM9.34791 10.823L10.2468 13.1707H7.49433L9.34791 10.823Z" fill="white"/>
<path d="M16.0532 7.49738L15.3332 8.15912C15.2912 8.19184 15.2571 8.23218 15.233 8.27759C15.2088 8.32301 15.1951 8.37252 15.1927 8.42303C15.1904 8.47353 15.1994 8.52394 15.2193 8.57109C15.2391 8.61823 15.2694 8.6611 15.3081 8.697C15.3468 8.7329 15.3932 8.76105 15.4443 8.77969C15.4955 8.79833 15.5502 8.80706 15.6052 8.80533C15.6602 8.80359 15.7142 8.79144 15.7638 8.76962C15.8134 8.7478 15.8576 8.71679 15.8935 8.67854L16.6136 8.01679C16.6793 7.94688 16.7139 7.85674 16.7105 7.7644C16.707 7.67206 16.6658 7.58431 16.595 7.5187C16.5242 7.45309 16.4291 7.41445 16.3286 7.41049C16.2282 7.40654 16.1298 7.43757 16.0532 7.49738Z" fill="white"/>
<path d="M10.3878 7.49086C10.3506 7.52493 10.3211 7.56541 10.301 7.60998C10.2809 7.65454 10.2705 7.70232 10.2705 7.75057C10.2705 7.79882 10.2809 7.84659 10.301 7.89116C10.3211 7.93572 10.3506 7.9762 10.3878 8.01028L11.1046 8.67202C11.1417 8.70613 11.1858 8.73318 11.2343 8.75164C11.2828 8.7701 11.3347 8.7796 11.3872 8.7796C11.4397 8.7796 11.4916 8.7701 11.5401 8.75164C11.5886 8.73318 11.6327 8.70613 11.6698 8.67202C11.7069 8.63792 11.7363 8.59743 11.7564 8.55287C11.7765 8.50831 11.7868 8.46055 11.7868 8.41231C11.7868 8.36408 11.7765 8.31632 11.7564 8.27176C11.7363 8.2272 11.7069 8.18671 11.6698 8.1526L10.945 7.49086C10.8704 7.42409 10.7705 7.38672 10.6664 7.38672C10.5623 7.38672 10.4623 7.42409 10.3878 7.49086Z" fill="white"/>
<path d="M13.1001 6.67541V7.61154C13.1001 7.70883 13.1421 7.80213 13.217 7.87092C13.2919 7.93972 13.3934 7.97836 13.4992 7.97836C13.6051 7.97836 13.7066 7.93972 13.7815 7.87092C13.8563 7.80213 13.8984 7.70883 13.8984 7.61154V6.67541C13.8984 6.57813 13.8563 6.48483 13.7815 6.41603C13.7066 6.34724 13.6051 6.30859 13.4992 6.30859C13.3934 6.30859 13.2919 6.34724 13.217 6.41603C13.1421 6.48483 13.1001 6.57813 13.1001 6.67541Z" fill="white"/>
</svg>
