<svg
  xmlns="http://www.w3.org/2000/svg"
  width="13"
  height="13"
  fill="currentColor"
  className="w-full h-full"
>
  <g data-name="Group 45091">
    <path
      data-name="Path 53252"
      d="M6.157 8.237a.487.487 0 0 0 .68 0l1.706-1.665a.488.488 0 1 0-.68-.7l-.877.855V3.011a.487.487 0 1 0-.975 0V6.73l-.877-.855a.488.488 0 0 0-.68.7Z"
    />
    <path
      data-name="Path 53253"
      d="M9.239 7.309a.487.487 0 0 0-.487.487v.487a.668.668 0 0 1-.668.665H4.913a.668.668 0 0 1-.668-.668v-.487a.487.487 0 1 0-.975 0v.487a1.645 1.645 0 0 0 1.643 1.645h3.168a1.645 1.645 0 0 0 1.643-1.643v-.487a.487.487 0 0 0-.485-.486Z"
    />
    <path
      data-name="Path 53254"
      d="M6.5 0A6.5 6.5 0 1 0 13 6.5 6.5 6.5 0 0 0 6.5 0Zm0 12.1a5.6 5.6 0 1 1 5.6-5.6 5.6 5.6 0 0 1-5.6 5.6Z"
    />
  </g>
</svg>
