<svg width="29" height="29" viewBox="0 0 29 29" fill="none" xmlns="http://www.w3.org/2000/svg">
<path d="M23.8525 8.85714L18.4875 2.81547C18.3745 2.6903 18.2366 2.59015 18.0826 2.52148C17.9286 2.4528 17.7619 2.41712 17.5933 2.41672H7.92665C7.52518 2.41193 7.1267 2.48627 6.75396 2.6355C6.38122 2.78472 6.04153 3.00591 5.75428 3.28642C5.46703 3.56694 5.23786 3.90129 5.07983 4.27039C4.92181 4.63948 4.83805 5.03608 4.83331 5.43755V23.5626C4.83805 23.964 4.92181 24.3606 5.07983 24.7297C5.23786 25.0988 5.46703 25.4332 5.75428 25.7137C6.04153 25.9942 6.38122 26.2154 6.75396 26.3646C7.1267 26.5138 7.52518 26.5882 7.92665 26.5834H21.0733C21.4748 26.5882 21.8733 26.5138 22.246 26.3646C22.6187 26.2154 22.9584 25.9942 23.2457 25.7137C23.5329 25.4332 23.7621 25.0988 23.9201 24.7297C24.0781 24.3606 24.1619 23.964 24.1666 23.5626V9.66672C24.1659 9.36725 24.0539 9.07874 23.8525 8.85714ZM16.9166 4.83339L21.4358 9.66672H17.8108C17.6843 9.65908 17.5605 9.62632 17.4468 9.57033C17.3331 9.51435 17.2316 9.43628 17.1484 9.34067C17.0651 9.24506 17.0018 9.13383 16.962 9.01346C16.9222 8.8931 16.9068 8.76602 16.9166 8.63964V4.83339Z" fill="currentColor"/>
</svg>
