<svg width="16" height="16" viewBox="0 0 16 16" fill="none" xmlns="http://www.w3.org/2000/svg">
<path d="M8.00242 10.4992C8.79 10.4992 9.45879 10.2236 10.0088 9.67227C10.5588 9.12097 10.8338 8.45152 10.8338 7.66394C10.8338 6.87636 10.5581 6.20757 10.0068 5.65757C9.45552 5.10757 8.78608 4.83257 7.99849 4.83257C7.21091 4.83257 6.54212 5.10822 5.99212 5.65954C5.44212 6.21084 5.16712 6.88028 5.16712 7.66787C5.16712 8.45545 5.44278 9.12424 5.99409 9.67424C6.54539 10.2242 7.21483 10.4992 8.00242 10.4992ZM7.99875 9.38184C7.52163 9.38184 7.11664 9.21484 6.78379 8.88085C6.45094 8.54687 6.28452 8.14132 6.28452 7.6642C6.28452 7.18708 6.45152 6.78209 6.7855 6.44924C7.11948 6.11639 7.52503 5.94997 8.00215 5.94997C8.47928 5.94997 8.88427 6.11696 9.21712 6.45095C9.54997 6.78493 9.71639 7.19048 9.71639 7.6676C9.71639 8.14472 9.54939 8.54971 9.2154 8.88257C8.88143 9.21541 8.47588 9.38184 7.99875 9.38184ZM8.00045 12.8826C6.42944 12.8826 4.99925 12.4534 3.70987 11.5949C2.42049 10.7364 1.4196 9.60776 0.707204 8.20884C0.667237 8.14117 0.637038 8.05776 0.616604 7.9586C0.59616 7.85946 0.585938 7.7614 0.585938 7.66442C0.585938 7.56745 0.59616 7.46939 0.616604 7.37024C0.637049 7.27109 0.667254 7.18553 0.707221 7.11355C1.41949 5.72279 2.42033 4.5977 3.70975 3.7383C4.99921 2.87891 6.42944 2.44922 8.00045 2.44922C9.57147 2.44922 11.0017 2.87891 12.2911 3.7383C13.5806 4.5977 14.5814 5.72279 15.2937 7.11355C15.3337 7.18553 15.3639 7.27109 15.3843 7.37024C15.4047 7.46939 15.415 7.56745 15.415 7.66442C15.415 7.7614 15.4047 7.85946 15.3843 7.9586C15.3639 8.05776 15.3337 8.14117 15.2937 8.20884C14.5813 9.60776 13.5804 10.7364 12.291 11.5949C11.0017 12.4534 9.57147 12.8826 8.00045 12.8826ZM7.99849 11.6659C9.34031 11.6659 10.573 11.302 11.6964 10.5742C12.8199 9.84646 13.6761 8.87701 14.265 7.6659C13.6761 6.45479 12.8205 5.48535 11.6984 4.75757C10.5762 4.02979 9.34425 3.6659 8.00242 3.6659C6.6606 3.6659 5.42795 4.02979 4.30449 4.75757C3.18102 5.48535 2.31929 6.45479 1.71929 7.6659C2.31929 8.87701 3.18037 9.84646 4.30252 10.5742C5.42467 11.302 6.65665 11.6659 7.99849 11.6659Z" fill="currentColor"/>
</svg>
