<svg width="20" height="21" viewBox="0 0 20 21" fill="none" xmlns="http://www.w3.org/2000/svg">
<path d="M17.7778 9.38889V7.16667H8.88889V2.72222H6.66667V7.16667H2.22222V9.38889H6.66667V18.2778H8.88889V9.38889H17.7778ZM17.7778 0.5C18.3333 0.5 18.8889 0.722222 19.3222 1.17778C19.7778 1.61111 20 2.16667 20 2.72222V18.2778C20 18.8333 19.7778 19.3889 19.3222 19.8222C18.8889 20.2778 18.3333 20.5 17.7778 20.5H2.22222C1.66667 20.5 1.11111 20.2778 0.677778 19.8222C0.222222 19.3889 0 18.8333 0 18.2778V2.72222C0 2.16667 0.222222 1.61111 0.677778 1.17778C1.11111 0.722222 1.66667 0.5 2.22222 0.5H17.7778Z" fill="#32A344"/>
</svg>
