<svg width="24" height="24" viewBox="0 0 24 24" fill="none" xmlns="http://www.w3.org/2000/svg">
<mask id="mask0_1239_23437" style="mask-type:luminance" maskUnits="userSpaceOnUse" x="3" y="2" width="18" height="20">
<path fill-rule="evenodd" clip-rule="evenodd" d="M3.00024 2.01172H20.0524V21.8652H3.00024V2.01172Z" fill="white"/>
</mask>
<g mask="url(#mask0_1239_23437)">
<path fill-rule="evenodd" clip-rule="evenodd" d="M7.57331 3.51172C5.91631 3.51172 4.54031 4.85372 4.50131 6.50872V17.2277C4.46531 18.9287 5.80531 20.3287 7.49031 20.3657H15.5733C17.2423 20.3057 18.5633 18.9287 18.5523 17.2327V8.33972L13.9183 3.51172H7.58531H7.57331ZM7.58531 21.8657H7.45931C4.94731 21.8117 2.94731 19.7237 3.00131 17.2117V6.49072C3.06031 4.00972 5.10831 2.01172 7.57031 2.01172H7.58831H14.2373C14.4413 2.01172 14.6363 2.09472 14.7783 2.24172L19.8443 7.51872C19.9773 7.65772 20.0523 7.84472 20.0523 8.03772V17.2277C20.0683 19.7367 18.1123 21.7757 15.5993 21.8657H7.58531Z" fill="#4F4F4F"/>
</g>
<path fill-rule="evenodd" clip-rule="evenodd" d="M19.2979 8.98449H16.5439C14.7129 8.97949 13.2259 7.48749 13.2259 5.65949V2.75049C13.2259 2.33649 13.5619 2.00049 13.9759 2.00049C14.3899 2.00049 14.7259 2.33649 14.7259 2.75049V5.65949C14.7259 6.66349 15.5419 7.48149 16.5459 7.48449H19.2979C19.7119 7.48449 20.0479 7.82049 20.0479 8.23449C20.0479 8.64849 19.7119 8.98449 19.2979 8.98449Z" fill="#4F4F4F"/>
<path fill-rule="evenodd" clip-rule="evenodd" d="M11.1427 16.7002C10.7287 16.7002 10.3927 16.3642 10.3927 15.9502V9.90918C10.3927 9.49518 10.7287 9.15918 11.1427 9.15918C11.5567 9.15918 11.8927 9.49518 11.8927 9.90918V15.9502C11.8927 16.3642 11.5567 16.7002 11.1427 16.7002Z" fill="#4F4F4F"/>
<path fill-rule="evenodd" clip-rule="evenodd" d="M11.1417 16.6995C10.9427 16.6995 10.7507 16.6205 10.6107 16.4785L8.26571 14.1245C7.97371 13.8305 7.97471 13.3555 8.26771 13.0635C8.56171 12.7715 9.03671 12.7715 9.32871 13.0655L11.1417 14.8875L12.9547 13.0655C13.2467 12.7715 13.7217 12.7715 14.0157 13.0635C14.3087 13.3555 14.3097 13.8305 14.0177 14.1245L11.6727 16.4785C11.5327 16.6205 11.3407 16.6995 11.1417 16.6995Z" fill="#4F4F4F"/>
</svg>
