<svg width="18" height="17" viewBox="0 0 18 17" fill="none" xmlns="http://www.w3.org/2000/svg">
<path 
    d="M12.5669 10.0111C12.9606 10.0111 13.311 9.85764 13.6181 9.55069C13.9252 9.24375 14.0787 8.88958 14.0787 8.48819C14.0787 8.08681 13.9252 7.73657 13.6181 7.4375C13.311 7.13843 12.9606 6.98889 12.5669 6.98889C12.1732 6.98889 11.8228 7.13843 11.5157 7.4375C11.2087 7.73657 11.0551 8.08681 11.0551 8.48819C11.0551 8.88958 11.2087 9.24375 11.5157 9.55069C11.8228 9.85764 12.1732 10.0111 12.5669 10.0111ZM1.41732 14.3319V15.5833V1.41667V14.3319ZM1.41732 17C1.05512 17 0.728346 16.8583 0.437008 16.575C0.145669 16.2917 0 15.9611 0 15.5833V1.41667C0 1.05463 0.145669 0.728009 0.437008 0.436806C0.728346 0.145602 1.05512 0 1.41732 0H15.5906C15.9685 0 16.2992 0.145602 16.5827 0.436806C16.8661 0.728009 17.0079 1.05463 17.0079 1.41667V4.58056H15.5906V1.41667H1.41732V15.5833H15.5906V12.4431H17.0079V15.5833C17.0079 15.9611 16.8661 16.2917 16.5827 16.575C16.2992 16.8583 15.9685 17 15.5906 17H1.41732ZM9.87402 12.9153C9.33858 12.9153 8.91339 12.7579 8.59842 12.4431C8.28346 12.1282 8.12598 11.7111 8.12598 11.1917V5.83194C8.12598 5.29676 8.28346 4.87569 8.59842 4.56875C8.91339 4.26181 9.33858 4.10833 9.87402 4.10833H16.252C16.7874 4.10833 17.2126 4.26181 17.5276 4.56875C17.8425 4.87569 18 5.29676 18 5.83194V11.1917C18 11.7111 17.8425 12.1282 17.5276 12.4431C17.2126 12.7579 16.7874 12.9153 16.252 12.9153H9.87402Z" 
    fill="currentColor"
/>
</svg>
