<svg width="20" height="20" viewBox="0 0 20 20" fill="none" xmlns="http://www.w3.org/2000/svg" >
<path d="M4.16675 12.5C3.39018 12.5 3.00189 12.5 2.69561 12.3731C2.28723 12.204 1.96277 11.8795 1.79362 11.4711C1.66675 11.1649 1.66675 10.7766 1.66675 10V4.33334C1.66675 3.39992 1.66675 2.93321 1.8484 2.57669C2.00819 2.26308 2.26316 2.00812 2.57676 1.84833C2.93328 1.66667 3.39999 1.66667 4.33341 1.66667H10.0001C10.7767 1.66667 11.1649 1.66667 11.4712 1.79354C11.8796 1.9627 12.2041 2.28715 12.3732 2.69553C12.5001 3.00182 12.5001 3.3901 12.5001 4.16667M10.1667 18.3333H15.6667C16.6002 18.3333 17.0669 18.3333 17.4234 18.1517C17.737 17.9919 17.992 17.7369 18.1518 17.4233C18.3334 17.0668 18.3334 16.6001 18.3334 15.6667V10.1667C18.3334 9.23325 18.3334 8.76654 18.1518 8.41002C17.992 8.09642 17.737 7.84145 17.4234 7.68166C17.0669 7.50001 16.6002 7.50001 15.6667 7.50001H10.1667C9.23333 7.50001 8.76662 7.50001 8.4101 7.68166C8.09649 7.84145 7.84153 8.09642 7.68174 8.41002C7.50008 8.76654 7.50008 9.23325 7.50008 10.1667V15.6667C7.50008 16.6001 7.50008 17.0668 7.68174 17.4233C7.84153 17.7369 8.09649 17.9919 8.4101 18.1517C8.76662 18.3333 9.23333 18.3333 10.1667 18.3333Z" stroke="currentColor" stroke-width="1.66667" stroke-linecap="round" stroke-linejoin="round"/>
</svg>
