<svg width="31" height="31" viewBox="0 0 31 31" fill="none" xmlns="http://www.w3.org/2000/svg">
<path fill-rule="evenodd" clip-rule="evenodd" d="M2.58333 15.5C2.58333 8.36636 8.36632 2.58337 15.5 2.58337C18.9257 2.58337 22.2111 3.94423 24.6335 6.36658C27.0558 8.78892 28.4167 12.0743 28.4167 15.5C28.4167 22.6337 22.6337 28.4167 15.5 28.4167C8.36632 28.4167 2.58333 22.6337 2.58333 15.5ZM15.5 16.7917H20.6667C21.38 16.7917 21.9583 16.2134 21.9583 15.5C21.9583 14.7867 21.38 14.2084 20.6667 14.2084H16.7917V10.3334C16.7917 9.62001 16.2134 9.04171 15.5 9.04171C14.7866 9.04171 14.2083 9.62001 14.2083 10.3334V15.5C14.2083 16.2134 14.7866 16.7917 15.5 16.7917Z" fill="currentColor"/>
</svg>
