<svg width="46" height="46" viewBox="0 0 46 46" fill="none" xmlns="http://www.w3.org/2000/svg">
<rect x="3" y="3" width="40" height="40" rx="20" fill="#D1FADF"/>
<rect x="3" y="3" width="40" height="40" rx="20" stroke="#ECFDF3" stroke-width="6"/>
<g clip-path="url(#clip0_1476_25187)">
<path d="M20.4998 22.9993L22.1665 24.666L25.9165 20.916M19.1113 16.1816C19.7812 16.1281 20.4171 15.8647 20.9286 15.4289C22.1221 14.4117 23.8776 14.4117 25.0711 15.4289C25.5826 15.8647 26.2185 16.1281 26.8884 16.1816C28.4516 16.3063 29.6928 17.5476 29.8176 19.1108C29.871 19.7807 30.1345 20.4166 30.5703 20.9281C31.5875 22.1216 31.5875 23.8771 30.5703 25.0706C30.1345 25.5821 29.871 26.218 29.8176 26.8879C29.6928 28.4511 28.4516 29.6924 26.8884 29.8171C26.2185 29.8706 25.5826 30.134 25.0711 30.5698C23.8776 31.587 22.1221 31.587 20.9286 30.5698C20.4171 30.134 19.7812 29.8706 19.1113 29.8171C17.5481 29.6924 16.3068 28.4511 16.1821 26.8879C16.1286 26.218 15.8652 25.5821 15.4294 25.0706C14.4122 23.8771 14.4122 22.1216 15.4294 20.9281C15.8652 20.4166 16.1286 19.7807 16.1821 19.1108C16.3068 17.5476 17.5481 16.3063 19.1113 16.1816Z" stroke="#039855" stroke-width="1.66667" stroke-linecap="round" stroke-linejoin="round"/>
</g>
<defs>
<clipPath id="clip0_1476_25187">
<rect width="20" height="20" fill="white" transform="translate(13 13)"/>
</clipPath>
</defs>
</svg>
