<svg width="29" height="29" viewBox="0 0 29 29" fill="none" xmlns="http://www.w3.org/2000/svg">
<path fill-rule="evenodd" clip-rule="evenodd" d="M17.4933 5.36753L26.2764 20.6108C26.4697 21.0658 26.5543 21.4358 26.5785 21.8201C26.6268 22.7181 26.3127 23.591 25.6965 24.2627C25.0804 24.932 24.2468 25.3271 23.3407 25.375H5.65367C5.27914 25.3523 4.90462 25.2672 4.55427 25.1355C2.80248 24.4291 1.95679 22.4415 2.66958 20.7186L11.5131 5.35675C11.8151 4.81675 12.2742 4.35099 12.842 4.05166C14.4851 3.14048 16.5752 3.73915 17.4933 5.36753ZM15.5482 15.4132C15.5482 15.9879 15.0771 16.468 14.4972 16.468C13.9173 16.468 13.434 15.9879 13.434 15.4132V12.0259C13.434 11.45 13.9173 10.9842 14.4972 10.9842C15.0771 10.9842 15.5482 11.45 15.5482 12.0259V15.4132ZM14.4972 20.5629C13.9173 20.5629 13.434 20.0828 13.434 19.5093C13.434 18.9333 13.9173 18.4544 14.4972 18.4544C15.0771 18.4544 15.5482 18.9226 15.5482 19.4961C15.5482 20.0828 15.0771 20.5629 14.4972 20.5629Z" fill="currentColor"/>
</svg>
