<svg width="16" height="16" viewBox="0 0 16 16" fill="none" xmlns="http://www.w3.org/2000/svg">
<path d="M10.5309 8.89613L9.48665 7.86133C9.74414 7.24202 9.63968 6.74033 9.17325 6.35628C8.70683 5.97222 8.23281 5.89541 7.75119 6.12585L6.7729 5.13816C6.94924 5.03479 7.14465 4.95846 7.35914 4.90918C7.57363 4.8599 7.78739 4.83526 8.00044 4.83526C8.78933 4.83526 9.45877 5.11026 10.0088 5.66026C10.5588 6.21026 10.8338 6.87971 10.8338 7.6686C10.8338 7.87536 10.8079 8.09348 10.7562 8.32295C10.7045 8.55241 10.6294 8.74347 10.5309 8.89613ZM12.8599 11.244L12.0519 10.4266C12.5649 10.0328 13.0117 9.59661 13.3921 9.11786C13.7725 8.63913 14.0666 8.15604 14.2744 7.6686C13.7062 6.44154 12.8713 5.46811 11.7696 4.74831C10.6679 4.0285 9.4671 3.6686 8.1671 3.6686C7.70044 3.6686 7.23522 3.7099 6.77145 3.79251C6.30769 3.87512 5.95575 3.97126 5.71565 4.08091L4.76059 3.11858C5.14948 2.9408 5.65611 2.78525 6.2805 2.65191C6.9049 2.51858 7.50599 2.45191 8.08377 2.45191C9.59633 2.45191 11.0032 2.86617 12.3044 3.69468C13.6056 4.52318 14.6084 5.66327 15.3128 7.11496C15.3524 7.18936 15.3793 7.27487 15.3936 7.3715C15.4078 7.46812 15.4149 7.56715 15.4149 7.6686C15.4149 7.77004 15.4078 7.87185 15.3936 7.97403C15.3793 8.07621 15.3524 8.16135 15.3128 8.22946C15.0176 8.8343 14.662 9.39227 14.2461 9.90338C13.8302 10.4145 13.3681 10.8614 12.8599 11.244ZM13.1113 14.6157L10.8475 12.3925C10.4586 12.5481 10.0166 12.6691 9.52145 12.7556C9.02629 12.842 8.51928 12.8853 8.00044 12.8853C6.44826 12.8853 5.01915 12.4695 3.71312 11.6378C2.40708 10.8062 1.39874 9.6645 0.688121 8.2128C0.648499 8.13357 0.62156 8.04843 0.607304 7.95736C0.59306 7.8663 0.585938 7.77004 0.585938 7.6686C0.585938 7.56715 0.595837 7.46377 0.615637 7.35845C0.635449 7.25313 0.659604 7.16642 0.688104 7.0983C0.921437 6.61714 1.21552 6.14359 1.57035 5.67765C1.92519 5.21171 2.33763 4.76449 2.80767 4.33598L1.13304 2.66135C1.02048 2.55507 0.964204 2.42741 0.964204 2.27838C0.964204 2.12935 1.02048 2.00169 1.13304 1.89541C1.23932 1.78285 1.36975 1.72656 1.52434 1.72656C1.67894 1.72656 1.81252 1.78285 1.92507 1.89541L13.8867 13.857C13.9881 13.9585 14.0357 14.0809 14.0294 14.2244C14.0231 14.3679 13.9756 14.4928 13.8867 14.599C13.7852 14.7227 13.6572 14.7845 13.5026 14.7845C13.348 14.7845 13.2176 14.7283 13.1113 14.6157ZM3.65115 5.1773C3.24633 5.48985 2.86638 5.87645 2.5113 6.33708C2.15624 6.7977 1.89223 7.24154 1.71927 7.6686C2.29223 8.90193 3.14344 9.87693 4.2729 10.5936C5.40237 11.3103 6.68933 11.6686 8.13377 11.6686C8.46276 11.6686 8.79404 11.6495 9.1276 11.6113C9.46118 11.5732 9.71686 11.5097 9.89464 11.4208L8.82797 10.3541C8.72459 10.4034 8.595 10.4403 8.4392 10.465C8.2834 10.4896 8.13715 10.5019 8.00044 10.5019C7.22266 10.5019 6.55599 10.2297 6.00044 9.68526C5.44488 9.14082 5.1671 8.4686 5.1671 7.6686C5.1671 7.52705 5.17785 7.38237 5.19935 7.23455C5.22085 7.08671 5.2531 6.95555 5.29609 6.84106L3.65115 5.1773Z" fill="currentColor"/>
</svg>
