<svg width="56" height="56" viewBox="0 0 56 56" fill="none" xmlns="http://www.w3.org/2000/svg">
<mask id="mask0_1331_10986" style="mask-type:luminance" maskUnits="userSpaceOnUse" x="4" y="7" width="48" height="43">
<path fill-rule="evenodd" clip-rule="evenodd" d="M4.66675 7H51.3654V49.4328H4.66675V7Z" fill="white"/>
</mask>
<g mask="url(#mask0_1331_10986)">
<path fill-rule="evenodd" clip-rule="evenodd" d="M28.0295 10.5C26.9189 10.5 25.9295 11.074 25.3742 12.0377L8.57887 41.356C8.03287 42.3127 8.03754 43.4537 8.59054 44.408C9.14354 45.3623 10.1329 45.934 11.2365 45.934H44.7969C45.8982 45.934 46.8875 45.3623 47.4405 44.408C47.9959 43.4537 48.0005 42.3127 47.4499 41.356L30.6849 12.0377C30.1319 11.074 29.1425 10.5 28.0295 10.5ZM44.7968 49.434H11.2365C8.87047 49.434 6.74947 48.2113 5.5618 46.1627C4.37414 44.1163 4.36714 41.6687 5.5408 39.6177L22.3408 10.297C23.5215 8.232 25.6471 7 28.0295 7H28.0318C30.4118 7 32.5421 8.23433 33.7228 10.3017L50.4901 39.6177C51.6638 41.6687 51.6568 44.1163 50.4691 46.1627C49.2815 48.2113 47.1605 49.434 44.7968 49.434Z" fill="#FFC233"/>
</g>
<path fill-rule="evenodd" clip-rule="evenodd" d="M28.0093 33.0497C27.0433 33.0497 26.2593 32.2657 26.2593 31.2997V24.0664C26.2593 23.1004 27.0433 22.3164 28.0093 22.3164C28.9753 22.3164 29.7593 23.1004 29.7593 24.0664V31.2997C29.7593 32.2657 28.9753 33.0497 28.0093 33.0497Z" fill="#FFC233"/>
<path fill-rule="evenodd" clip-rule="evenodd" d="M28.0139 40.8307C26.7236 40.8307 25.6689 39.7877 25.6689 38.4974C25.6689 37.2071 26.7026 36.1641 27.9906 36.1641H28.0139C29.3043 36.1641 30.3473 37.2071 30.3473 38.4974C30.3473 39.7877 29.3043 40.8307 28.0139 40.8307Z" fill="#FFC233"/>
</svg>
