<svg width="18" height="23" viewBox="0 0 18 23" fill="none" xmlns="http://www.w3.org/2000/svg">
<path d="M1.6875 22.5C1.2375 22.5 0.84375 22.3312 0.50625 21.9937C0.16875 21.6562 0 21.2625 0 20.8125V1.6875C0 1.2375 0.16875 0.84375 0.50625 0.50625C0.84375 0.16875 1.2375 0 1.6875 0H11.1375C11.3625 0 11.5828 0.046875 11.7984 0.140625C12.0141 0.234375 12.1969 0.35625 12.3469 0.50625L17.4937 5.65313C17.6437 5.80312 17.7656 5.98594 17.8594 6.20156C17.9531 6.41719 18 6.6375 18 6.8625V20.8125C18 21.2625 17.8312 21.6562 17.4937 21.9937C17.1562 22.3312 16.7625 22.5 16.3125 22.5H1.6875ZM10.9969 6.075V1.6875H1.6875V20.8125H16.3125V6.91875H11.8406C11.5969 6.91875 11.3953 6.83906 11.2359 6.67969C11.0766 6.52031 10.9969 6.31875 10.9969 6.075ZM1.6875 1.6875V6.91875V1.6875V20.8125V1.6875Z" fill="currentColor"/>
</svg>
