<svg width="112" height="112" viewBox="0 0 112 112" fill="none" xmlns="http://www.w3.org/2000/svg">
<g clip-path="url(#clip0_1476_22758)">
<path d="M56 100.445C80.546 100.445 100.444 80.5461 100.444 56.0001C100.444 31.4541 80.546 11.5557 56 11.5557C31.454 11.5557 11.5555 31.4541 11.5555 56.0001C11.5555 80.5461 31.454 100.445 56 100.445Z" fill="url(#paint0_linear_1476_22758)"/>
<g filter="url(#filter0_d_1476_22758)">
<path d="M81.4816 37.0371H30.5186C28.8822 37.0371 27.5557 38.3637 27.5557 40.0001V102.222C27.5557 103.859 28.8822 105.185 30.5186 105.185H81.4816C83.118 105.185 84.4446 103.859 84.4446 102.222V40.0001C84.4446 38.3637 83.118 37.0371 81.4816 37.0371Z" fill="white"/>
</g>
<path d="M50.0741 45.9258H34.6667C33.6849 45.9258 32.8889 46.7217 32.8889 47.7036C32.8889 48.6854 33.6849 49.4813 34.6667 49.4813H50.0741C51.0559 49.4813 51.8519 48.6854 51.8519 47.7036C51.8519 46.7217 51.0559 45.9258 50.0741 45.9258Z" fill="#D0D5DD"/>
<path d="M60.7408 53.6299H34.6667C33.6849 53.6299 32.8889 54.4258 32.8889 55.4077C32.8889 56.3895 33.6849 57.1854 34.6667 57.1854H60.7408C61.7226 57.1854 62.5185 56.3895 62.5185 55.4077C62.5185 54.4258 61.7226 53.6299 60.7408 53.6299Z" fill="#EAECF0"/>
<path d="M50.0741 61.9258H34.6667C33.6849 61.9258 32.8889 62.7217 32.8889 63.7036C32.8889 64.6854 33.6849 65.4813 34.6667 65.4813H50.0741C51.0559 65.4813 51.8519 64.6854 51.8519 63.7036C51.8519 62.7217 51.0559 61.9258 50.0741 61.9258Z" fill="#D0D5DD"/>
<path d="M60.7408 69.6299H34.6667C33.6849 69.6299 32.8889 70.4258 32.8889 71.4077C32.8889 72.3895 33.6849 73.1854 34.6667 73.1854H60.7408C61.7226 73.1854 62.5185 72.3895 62.5185 71.4077C62.5185 70.4258 61.7226 69.6299 60.7408 69.6299Z" fill="#EAECF0"/>
<path d="M50.0741 77.9258H34.6667C33.6849 77.9258 32.8889 78.7217 32.8889 79.7036C32.8889 80.6854 33.6849 81.4813 34.6667 81.4813H50.0741C51.0559 81.4813 51.8519 80.6854 51.8519 79.7036C51.8519 78.7217 51.0559 77.9258 50.0741 77.9258Z" fill="#D0D5DD"/>
<path d="M60.7408 85.6299H34.6667C33.6849 85.6299 32.8889 86.4258 32.8889 87.4077C32.8889 88.3895 33.6849 89.1854 34.6667 89.1854H60.7408C61.7226 89.1854 62.5185 88.3895 62.5185 87.4077C62.5185 86.4258 61.7226 85.6299 60.7408 85.6299Z" fill="#EAECF0"/>
<g filter="url(#filter1_d_1476_22758)">
<path d="M81.4815 6.81445H30.5185C28.8821 6.81445 27.5555 8.14102 27.5555 9.77742V27.5552C27.5555 29.1916 28.8821 30.5182 30.5185 30.5182H81.4815C83.1179 30.5182 84.4444 29.1916 84.4444 27.5552V9.77742C84.4444 8.14102 83.1179 6.81445 81.4815 6.81445Z" fill="#98A2B3"/>
</g>
<path d="M50.074 13.333H34.6666C33.6847 13.333 32.8888 14.1289 32.8888 15.1108C32.8888 16.0926 33.6847 16.8886 34.6666 16.8886H50.074C51.0558 16.8886 51.8518 16.0926 51.8518 15.1108C51.8518 14.1289 51.0558 13.333 50.074 13.333Z" fill="#EAECF0"/>
<path d="M60.7406 21.0371H34.6666C33.6847 21.0371 32.8888 21.833 32.8888 22.8149C32.8888 23.7967 33.6847 24.5927 34.6666 24.5927H60.7406C61.7225 24.5927 62.5184 23.7967 62.5184 22.8149C62.5184 21.833 61.7225 21.0371 60.7406 21.0371Z" fill="white"/>
</g>
<defs>
<filter id="filter0_d_1476_22758" x="21.5557" y="28.0371" width="68.8889" height="80.1484" filterUnits="userSpaceOnUse" color-interpolation-filters="sRGB">
<feFlood flood-opacity="0" result="BackgroundImageFix"/>
<feColorMatrix in="SourceAlpha" type="matrix" values="0 0 0 0 0 0 0 0 0 0 0 0 0 0 0 0 0 0 127 0" result="hardAlpha"/>
<feOffset dy="-3"/>
<feGaussianBlur stdDeviation="3"/>
<feColorMatrix type="matrix" values="0 0 0 0 0.788235 0 0 0 0 0.803922 0 0 0 0 0.85098 0 0 0 0.349 0"/>
<feBlend mode="normal" in2="BackgroundImageFix" result="effect1_dropShadow_1476_22758"/>
<feBlend mode="normal" in="SourceGraphic" in2="effect1_dropShadow_1476_22758" result="shape"/>
</filter>
<filter id="filter1_d_1476_22758" x="21.5555" y="-2.18555" width="68.8889" height="35.7041" filterUnits="userSpaceOnUse" color-interpolation-filters="sRGB">
<feFlood flood-opacity="0" result="BackgroundImageFix"/>
<feColorMatrix in="SourceAlpha" type="matrix" values="0 0 0 0 0 0 0 0 0 0 0 0 0 0 0 0 0 0 127 0" result="hardAlpha"/>
<feOffset dy="-3"/>
<feGaussianBlur stdDeviation="3"/>
<feColorMatrix type="matrix" values="0 0 0 0 0.788235 0 0 0 0 0.803922 0 0 0 0 0.85098 0 0 0 0.349 0"/>
<feBlend mode="normal" in2="BackgroundImageFix" result="effect1_dropShadow_1476_22758"/>
<feBlend mode="normal" in="SourceGraphic" in2="effect1_dropShadow_1476_22758" result="shape"/>
</filter>
<linearGradient id="paint0_linear_1476_22758" x1="56" y1="11.5557" x2="56" y2="100.445" gradientUnits="userSpaceOnUse">
<stop stop-color="#EAECF0"/>
<stop offset="1" stop-color="#EAECF0"/>
</linearGradient>
<clipPath id="clip0_1476_22758">
<rect width="112" height="112" fill="white"/>
</clipPath>
</defs>
</svg>
