<svg width="276" height="161" viewBox="0 0 276 161" fill="none" xmlns="http://www.w3.org/2000/svg">
<g filter="url(#filter0_d_15_567)">
<path d="M262 6H14C11.2386 6 9 8.23858 9 11V144C9 146.761 11.2386 149 14 149H262C264.761 149 267 146.761 267 144V11C267 8.23858 264.761 6 262 6Z" fill="#C8EBF4"/>
</g>
<path d="M62 66H41C38.2386 66 36 68.2386 36 71V84C36 86.7614 38.2386 89 41 89H62C64.7614 89 67 86.7614 67 84V71C67 68.2386 64.7614 66 62 66Z" fill="#E8B239"/>
<path d="M14 149L267 10.2001V149H14Z" fill="#B8E1EB"/>
<path d="M240 67H209V71H240V67Z" fill="#FF0000"/>
<path d="M240 84H209V88H240V84Z" fill="#FF0000"/>
<path d="M240 80H209V84H240V80Z" fill="white"/>
<path d="M240 71H209V75H240V71Z" fill="white"/>
<path d="M240 75H209V80H240V75Z" fill="#00008F"/>
<path d="M89.7142 105.9H91.2963L92.9564 108.322L94.6361 105.9H96.1547L93.7328 109.182L96.433 113H94.8754L92.9564 110.158L91.0326 113H89.5531L92.1752 109.279L89.7142 105.9ZM96.765 105.9H98.347L100.007 108.322L101.687 105.9H103.205L100.784 109.182L103.484 113H101.926L100.007 110.158L98.0834 113H96.6039L99.226 109.279L96.765 105.9ZM103.816 105.9H105.398L107.058 108.322L108.738 105.9H110.256L107.834 109.182L110.535 113H108.977L107.058 110.158L105.134 113H103.655L106.277 109.279L103.816 105.9ZM116.267 108.801V109.86H111.267V108.801H116.267ZM117.156 105.9H118.738L120.398 108.322L122.078 105.9H123.596L121.174 109.182L123.874 113H122.317L120.398 110.158L118.474 113H116.995L119.617 109.279L117.156 105.9ZM124.206 105.9H125.788L127.449 108.322L129.128 105.9H130.647L128.225 109.182L130.925 113H129.368L127.449 110.158L125.525 113H124.045L126.667 109.279L124.206 105.9ZM131.257 105.9H132.839L134.499 108.322L136.179 105.9H137.698L135.276 109.182L137.976 113H136.418L134.499 110.158L132.576 113H131.096L133.718 109.279L131.257 105.9ZM138.308 105.9H139.89L141.55 108.322L143.23 105.9H144.748L142.327 109.182L145.027 113H143.469L141.55 110.158L139.626 113H138.147L140.769 109.279L138.308 105.9ZM145.359 105.9H146.941L148.601 108.322L150.281 105.9H151.799L149.377 109.182L152.078 113H150.52L148.601 110.158L146.677 113H145.198L147.82 109.279L145.359 105.9ZM152.41 105.9H153.992L155.652 108.322L157.331 105.9H158.85L156.428 109.182L159.128 113H157.571L155.652 110.158L153.728 113H152.248L154.87 109.279L152.41 105.9ZM159.46 105.9H161.042L162.703 108.322L164.382 105.9H165.901L163.479 109.182L166.179 113H164.621L162.703 110.158L160.779 113H159.299L161.921 109.279L159.46 105.9ZM171.911 108.801V109.86H166.911V108.801H171.911ZM172.8 105.9H174.382L176.042 108.322L177.722 105.9H179.241L176.819 109.182L179.519 113H177.961L176.042 110.158L174.119 113H172.639L175.261 109.279L172.8 105.9ZM179.851 105.9H181.433L183.093 108.322L184.773 105.9H186.291L183.87 109.182L186.57 113H185.012L183.093 110.158L181.169 113H179.69L182.312 109.279L179.851 105.9Z" fill="#7F7F7F"/>
<defs>
<filter id="filter0_d_15_567" x="3" y="3" width="270" height="155" filterUnits="userSpaceOnUse" color-interpolation-filters="sRGB">
<feFlood flood-opacity="0" result="BackgroundImageFix"/>
<feColorMatrix in="SourceAlpha" type="matrix" values="0 0 0 0 0 0 0 0 0 0 0 0 0 0 0 0 0 0 127 0" result="hardAlpha"/>
<feOffset dy="3"/>
<feGaussianBlur stdDeviation="3"/>
<feColorMatrix type="matrix" values="0 0 0 0 0 0 0 0 0 0 0 0 0 0 0 0 0 0 0.161 0"/>
<feBlend mode="normal" in2="BackgroundImageFix" result="effect1_dropShadow_15_567"/>
<feBlend mode="normal" in="SourceGraphic" in2="effect1_dropShadow_15_567" result="shape"/>
</filter>
</defs>
</svg>
