<svg width="40" height="49" viewBox="0 0 40 49" fill="none" xmlns="http://www.w3.org/2000/svg">
<path d="M15.8911 14.8437C13.8119 14.8437 12.0462 14.1181 10.5941 12.6667C9.14191 11.2153 8.41584 9.46701 8.41584 7.42187C8.41584 5.34375 9.14191 3.58724 10.5941 2.15234C12.0462 0.717448 13.7954 0 15.8416 0C17.9208 0 19.6782 0.717448 21.1139 2.15234C22.5495 3.58724 23.2673 5.32726 23.2673 7.3724C23.2673 9.45052 22.5495 11.2153 21.1139 12.6667C19.6782 14.1181 17.9373 14.8437 15.8911 14.8437ZM15.8416 11.875C17.0957 11.875 18.1518 11.4379 19.0099 10.5638C19.868 9.68967 20.297 8.64236 20.297 7.42187C20.297 6.1684 19.868 5.11285 19.0099 4.25521C18.1518 3.39757 17.1122 2.96875 15.8911 2.96875C14.637 2.96875 13.5726 3.39757 12.698 4.25521C11.8234 5.11285 11.3861 6.15191 11.3861 7.3724C11.3861 8.62587 11.8234 9.68967 12.698 10.5638C13.5726 11.4379 14.6205 11.875 15.8416 11.875ZM37.4753 37.5547L31.5842 31.6667C30.8251 32.2274 30.0413 32.615 29.2327 32.8294C28.4241 33.0438 27.5908 33.151 26.7327 33.151C24.3894 33.151 22.401 32.3346 20.7673 30.7018C19.1337 29.069 18.3168 27.0816 18.3168 24.7396C18.3168 22.3976 19.1337 20.4102 20.7673 18.7773C22.401 17.1445 24.3894 16.3281 26.7327 16.3281C29.0759 16.3281 31.0644 17.1445 32.698 18.7773C34.3317 20.4102 35.1485 22.3976 35.1485 24.7396C35.1485 25.5972 35.0413 26.4301 34.8267 27.2383C34.6122 28.0464 34.2244 28.8299 33.6634 29.5885L39.5545 35.4766C39.8515 35.7734 40 36.1198 40 36.5156C40 36.9115 39.8515 37.2578 39.5545 37.5547C39.2574 37.8516 38.9109 38 38.5149 38C38.1188 38 37.7723 37.8516 37.4753 37.5547ZM26.7327 30.1823C28.2838 30.1823 29.5792 29.6628 30.6188 28.6237C31.6584 27.5846 32.1782 26.2899 32.1782 24.7396C32.1782 23.1892 31.6584 21.8945 30.6188 20.8555C29.5792 19.8164 28.2838 19.2969 26.7327 19.2969C25.1815 19.2969 23.8861 19.8164 22.8465 20.8555C21.8069 21.8945 21.2871 23.1892 21.2871 24.7396C21.2871 26.2899 21.8069 27.5846 22.8465 28.6237C23.8861 29.6628 25.1815 30.1823 26.7327 30.1823ZM17.7228 31.6667H2.9703C2.14521 31.6667 1.44389 31.378 0.866337 30.8008C0.288779 30.2235 0 29.5226 0 28.6979V27.0156C0 25.7951 0.288779 24.7561 0.866337 23.8984C1.44389 23.0408 2.27723 22.3316 3.36634 21.7708C4.91749 21.0122 6.93894 20.2947 9.43069 19.6185C11.9224 18.9423 14.4554 18.6866 17.0297 18.8516C16.7657 19.2804 16.5182 19.7504 16.2871 20.2617C16.0561 20.773 15.8746 21.276 15.7426 21.7708C13.1683 21.7378 10.9241 22.043 9.0099 22.6862C7.09571 23.3294 5.61056 23.9149 4.55446 24.4427C4.09241 24.7066 3.71287 25.0612 3.41584 25.5065C3.11881 25.9518 2.9703 26.4549 2.9703 27.0156V28.6979H15.7426C16.1056 29.2587 16.4356 29.7782 16.7327 30.2565C17.0297 30.7348 17.3597 31.2049 17.7228 31.6667Z" fill="#211E1E"/>
<path d="M18.23 39.73L15.29 36.79C15.11 36.61 14.89 36.52 14.63 36.52C14.37 36.52 14.14 36.62 13.94 36.82C13.76 37 13.67 37.22 13.67 37.48C13.67 37.74 13.76 37.96 13.94 38.14L17.6 41.83C17.78 42.01 17.99 42.1 18.23 42.1C18.47 42.1 18.68 42.01 18.86 41.83L26.03 34.66C26.23 34.46 26.33 34.23 26.33 33.97C26.33 33.71 26.23 33.48 26.03 33.28C25.83 33.1 25.595 33.015 25.325 33.025C25.055 33.035 24.83 33.13 24.65 33.31L18.23 39.73ZM20 49C18.36 49 16.81 48.685 15.35 48.055C13.89 47.425 12.615 46.565 11.525 45.475C10.435 44.385 9.575 43.11 8.945 41.65C8.315 40.19 8 38.64 8 37C8 35.34 8.315 33.78 8.945 32.32C9.575 30.86 10.435 29.59 11.525 28.51C12.615 27.43 13.89 26.575 15.35 25.945C16.81 25.315 18.36 25 20 25C21.66 25 23.22 25.315 24.68 25.945C26.14 26.575 27.41 27.43 28.49 28.51C29.57 29.59 30.425 30.86 31.055 32.32C31.685 33.78 32 35.34 32 37C32 38.64 31.685 40.19 31.055 41.65C30.425 43.11 29.57 44.385 28.49 45.475C27.41 46.565 26.14 47.425 24.68 48.055C23.22 48.685 21.66 49 20 49Z" fill="#0EB366"/>
</svg>
