<svg width="66" height="66" viewBox="0 0 66 66" fill="none" xmlns="http://www.w3.org/2000/svg">
<rect x="5" y="5" width="56" height="56" rx="28" fill="#D1FADF"/>
<rect x="5" y="5" width="56" height="56" rx="28" stroke="#ECFDF3" stroke-width="10"/>
<path d="M29.4997 33.0002L31.833 35.3335L37.083 30.0835M27.5557 23.4553C28.4935 23.3805 29.3838 23.0117 30.0999 22.4015C31.7709 20.9775 34.2285 20.9775 35.8995 22.4015C36.6155 23.0117 37.5058 23.3805 38.4436 23.4553C40.6321 23.6299 42.3699 25.3678 42.5445 27.5562C42.6194 28.494 42.9881 29.3843 43.5984 30.1004C45.0223 31.7713 45.0223 34.229 43.5984 35.8999C42.9881 36.616 42.6194 37.5063 42.5445 38.4441C42.3699 40.6326 40.6321 42.3704 38.4436 42.545C37.5058 42.6199 36.6155 42.9886 35.8995 43.5988C34.2285 45.0228 31.7709 45.0228 30.0999 43.5988C29.3838 42.9886 28.4935 42.6199 27.5557 42.545C25.3673 42.3704 23.6295 40.6326 23.4548 38.4441C23.38 37.5063 23.0112 36.616 22.401 35.8999C20.977 34.229 20.977 31.7713 22.401 30.1004C23.0112 29.3843 23.38 28.494 23.4548 27.5562C23.6295 25.3678 25.3673 23.6299 27.5557 23.4553Z" stroke="#039855" stroke-width="1.66667" stroke-linecap="round" stroke-linejoin="round"/>
</svg>
