<svg xmlns="http://www.w3.org/2000/svg" width="54" height="54" viewBox="-8 0 60 54">
  <path fill="currentColor" id="Path_53915" data-name="Path 53915" d="M45.465,22.611l-.88,26.325a8.727,8.727,0,0,1-8.8,8.386H19.066a8.727,8.727,0,0,1-8.8-8.378l-.88-26.334a2.2,2.2,0,0,1,4.4-.144l.88,26.331a4.377,4.377,0,0,0,4.4,4.181h16.72a4.377,4.377,0,0,0,4.4-4.19l.88-26.323a2.2,2.2,0,0,1,4.4.144Zm2.911-8.76a2.187,2.187,0,0,1-2.2,2.174H8.678a2.174,2.174,0,1,1,0-4.349H15.5a2.8,2.8,0,0,0,2.8-2.5,6.552,6.552,0,0,1,6.565-5.858h5.126A6.552,6.552,0,0,1,36.553,9.18a2.8,2.8,0,0,0,2.8,2.5h6.82a2.187,2.187,0,0,1,2.2,2.174ZM22.117,11.676H32.739a7.11,7.11,0,0,1-.561-2.053,2.19,2.19,0,0,0-2.187-1.957H24.865a2.19,2.19,0,0,0-2.187,1.957,7.11,7.11,0,0,1-.563,2.053Zm2.215,32.944V26.1a2.2,2.2,0,0,0-4.4,0V44.628a2.2,2.2,0,0,0,4.4,0Zm10.59,0V26.1a2.2,2.2,0,0,0-4.4,0V44.628a2.2,2.2,0,0,0,4.4,0Z" transform="translate(-6.478 -3.322)"/>
</svg>
