<svg width="18" height="18" viewBox="0 0 18 18" fill="none" xmlns="http://www.w3.org/2000/svg">
<path d="M3.645 15.2693C3.45 15.2693 3.28875 15.2048 3.16125 15.0759C3.03375 14.9469 2.97 14.7838 2.97 14.5866V8.21492C2.97 8.03287 3.0375 7.87737 3.1725 7.74842C3.3075 7.61947 3.465 7.55499 3.645 7.55499C3.84 7.55499 4.00125 7.61947 4.12875 7.74842C4.25625 7.87737 4.32 8.04046 4.32 8.23767V14.6094C4.32 14.7914 4.2525 14.9469 4.1175 15.0759C3.9825 15.2048 3.825 15.2693 3.645 15.2693ZM9.09 15.2693C8.895 15.2693 8.73375 15.2048 8.60625 15.0759C8.47875 14.9469 8.415 14.7838 8.415 14.5866V8.21492C8.415 8.03287 8.4825 7.87737 8.6175 7.74842C8.7525 7.61947 8.91 7.55499 9.09 7.55499C9.285 7.55499 9.44625 7.61947 9.57375 7.74842C9.70125 7.87737 9.765 8.04046 9.765 8.23767V14.6094C9.765 14.7914 9.6975 14.9469 9.5625 15.0759C9.4275 15.2048 9.27 15.2693 9.09 15.2693ZM0.6525 18C0.4725 18 0.31875 17.9317 0.19125 17.7952C0.0637501 17.6587 0 17.4994 0 17.3173C0 17.1201 0.0637501 16.957 0.19125 16.8281C0.31875 16.6991 0.48 16.6346 0.675 16.6346H17.3475C17.5275 16.6346 17.6812 16.7029 17.8088 16.8394C17.9363 16.976 18 17.1353 18 17.3173C18 17.5145 17.9363 17.6776 17.8088 17.8066C17.6812 17.9355 17.52 18 17.325 18H0.6525ZM14.355 15.2693C14.16 15.2693 13.9987 15.2048 13.8713 15.0759C13.7437 14.9469 13.68 14.7838 13.68 14.5866V8.21492C13.68 8.03287 13.7475 7.87737 13.8825 7.74842C14.0175 7.61947 14.175 7.55499 14.355 7.55499C14.55 7.55499 14.7112 7.61947 14.8387 7.74842C14.9662 7.87737 15.03 8.04046 15.03 8.23767V14.6094C15.03 14.7914 14.9625 14.9469 14.8275 15.0759C14.6925 15.2048 14.535 15.2693 14.355 15.2693ZM9.675 0.182048L17.505 4.68774C17.655 4.76359 17.775 4.87358 17.865 5.0177C17.955 5.16182 18 5.31732 18 5.4842C18 5.69659 17.9175 5.86726 17.7525 5.99621C17.5875 6.12516 17.4 6.18963 17.19 6.18963H0.81C0.6 6.18963 0.4125 6.12516 0.2475 5.99621C0.0825001 5.86726 0 5.69659 0 5.4842C0 5.31732 0.0487499 5.16561 0.14625 5.02908C0.24375 4.89254 0.3675 4.77876 0.5175 4.68774L8.325 0.182048C8.535 0.0606826 8.76 0 9 0C9.24 0 9.465 0.0606826 9.675 0.182048ZM3.015 4.82427H14.985L9 1.36536L3.015 4.82427Z" fill="currentColor"/>
</svg>
