<svg width="20" height="20" viewBox="0 0 20 20" fill="none" xmlns="http://www.w3.org/2000/svg">
<path d="M8.15099 7.68317C7.21535 7.68317 6.42079 7.35643 5.76733 6.70297C5.11386 6.0495 4.78713 5.26238 4.78713 4.34158C4.78713 3.40594 5.11386 2.6151 5.76733 1.96906C6.42079 1.32302 7.20792 1 8.12871 1C9.06436 1 9.8552 1.32302 10.5012 1.96906C11.1473 2.6151 11.4703 3.39851 11.4703 4.31931C11.4703 5.25495 11.1473 6.0495 10.5012 6.70297C9.8552 7.35643 9.07178 7.68317 8.15099 7.68317ZM8.12871 6.34653C8.69307 6.34653 9.16832 6.14975 9.55446 5.75619C9.94059 5.36262 10.1337 4.89109 10.1337 4.34158C10.1337 3.77723 9.94059 3.30198 9.55446 2.91584C9.16832 2.5297 8.70049 2.33663 8.15099 2.33663C7.58663 2.33663 7.10767 2.5297 6.71411 2.91584C6.32054 3.30198 6.12376 3.7698 6.12376 4.31931C6.12376 4.88366 6.32054 5.36262 6.71411 5.75619C7.10767 6.14975 7.57921 6.34653 8.12871 6.34653ZM17.8639 17.9084L15.2129 15.2574C14.8713 15.5099 14.5186 15.6844 14.1547 15.7809C13.7908 15.8775 13.4158 15.9257 13.0297 15.9257C11.9752 15.9257 11.0804 15.5582 10.3453 14.823C9.61015 14.0879 9.24257 13.1931 9.24257 12.1386C9.24257 11.0842 9.61015 10.1894 10.3453 9.45421C11.0804 8.71906 11.9752 8.35148 13.0297 8.35148C14.0842 8.35148 14.979 8.71906 15.7141 9.45421C16.4493 10.1894 16.8168 11.0842 16.8168 12.1386C16.8168 12.5248 16.7686 12.8998 16.672 13.2636C16.5755 13.6275 16.401 13.9802 16.1485 14.3218L18.7995 16.9728C18.9332 17.1064 19 17.2624 19 17.4406C19 17.6188 18.9332 17.7748 18.7995 17.9084C18.6658 18.0421 18.5099 18.1089 18.3317 18.1089C18.1535 18.1089 17.9975 18.0421 17.8639 17.9084ZM13.0297 14.5891C13.7277 14.5891 14.3106 14.3552 14.7785 13.8874C15.2463 13.4196 15.4802 12.8366 15.4802 12.1386C15.4802 11.4406 15.2463 10.8577 14.7785 10.3899C14.3106 9.92203 13.7277 9.68812 13.0297 9.68812C12.3317 9.68812 11.7488 9.92203 11.2809 10.3899C10.8131 10.8577 10.5792 11.4406 10.5792 12.1386C10.5792 12.8366 10.8131 13.4196 11.2809 13.8874C11.7488 14.3552 12.3317 14.5891 13.0297 14.5891ZM8.97525 15.2574H2.33663C1.96535 15.2574 1.64975 15.1275 1.38985 14.8676C1.12995 14.6077 1 14.2921 1 13.9208V13.1634C1 12.6139 1.12995 12.146 1.38985 11.7599C1.64975 11.3738 2.02475 11.0545 2.51485 10.802C3.21287 10.4604 4.12252 10.1374 5.24381 9.83292C6.3651 9.52847 7.50495 9.41337 8.66337 9.48762C8.54455 9.68069 8.43317 9.89233 8.32921 10.1225C8.22525 10.3527 8.14356 10.5792 8.08416 10.802C6.92574 10.7871 5.91584 10.9245 5.05446 11.2141C4.19307 11.5037 3.52475 11.7673 3.0495 12.005C2.84158 12.1238 2.67079 12.2834 2.53713 12.4839C2.40347 12.6844 2.33663 12.9109 2.33663 13.1634V13.9208H8.08416C8.24752 14.1733 8.39604 14.4072 8.5297 14.6225C8.66337 14.8379 8.81188 15.0495 8.97525 15.2574Z" fill="currentColor"/>
</svg>
