<svg width="18" height="15" viewBox="0 0 18 15" fill="none" xmlns="http://www.w3.org/2000/svg">
<path d="M8.6281 15C8.52062 15 8.41583 14.9893 8.31373 14.968C8.21162 14.9467 8.11098 14.9075 8.01181 14.8506L3.12397 12.1622C2.92562 12.0484 2.76623 11.8928 2.64581 11.6954C2.52538 11.498 2.46517 11.2767 2.46517 11.0313V6.67852L0.318772 5.50498C0.207457 5.44158 0.126496 5.36233 0.075889 5.26722C0.0252963 5.17211 0 5.06644 0 4.95021C0 4.83398 0.0252963 4.72831 0.075889 4.63321C0.126496 4.5381 0.207457 4.45885 0.318772 4.39545L8.01181 0.170697C8.10911 0.113798 8.20912 0.0711238 8.31184 0.0426743C8.41455 0.0142248 8.51997 0 8.6281 0C8.73623 0 8.84165 0.0142248 8.94436 0.0426743C9.04708 0.0711238 9.14709 0.113798 9.24439 0.170697L17.66 4.75818C17.7733 4.8293 17.8583 4.91442 17.915 5.01352C17.9717 5.11261 18 5.21953 18 5.33428V11.074C18 11.2553 17.9385 11.4074 17.8156 11.5301C17.6927 11.6527 17.5404 11.7141 17.3587 11.7141C17.177 11.7141 17.026 11.6527 16.9055 11.5301C16.7851 11.4074 16.7249 11.2553 16.7249 11.074V5.69701L14.791 6.67852V11.0313C14.791 11.2767 14.7308 11.498 14.6104 11.6954C14.49 11.8928 14.3306 12.0484 14.1322 12.1622L9.24439 14.8506C9.14522 14.9075 9.04458 14.9467 8.94247 14.968C8.84037 14.9893 8.73557 15 8.6281 15ZM8.6281 8.6202L15.3223 4.95021L8.6281 1.34424L1.97639 4.95021L8.6281 8.6202ZM8.6281 13.7411L13.5159 11.0313V7.44666L9.24439 9.75107C9.14522 9.80797 9.04604 9.84708 8.94687 9.86842C8.8477 9.88976 8.74144 9.90043 8.6281 9.90043C8.51476 9.90043 8.41204 9.88976 8.31995 9.86842C8.22786 9.84708 8.13223 9.80797 8.03306 9.75107L3.74026 7.40398V11.0313L8.6281 13.7411Z" fill="currentColor"/>
</svg>
