<svg width="32" height="32" viewBox="0 0 32 32" fill="none" xmlns="http://www.w3.org/2000/svg">
<path  d="M9.4 22C9.015 22 8.68542 21.8629 8.41125 21.5887C8.13708 21.3146 8 20.985 8 20.6V12.9C8 12.515 8.13708 12.1854 8.41125 11.9113C8.68542 11.6371 9.015 11.5 9.4 11.5H12.9V9.4C12.9 9.015 13.0371 8.68542 13.3113 8.41125C13.5854 8.13708 13.915 8 14.3 8H15.7C16.085 8 16.4146 8.13708 16.6888 8.41125C16.9629 8.68542 17.1 9.015 17.1 9.4V11.5H20.6C20.985 11.5 21.3146 11.6371 21.5887 11.9113C21.8629 12.1854 22 12.515 22 12.9V20.6C22 20.985 21.8629 21.3146 21.5887 21.5887C21.3146 21.8629 20.985 22 20.6 22H9.4ZM9.4 20.6H20.6V12.9H17.1C17.1 13.285 16.9629 13.6146 16.6888 13.8888C16.4146 14.1629 16.085 14.3 15.7 14.3H14.3C13.915 14.3 13.5854 14.1629 13.3113 13.8888C13.0371 13.6146 12.9 13.285 12.9 12.9H9.4V20.6ZM10.8 19.2H15V18.885C15 18.6867 14.9446 18.5029 14.8338 18.3337C14.7229 18.1646 14.5683 18.0333 14.37 17.94C14.1367 17.835 13.9004 17.7563 13.6613 17.7037C13.4221 17.6512 13.1683 17.625 12.9 17.625C12.6317 17.625 12.3779 17.6512 12.1388 17.7037C11.8996 17.7563 11.6633 17.835 11.43 17.94C11.2317 18.0333 11.0771 18.1646 10.9662 18.3337C10.8554 18.5029 10.8 18.6867 10.8 18.885V19.2ZM16.4 18.15H19.2V17.1H16.4V18.15ZM12.9 17.1C13.1917 17.1 13.4396 16.9979 13.6438 16.7937C13.8479 16.5896 13.95 16.3417 13.95 16.05C13.95 15.7583 13.8479 15.5104 13.6438 15.3063C13.4396 15.1021 13.1917 15 12.9 15C12.6083 15 12.3604 15.1021 12.1562 15.3063C11.9521 15.5104 11.85 15.7583 11.85 16.05C11.85 16.3417 11.9521 16.5896 12.1562 16.7937C12.3604 16.9979 12.6083 17.1 12.9 17.1ZM16.4 16.05H19.2V15H16.4V16.05ZM14.3 12.9H15.7V9.4H14.3V12.9Z" fill="currentColor"/>
</svg>
