<svg width="18" height="18" viewBox="0 0 18 18" fill="none" xmlns="http://www.w3.org/2000/svg">
<path d="M8.9775 15.4575C9.1425 15.4575 9.285 15.3937 9.405 15.2662C9.525 15.1387 9.585 14.9925 9.585 14.8275V14.2875C10.485 14.1825 11.1937 13.8787 11.7112 13.3762C12.2287 12.8737 12.4875 12.2325 12.4875 11.4525C12.4875 10.6725 12.2738 10.05 11.8462 9.585C11.4187 9.12 10.68 8.715 9.63 8.37C8.685 8.055 8.03625 7.74375 7.68375 7.43625C7.33125 7.12875 7.155 6.7275 7.155 6.2325C7.155 5.7675 7.32375 5.40375 7.66125 5.14125C7.99875 4.87875 8.46 4.7475 9.045 4.7475C9.405 4.7475 9.7275 4.815 10.0125 4.95C10.2975 5.085 10.545 5.2875 10.755 5.5575C10.86 5.6775 10.9875 5.76 11.1375 5.805C11.2875 5.85 11.43 5.835 11.565 5.76C11.73 5.685 11.8387 5.565 11.8912 5.4C11.9437 5.235 11.9175 5.085 11.8125 4.95C11.5575 4.59 11.2462 4.305 10.8787 4.095C10.5112 3.885 10.095 3.7575 9.63 3.7125V3.1725C9.63 3.0075 9.57 2.865 9.45 2.745C9.33 2.625 9.1875 2.565 9.0225 2.565C8.8575 2.565 8.71125 2.625 8.58375 2.745C8.45625 2.865 8.3925 3.0075 8.3925 3.1725V3.7125C7.6275 3.8175 7.02375 4.095 6.58125 4.545C6.13875 4.995 5.9175 5.5575 5.9175 6.2325C5.9175 6.9675 6.10875 7.5525 6.49125 7.9875C6.87375 8.4225 7.5825 8.835 8.6175 9.225C9.6825 9.63 10.3875 9.9825 10.7325 10.2825C11.0775 10.5825 11.25 10.9725 11.25 11.4525C11.25 11.9475 11.0475 12.3637 10.6425 12.7012C10.2375 13.0387 9.7425 13.2075 9.1575 13.2075C8.6625 13.2075 8.20875 13.0875 7.79625 12.8475C7.38375 12.6075 7.065 12.27 6.84 11.835C6.765 11.715 6.66375 11.6212 6.53625 11.5537C6.40875 11.4862 6.2775 11.475 6.1425 11.52C5.9475 11.595 5.81625 11.7112 5.74875 11.8687C5.68125 12.0262 5.7 12.1875 5.805 12.3525C6.105 12.8475 6.46125 13.2487 6.87375 13.5562C7.28625 13.8637 7.7775 14.0925 8.3475 14.2425V14.85C8.3475 15.015 8.41125 15.1575 8.53875 15.2775C8.66625 15.3975 8.8125 15.4575 8.9775 15.4575ZM9 18C7.725 18 6.54 17.7712 5.445 17.3137C4.35 16.8562 3.3975 16.2225 2.5875 15.4125C1.7775 14.6025 1.14375 13.65 0.68625 12.555C0.22875 11.46 0 10.275 0 9C0 7.74 0.22875 6.5625 0.68625 5.4675C1.14375 4.3725 1.7775 3.42 2.5875 2.61C3.3975 1.8 4.35 1.1625 5.445 0.6975C6.54 0.2325 7.725 0 9 0C10.26 0 11.4375 0.2325 12.5325 0.6975C13.6275 1.1625 14.58 1.8 15.39 2.61C16.2 3.42 16.8375 4.3725 17.3025 5.4675C17.7675 6.5625 18 7.74 18 9C18 10.275 17.7675 11.46 17.3025 12.555C16.8375 13.65 16.2 14.6025 15.39 15.4125C14.58 16.2225 13.6275 16.8562 12.5325 17.3137C11.4375 17.7712 10.26 18 9 18ZM9 16.65C11.175 16.65 12.9937 15.9187 14.4562 14.4562C15.9187 12.9937 16.65 11.175 16.65 9C16.65 6.825 15.9187 5.00625 14.4562 3.54375C12.9937 2.08125 11.175 1.35 9 1.35C6.825 1.35 5.00625 2.08125 3.54375 3.54375C2.08125 5.00625 1.35 6.825 1.35 9C1.35 11.175 2.08125 12.9937 3.54375 14.4562C5.00625 15.9187 6.825 16.65 9 16.65Z" fill="currentColor" />
</svg>
