<svg width="18" height="18" viewBox="0 0 18 18" fill="none" xmlns="http://www.w3.org/2000/svg">
<path d="M8.49941 17.9657C7.31519 17.9057 6.20592 17.6284 5.1716 17.1337C4.13728 16.6391 3.23787 15.9907 2.47337 15.1888C1.70888 14.3868 1.10552 13.4536 0.663314 12.3893C0.221104 11.325 0 10.1933 0 8.99408C0 7.7499 0.236095 6.58067 0.708284 5.48639C1.18047 4.39211 1.8213 3.44024 2.63077 2.63077C3.44024 1.8213 4.39211 1.18047 5.48639 0.708284C6.58067 0.236095 7.7499 0 8.99408 0C11.2276 0 13.1688 0.704536 14.8178 2.11361C16.4667 3.52268 17.4785 5.29152 17.8533 7.42012H16.4817C16.2268 6.16095 15.6947 5.03669 14.8852 4.04734C14.0757 3.05799 13.0639 2.31598 11.8497 1.8213V2.22604C11.8497 2.75069 11.6698 3.20789 11.3101 3.59763C10.9503 3.98738 10.5081 4.18225 9.98343 4.18225H8.02722V6.13846C8.02722 6.39329 7.92603 6.60316 7.72367 6.76805C7.5213 6.93294 7.2927 7.01538 7.03787 7.01538H5.1716V8.99408H7.64497V11.8047H6.13846L1.55148 7.21775C1.47653 7.51755 1.42406 7.81361 1.39408 8.10592C1.3641 8.39822 1.34911 8.69428 1.34911 8.99408C1.34911 11.0178 2.03116 12.7641 3.39527 14.2331C4.75937 15.7022 6.46075 16.4966 8.49941 16.6166V17.9657ZM16.8414 16.8864L14.3006 14.368C13.9858 14.5929 13.6448 14.7653 13.2775 14.8852C12.9103 15.0051 12.5318 15.0651 12.142 15.0651C11.0777 15.0651 10.1746 14.6941 9.43254 13.9521C8.69053 13.2101 8.31953 12.3069 8.31953 11.2426C8.31953 10.1783 8.69053 9.27515 9.43254 8.53314C10.1746 7.79112 11.0777 7.42012 12.142 7.42012C13.2063 7.42012 14.1095 7.79112 14.8515 8.53314C15.5935 9.27515 15.9645 10.1783 15.9645 11.2426C15.9645 11.6323 15.9008 12.0108 15.7734 12.3781C15.646 12.7454 15.4773 13.0939 15.2675 13.4237L17.7858 15.942C17.9207 16.0769 17.9919 16.2343 17.9994 16.4142C18.0069 16.5941 17.9432 16.759 17.8083 16.9089C17.6734 17.0438 17.5122 17.1075 17.3249 17.1C17.1375 17.0925 16.9763 17.0213 16.8414 16.8864ZM12.142 13.716C12.8316 13.716 13.4162 13.4761 13.8959 12.9964C14.3755 12.5168 14.6154 11.9321 14.6154 11.2426C14.6154 10.5531 14.3755 9.96844 13.8959 9.48876C13.4162 9.00907 12.8316 8.76923 12.142 8.76923C11.4525 8.76923 10.8678 9.00907 10.3882 9.48876C9.90848 9.96844 9.66864 10.5531 9.66864 11.2426C9.66864 11.9321 9.90848 12.5168 10.3882 12.9964C10.8678 13.4761 11.4525 13.716 12.142 13.716Z" fill="currentColor"/>
</svg>
