<svg width="20" height="20" viewBox="0 0 20 20" fill="none" xmlns="http://www.w3.org/2000/svg">
<path d="M2.29652 17.4226C1.95078 17.4226 1.64826 17.2929 1.38896 17.0336C1.12965 16.7743 1 16.4718 1 16.126V5.47299C1 5.12725 1.12965 4.82473 1.38896 4.56543C1.64826 4.30612 1.95078 4.17647 2.29652 4.17647H6.40216V2.29652C6.40216 1.96519 6.53181 1.66627 6.79112 1.39976C7.05042 1.13325 7.35294 1 7.69868 1H11.5882C11.934 1 12.2365 1.13325 12.4958 1.39976C12.7551 1.66627 12.8848 1.96519 12.8848 2.29652V4.17647H16.9904C17.3361 4.17647 17.6387 4.30612 17.898 4.56543C18.1573 4.82473 18.2869 5.12725 18.2869 5.47299V10.6158C18.0852 10.4574 17.88 10.3133 17.6711 10.1837C17.4622 10.054 17.2353 9.93157 16.9904 9.81633V5.47299H2.29652V16.1369V16.126H9.51381C9.57143 16.3565 9.64346 16.5798 9.72989 16.7959C9.81633 17.012 9.91717 17.2209 10.0324 17.4226H2.29652ZM7.69868 4.17647H11.5882V2.29652H7.69868V4.17647ZM14.8295 19C13.6915 19 12.7119 18.5894 11.8908 17.7683C11.0696 16.9472 10.6591 15.9676 10.6591 14.8295C10.6591 13.6915 11.0696 12.7119 11.8908 11.8908C12.7119 11.0696 13.6915 10.6591 14.8295 10.6591C15.9676 10.6591 16.9472 11.0696 17.7683 11.8908C18.5894 12.7119 19 13.6915 19 14.8295C19 15.9676 18.5894 16.9472 17.7683 17.7683C16.9472 18.5894 15.9676 19 14.8295 19ZM16.4286 17.012L17.012 16.4286L15.1969 14.7863V12.1068H14.2893V15.0456L16.4286 17.012Z" fill="currentColor"/>
</svg>
